<svg width="68" height="54" viewBox="0 0 68 54" fill="none" xmlns="http://www.w3.org/2000/svg">
<path fill-rule="evenodd" clip-rule="evenodd" d="M34.0637 50.6703C34.0877 50.6343 34.1216 50.6064 34.1611 50.5901C34.2006 50.5738 34.2439 50.5697 34.2857 50.5785C34.3557 50.586 34.4232 50.609 34.4837 50.6458C34.5446 50.6816 34.5961 50.732 34.6336 50.7927C34.7176 50.9457 34.7116 51.1844 34.5017 51.5088C34.4321 51.6134 34.337 51.6978 34.2257 51.7536C34.0999 51.8131 33.9624 51.8425 33.8237 51.8393C33.5406 51.8437 33.2663 51.7388 33.0559 51.5455C32.9576 51.4492 32.8802 51.333 32.8286 51.2045C32.7769 51.0759 32.7522 50.9377 32.7559 50.7988C32.7558 50.6566 32.7833 50.5158 32.8369 50.3844C32.8904 50.2531 32.9689 50.1339 33.0679 50.0337C33.1672 49.9326 33.2851 49.8525 33.4148 49.7979C33.5445 49.7433 33.6834 49.7153 33.8237 49.7155H67.0832V49.3238H33.8237C33.4434 49.3286 33.0803 49.4861 32.813 49.7622C32.5458 50.0383 32.3959 50.4108 32.3959 50.7988C32.3933 50.9877 32.4293 51.175 32.5016 51.3489C32.5739 51.5228 32.6809 51.6794 32.8159 51.8087C33.0944 52.0726 33.4617 52.2172 33.8418 52.2126C34.0493 52.2235 34.256 52.1792 34.4417 52.0841C34.6147 51.9992 34.7619 51.8681 34.8676 51.7046C34.9953 51.551 35.0768 51.363 35.1023 51.1632C35.1279 50.9634 35.0964 50.7604 35.0116 50.5785C34.9409 50.4594 34.8418 50.3604 34.7236 50.2908C34.6112 50.2257 34.4864 50.186 34.3577 50.1745C34.2373 50.1604 34.1155 50.1839 34.0084 50.2418C33.9013 50.2997 33.8139 50.3893 33.7578 50.4989C33.7479 50.5226 33.7427 50.5481 33.7425 50.5738C33.7422 50.5996 33.747 50.6251 33.7565 50.649C33.766 50.6729 33.78 50.6946 33.7977 50.713C33.8154 50.7313 33.8365 50.7459 33.8597 50.756C33.883 50.766 33.9079 50.7713 33.9332 50.7716C33.9584 50.7718 33.9835 50.7669 34.0069 50.7573C34.0303 50.7476 34.0516 50.7333 34.0696 50.7152C34.0876 50.6972 34.1019 50.6756 34.1117 50.6519M37.0093 50.5295V50.7988C37.0093 51.2192 36.9282 51.6354 36.7705 52.0237C36.6128 52.4121 36.3817 52.765 36.0903 53.0622C35.799 53.3594 35.4531 53.5952 35.0724 53.7561C34.6918 53.917 34.2838 53.9998 33.8717 53.9998C33.4597 53.9998 33.0517 53.917 32.671 53.7561C32.2904 53.5952 31.9445 53.3594 31.6531 53.0622C31.3618 52.765 31.1307 52.4121 30.973 52.0237C30.8153 51.6354 30.7342 51.2192 30.7342 50.7988C30.7328 50.5619 30.759 50.3256 30.8122 50.095H0.90625V49.7032H30.8722C30.9275 49.5566 30.9916 49.4135 31.0641 49.2748H0.90625V48.8892H31.3041C31.3958 48.7639 31.4961 48.6453 31.6041 48.5343L31.73 48.418H0.90625V48.0446H32.258C32.6273 47.8291 33.0353 47.6918 33.4578 47.6407C33.2606 47.5973 33.0596 47.5747 32.8579 47.5734H0.90625V47.1817H32.8279C33.1035 47.1809 33.3779 47.218 33.6438 47.2918C33.9091 47.3641 34.1635 47.4733 34.3997 47.6162H67.0832V48.0079H33.8237C33.2775 48.0103 32.7442 48.1782 32.2914 48.4901C31.8387 48.802 31.4869 49.244 31.2806 49.7601C31.0743 50.2762 31.0227 50.8431 31.1325 51.3891C31.2423 51.935 31.5085 52.4355 31.8973 52.827C32.2861 53.2185 32.7801 53.4835 33.3166 53.5883C33.8532 53.6932 34.4082 53.6332 34.9113 53.416C35.4144 53.1988 35.843 52.8342 36.1428 52.3683C36.4426 51.9023 36.6001 51.3561 36.5954 50.7988V50.5295H36.1154V50.7988C36.1154 51.2612 35.981 51.7132 35.7292 52.0977C35.4774 52.4822 35.1195 52.7819 34.7007 52.9588C34.282 53.1358 33.8212 53.1821 33.3767 53.0919C32.9321 53.0016 32.5238 52.779 32.2033 52.452C31.8828 52.125 31.6645 51.7084 31.5761 51.2549C31.4877 50.8014 31.5331 50.3313 31.7065 49.9041C31.88 49.4769 32.1737 49.1117 32.5506 48.8548C32.9274 48.5979 33.3705 48.4608 33.8237 48.4608H67.0832V48.8525H33.8237C33.3178 48.8525 32.8325 49.0576 32.4748 49.4226C32.117 49.7876 31.916 50.2826 31.916 50.7988C31.9157 51.184 32.0274 51.5606 32.237 51.881C32.4466 52.2014 32.7447 52.4511 33.0935 52.5985C33.4423 52.746 33.8261 52.7845 34.1964 52.7093C34.5667 52.6341 34.9068 52.4484 35.1736 52.1759C35.3507 51.995 35.4911 51.7803 35.5868 51.544C35.6826 51.3077 35.7317 51.0545 35.7315 50.7988V50.1868H67.0832V50.5785L37.0093 50.5295Z" fill="white"/>
<path fill-rule="evenodd" clip-rule="evenodd" d="M16.7978 43.5901C16.7946 43.7811 16.7452 43.9682 16.6539 44.1349C16.552 44.3195 16.4202 44.485 16.2639 44.6245C16.0847 44.7745 15.8819 44.8925 15.664 44.9734C15.4519 45.0591 15.2262 45.1048 14.9981 45.108C14.5392 45.1301 14.0826 45.031 13.6723 44.8203C13.4076 44.6752 13.1828 44.4648 13.0184 44.2083C12.9327 44.0697 12.8623 43.922 12.8084 43.7676L13.6483 43.4555C13.7221 43.7929 13.8586 44.1129 14.0502 44.398C14.1432 44.5357 14.2692 44.6468 14.4163 44.7208C14.5633 44.7947 14.7264 44.829 14.8901 44.8203C15.1712 44.8283 15.4472 44.7424 15.676 44.5755C15.7806 44.4982 15.8648 44.3957 15.9213 44.2772C15.9778 44.1587 16.0048 44.0278 15.9999 43.8962C16.005 43.7456 15.9775 43.5957 15.9194 43.4571C15.8614 43.3186 15.7742 43.1948 15.664 43.0944C15.3337 42.8246 14.978 42.5888 14.6021 42.3906C14.2142 42.18 13.8535 41.9209 13.5283 41.6194C13.4167 41.4999 13.3299 41.3586 13.2732 41.2039C13.2165 41.0493 13.191 40.8846 13.1983 40.7197C13.1975 40.4828 13.2597 40.2501 13.3783 40.0464C13.5065 39.8282 13.6913 39.6503 13.9122 39.5323C14.1581 39.4009 14.4327 39.3356 14.7101 39.3426H14.9081C14.9756 39.3434 15.0426 39.3558 15.1061 39.3793L15.526 39.5079C15.6541 39.5619 15.7898 39.595 15.928 39.6058C15.9624 39.6067 15.9966 39.5995 16.0279 39.5846C16.0591 39.5697 16.0865 39.5477 16.1079 39.5201C16.1555 39.4729 16.1853 39.41 16.1919 39.3426H16.3539L16.5459 41.142H16.3539L16.1979 40.7931C16.1295 40.6078 16.0366 40.4328 15.922 40.2729C15.7987 40.0924 15.6417 39.9385 15.46 39.82C15.2556 39.6824 15.0149 39.612 14.7701 39.618C14.5492 39.6302 14.3384 39.7163 14.1702 39.8628C14.0749 39.932 13.9977 40.024 13.9454 40.1307C13.8931 40.2374 13.8673 40.3556 13.8702 40.4749C13.8697 40.6007 13.8989 40.7247 13.9552 40.8366C14.0116 40.9484 14.0936 41.0448 14.1942 41.1175C14.544 41.365 14.9087 41.5898 15.286 41.7908C15.7049 42.0042 16.0925 42.2761 16.4379 42.5986C16.5612 42.73 16.6568 42.8857 16.7187 43.0563C16.7807 43.2268 16.8076 43.4085 16.7978 43.5901ZM20.8353 41.4052H19.1255V43.2046C19.1 43.5608 19.1794 43.9167 19.3535 44.2267C19.4681 44.4263 19.6427 44.5829 19.8514 44.6735C20.0124 44.7361 20.183 44.7693 20.3554 44.7714C20.5231 44.768 20.6892 44.737 20.8473 44.6796C21.0514 44.5901 21.2232 44.4383 21.3392 44.245C21.5058 43.9479 21.583 43.6073 21.5612 43.2658C21.5817 43.1193 21.552 42.9702 21.4772 42.8435C21.4379 42.8125 21.3931 42.7897 21.3452 42.7761C21.2656 42.7655 21.1849 42.7655 21.1053 42.7761C21.1053 42.7761 21.0693 42.7761 21.0693 42.6782C21.0693 42.5803 21.0693 42.6109 21.0993 42.6048H22.839C22.839 42.6048 22.839 42.6048 22.839 42.6904C22.839 42.7761 22.839 42.77 22.839 42.7761C22.7394 42.7737 22.64 42.7882 22.5451 42.819C22.5148 42.8303 22.4873 42.8482 22.4645 42.8715C22.4417 42.8947 22.4242 42.9228 22.4131 42.9536C22.3978 43.0612 22.3978 43.1704 22.4131 43.278V43.3882C22.412 43.4929 22.402 43.5974 22.3831 43.7003C22.3642 43.8074 22.3341 43.912 22.2931 44.0125C22.2102 44.2169 22.0878 44.4021 21.9331 44.5572C21.751 44.74 21.5319 44.8799 21.2912 44.9672C20.9992 45.0754 20.69 45.1273 20.3794 45.1202C19.9679 45.1275 19.5614 45.0285 19.1975 44.8326C18.9098 44.6807 18.6736 44.444 18.5196 44.1532C18.3774 43.8844 18.3031 43.5835 18.3036 43.278V40.1138C18.3129 40.0359 18.3059 39.957 18.2831 39.8821C18.2604 39.8072 18.2224 39.7381 18.1717 39.6792C18.0373 39.5774 17.87 39.5314 17.7037 39.5507C17.7037 39.5507 17.7037 39.5507 17.7037 39.4773C17.7037 39.4038 17.7037 39.4038 17.7037 39.3977H19.7374C19.7374 39.3977 19.7374 39.3977 19.7374 39.4773C19.7374 39.5568 19.7374 39.5446 19.7014 39.5507C19.5446 39.5425 19.3898 39.5901 19.2635 39.6853C19.2065 39.7396 19.1624 39.8064 19.1343 39.8806C19.1063 39.9548 19.095 40.0345 19.1015 40.1138V41.1236H21.6572H22.0411C22.1449 41.1144 22.2493 41.1144 22.3531 41.1236C22.4071 41.1236 22.5271 41.1604 22.701 41.2093C22.863 41.2435 23.0138 41.3194 23.139 41.4297L22.2091 42.0417C22.1358 41.9271 22.0422 41.8275 21.9331 41.7479C21.7863 41.6337 21.6222 41.5448 21.4472 41.4847C21.2507 41.4255 21.0461 41.3986 20.8413 41.4052H20.8353ZM28.3943 43.3698V42.9169C28.3943 42.7149 28.3583 42.5803 28.2803 42.5191C28.2338 42.4839 28.1807 42.4589 28.1243 42.4456C28.0406 42.4348 27.956 42.4348 27.8723 42.4456C27.8723 42.4456 27.8363 42.4456 27.8363 42.3599C27.8363 42.2743 27.8363 42.2987 27.8363 42.2926H29.7081C29.7081 42.2926 29.7081 42.2926 29.7081 42.3661C29.7081 42.4395 29.7081 42.4395 29.7081 42.4456C29.604 42.4429 29.5004 42.4595 29.4021 42.4946C29.3383 42.5211 29.2868 42.5714 29.2581 42.6354C29.2244 42.7399 29.2102 42.8499 29.2161 42.9597V43.3698C29.213 43.5802 29.1702 43.788 29.0902 43.9818C29.0032 44.1954 28.8722 44.3874 28.7062 44.5449C28.5146 44.7198 28.29 44.8531 28.0463 44.9366C27.7478 45.0438 27.4329 45.0957 27.1164 45.0896C26.7167 45.1046 26.3199 45.014 25.9646 44.8265C25.6815 44.6731 25.4481 44.4393 25.2927 44.1532C25.1469 43.89 25.0704 43.5926 25.0707 43.2902V40.3953H24.6328C24.5258 40.3866 24.4195 40.3703 24.3148 40.3463L23.8829 40.2362C23.6104 40.1588 23.3663 40.0013 23.181 39.7833L23.9969 39.0488C24.0189 39.2156 24.0975 39.3693 24.2188 39.4834C24.3806 39.6639 24.5713 39.815 24.7828 39.9302C24.9793 40.0488 25.2024 40.1141 25.4307 40.1199H25.9466V43.1801C25.9243 43.5388 26.0056 43.8963 26.1806 44.2083C26.297 44.413 26.4732 44.5756 26.6845 44.6735C26.8338 44.734 26.9919 44.7692 27.1524 44.7775C27.3235 44.773 27.4931 44.7441 27.6564 44.6918C27.8677 44.6166 28.0504 44.4753 28.1783 44.2879C28.3507 44.0157 28.4289 43.6925 28.4003 43.3698H28.3943ZM34.9394 43.2474C34.9418 43.2943 34.9418 43.3413 34.9394 43.3882C34.9317 43.4607 34.9176 43.5324 34.8974 43.6024C34.8625 43.7609 34.8101 43.9149 34.7414 44.0614C34.6831 44.2017 34.5926 44.3255 34.4774 44.4225H34.8494C35.3706 44.3741 35.8931 44.5009 36.3372 44.7836L35.3713 45.3957C35.3343 45.2856 35.271 45.1866 35.1873 45.1075C35.1035 45.0285 35.0018 44.9719 34.8914 44.9427C34.633 44.861 34.364 44.8198 34.0935 44.8203C33.947 44.8948 33.7944 44.9563 33.6375 45.004C33.4448 45.0738 33.2421 45.111 33.0376 45.1141C32.7119 45.1193 32.3876 45.0697 32.0778 44.9672C31.8254 44.8822 31.5941 44.7423 31.3998 44.5572C31.2268 44.3841 31.0919 44.1755 31.0039 43.9451C30.9637 43.8355 30.9316 43.723 30.9079 43.6085C30.899 43.4965 30.899 43.3839 30.9079 43.2719V40.0526C30.9168 39.9779 30.9078 39.9021 30.8817 39.8318C30.8556 39.7614 30.8131 39.6986 30.7579 39.6486C30.597 39.5714 30.4194 39.5377 30.242 39.5507C30.242 39.5507 30.242 39.5507 30.242 39.4773C30.242 39.4038 30.242 39.4038 30.242 39.3977H32.3957C32.3957 39.3977 32.3957 39.3977 32.3957 39.465C32.3957 39.5323 32.3957 39.5507 32.3957 39.5507C32.2185 39.5401 32.0414 39.5737 31.8798 39.6486C31.8242 39.6982 31.7815 39.761 31.7553 39.8315C31.7292 39.9019 31.7204 39.9779 31.7298 40.0526V43.1617C31.7298 44.2083 32.1857 44.7285 33.0976 44.7285C33.4272 44.7327 33.752 44.6482 34.0395 44.4837C34.2956 44.346 34.4908 44.1141 34.5854 43.835C34.6258 43.7129 34.6579 43.5882 34.6814 43.4616C34.6905 43.3414 34.6905 43.2207 34.6814 43.1005C34.6897 42.9021 34.6506 42.7047 34.5674 42.5252C34.5142 42.4037 34.4389 42.2937 34.3454 42.2008C34.2927 42.1467 34.232 42.1012 34.1655 42.0662V40.0526C34.1755 39.9787 34.167 39.9035 34.1408 39.8339C34.1145 39.7644 34.0714 39.7027 34.0155 39.6547C33.8519 39.5722 33.6695 39.5363 33.4876 39.5507C33.4876 39.5507 33.4576 39.5507 33.4576 39.465C33.4576 39.3793 33.4576 39.4038 33.4576 39.3977H35.6173C35.6173 39.3977 35.6473 39.3977 35.6473 39.4773C35.6473 39.5568 35.6473 39.5507 35.6173 39.5507C35.4381 39.54 35.2591 39.5736 35.0953 39.6486C35.0378 39.6969 34.9933 39.7593 34.966 39.83C34.9387 39.9006 34.9296 39.9773 34.9394 40.0526V43.2474ZM40.2786 44.294V41.2338C40.3034 40.8744 40.2263 40.5154 40.0567 40.1995C39.9452 39.9972 39.7696 39.8396 39.5587 39.7527C39.4016 39.6912 39.2351 39.658 39.0668 39.6547C38.7673 39.6609 38.4775 39.7637 38.2389 39.9485C37.969 40.1444 37.837 40.5606 37.837 41.2093V41.5582C37.8308 41.6711 37.8493 41.7839 37.891 41.8887C37.9275 41.962 37.9896 42.0187 38.0649 42.0478H38.2089C38.2688 42.0542 38.3291 42.0542 38.3889 42.0478C38.3889 42.0478 38.3889 42.0478 38.3889 42.1335C38.3889 42.2192 38.3949 42.2314 38.3949 42.2314H36.4932V42.0539C36.6405 42.0686 36.7879 42.0272 36.9071 41.9376C36.9535 41.8789 36.9881 41.8113 37.0087 41.7388C37.0293 41.6663 37.0355 41.5903 37.0271 41.5153V41.1604C37.0249 40.9347 37.0636 40.7107 37.1411 40.4994C37.2232 40.2841 37.3478 40.0883 37.507 39.924C37.6888 39.7365 37.9105 39.5941 38.1549 39.5079C38.4468 39.3985 38.7559 39.3446 39.0668 39.3487C39.3795 39.3406 39.6908 39.3925 39.9847 39.5017C40.2115 39.5923 40.4163 39.7322 40.5846 39.9118C40.7503 40.085 40.8754 40.2943 40.9506 40.5238C41.0312 40.7302 41.072 40.9505 41.0705 41.1726V43.0454H41.7904C42.3093 42.9929 42.8305 43.1178 43.2722 43.4004L42.3424 43.89C42.2728 43.7705 42.1761 43.6698 42.0604 43.5963C41.9278 43.5031 41.7822 43.4309 41.6285 43.3821C41.4869 43.3353 41.3393 43.3105 41.1905 43.3086H41.0705V44.2756C41.0643 44.3604 41.0785 44.4455 41.112 44.5234C41.1455 44.6013 41.1971 44.6696 41.2625 44.7224C41.4066 44.8187 41.5762 44.8679 41.7484 44.8632C41.7484 44.8632 41.7484 44.8632 41.7484 44.9427C41.7484 45.0223 41.7484 45.0162 41.7484 45.0162H39.5947C39.5947 45.0162 39.5587 45.0162 39.5587 44.9366C39.5587 44.8571 39.5587 44.8632 39.5947 44.8632C39.7739 44.8779 39.9529 44.8328 40.1047 44.7347C40.167 44.6812 40.2158 44.6133 40.2471 44.5366C40.2784 44.46 40.2913 44.3768 40.2846 44.294H40.2786ZM48.1316 43.2474C48.1369 43.2942 48.1369 43.3414 48.1316 43.3882C48.1239 43.4607 48.1098 43.5324 48.0896 43.6024C48.0547 43.7609 48.0023 43.9149 47.9336 44.0614C47.8753 44.2017 47.7848 44.3255 47.6696 44.4225H48.0476C48.5668 44.3755 49.087 44.5022 49.5294 44.7836L48.5635 45.3957C48.5265 45.2856 48.4632 45.1866 48.3795 45.1075C48.2957 45.0285 48.194 44.9719 48.0836 44.9427C47.8252 44.861 47.5562 44.8198 47.2857 44.8203C47.1392 44.8948 46.9866 44.9563 46.8297 45.004C46.637 45.0738 46.4343 45.111 46.2298 45.1141C45.9041 45.1193 45.5798 45.0697 45.27 44.9672C45.0176 44.8822 44.7863 44.7423 44.592 44.5572C44.419 44.3841 44.2841 44.1755 44.1961 43.9451C44.1558 43.8355 44.1238 43.723 44.1001 43.6085C44.0912 43.4965 44.0912 43.3839 44.1001 43.2719V40.0526C44.109 39.9779 44.1 39.9021 44.0739 39.8318C44.0478 39.7614 44.0053 39.6986 43.9501 39.6486C43.7892 39.5714 43.6116 39.5377 43.4342 39.5507C43.4342 39.5507 43.4342 39.5507 43.4342 39.4773C43.4342 39.4038 43.4342 39.4038 43.4342 39.3977H45.5879C45.5879 39.3977 45.5879 39.3977 45.5879 39.465C45.5879 39.5323 45.5879 39.5507 45.5519 39.5507C45.3747 39.5401 45.1976 39.5737 45.036 39.6486C44.9804 39.6982 44.9377 39.761 44.9115 39.8315C44.8854 39.9019 44.8766 39.9779 44.886 40.0526V43.1617C44.886 44.2083 45.3419 44.7285 46.2538 44.7285C46.5834 44.7327 46.9082 44.6482 47.1957 44.4837C47.4518 44.346 47.647 44.1141 47.7416 43.835C47.782 43.7129 47.8141 43.5882 47.8376 43.4616C47.8468 43.3414 47.8468 43.2207 47.8376 43.1005C47.8459 42.9021 47.8068 42.7047 47.7236 42.5252C47.6704 42.4037 47.5951 42.2937 47.5017 42.2008C47.4489 42.1467 47.3882 42.1012 47.3217 42.0662V40.0526C47.3317 39.9787 47.3232 39.9035 47.297 39.8339C47.2707 39.7644 47.2276 39.7027 47.1717 39.6547C47.0081 39.5722 46.8257 39.5363 46.6438 39.5507C46.6438 39.5507 46.6438 39.5507 46.6438 39.465C46.6438 39.3793 46.6438 39.4038 46.6438 39.3977H48.8035C48.8035 39.3977 48.8035 39.3977 48.8035 39.4773C48.8035 39.5568 48.8035 39.5507 48.8035 39.5507C48.6243 39.54 48.4453 39.5736 48.2816 39.6486C48.224 39.6969 48.1795 39.7593 48.1522 39.83C48.1249 39.9006 48.1158 39.9773 48.1256 40.0526L48.1316 43.2474ZM54.4367 41.1665V41.5398C54.4305 41.6527 54.449 41.7656 54.4907 41.8703C54.5273 41.9436 54.5893 42.0003 54.6647 42.0294H54.8087C54.8685 42.0355 54.9288 42.0355 54.9886 42.0294C54.9886 42.0294 54.9886 42.0294 54.9886 42.1151C54.9886 42.2008 54.9886 42.2008 54.9886 42.2069H53.0989C53.0989 42.2069 53.0989 42.2069 53.0989 42.1335C53.0989 42.06 53.0989 42.0356 53.0989 42.0294C53.2425 42.0446 53.3864 42.003 53.5008 41.9132C53.5473 41.8544 53.5818 41.7868 53.6024 41.7143C53.623 41.6418 53.6293 41.5658 53.6208 41.4909V41.2216C53.6411 40.8657 53.562 40.5113 53.3928 40.1995C53.2747 39.999 53.0987 39.8408 52.8889 39.7466C52.7376 39.6863 52.5773 39.6532 52.415 39.6486C52.2427 39.6513 52.0722 39.6844 51.911 39.7466C51.7001 39.836 51.5233 39.9927 51.4071 40.1933C51.2365 40.5069 51.1574 40.8636 51.1791 41.2216V44.245C51.1721 44.3279 51.1868 44.4112 51.2215 44.4865C51.2563 44.5617 51.31 44.6262 51.3771 44.6735C51.5174 44.7678 51.6832 44.8148 51.8511 44.8081C51.8511 44.8081 51.8511 44.8081 51.8511 44.8877C51.8511 44.9672 51.8511 44.9611 51.8511 44.9611H49.6914C49.6914 44.9611 49.6914 44.9611 49.6914 44.8815C49.6914 44.802 49.6914 44.8142 49.6914 44.8081C49.8705 44.8229 50.0495 44.7777 50.2013 44.6796C50.2584 44.6243 50.3022 44.5564 50.3292 44.481C50.3563 44.4056 50.3659 44.3248 50.3573 44.245V41.1665C50.357 40.9405 50.3977 40.7164 50.4772 40.5055C50.5564 40.2887 50.6814 40.0923 50.8432 39.9302C51.0293 39.754 51.2473 39.6168 51.4851 39.5262C51.7773 39.4184 52.0864 39.3666 52.397 39.3732C52.7096 39.3651 53.021 39.417 53.3149 39.5262C53.5411 39.6121 53.746 39.7479 53.9148 39.924C54.0751 40.0874 54.1999 40.2834 54.2807 40.4994C54.3736 40.71 54.4284 40.936 54.4427 41.1665H54.4367ZM60.0939 43.2474V40.0526C60.0841 39.9773 60.0933 39.9006 60.1206 39.83C60.1479 39.7593 60.1924 39.6969 60.2499 39.6486C60.4113 39.573 60.5886 39.5393 60.7658 39.5507C60.7658 39.5507 60.8018 39.5507 60.8018 39.4773C60.8018 39.4038 60.8018 39.3977 60.7658 39.3977H58.6121C58.6121 39.3977 58.6121 39.3977 58.6121 39.465C58.6121 39.5323 58.6121 39.5507 58.6481 39.5507C58.8282 39.5362 59.0086 39.5721 59.1701 39.6547C59.226 39.7027 59.2691 39.7644 59.2953 39.8339C59.3216 39.9035 59.3301 39.9787 59.32 40.0526V42.0662C59.3884 42.0981 59.4496 42.1439 59.5 42.2008C59.5974 42.2915 59.6751 42.402 59.728 42.5252C59.8079 42.7058 59.8469 42.9024 59.842 43.1005C59.8422 43.2218 59.8301 43.3428 59.806 43.4616C59.7845 43.588 59.7544 43.7128 59.716 43.835C59.6193 44.1129 59.4247 44.3441 59.1701 44.4837C58.8801 44.6474 58.5536 44.7318 58.2222 44.7285C57.3103 44.7285 56.8544 44.2083 56.8544 43.1617V40.0526C56.8465 39.978 56.856 39.9025 56.882 39.8323C56.9081 39.7621 56.95 39.6992 57.0044 39.6486C57.1681 39.5736 57.3471 39.54 57.5263 39.5507C57.5263 39.5507 57.5563 39.5201 57.5563 39.465C57.5563 39.4099 57.5563 39.3977 57.5563 39.3977H55.3966C55.3966 39.3977 55.3966 39.3977 55.3966 39.4773C55.3966 39.5568 55.3966 39.5507 55.3966 39.5507C55.5758 39.5388 55.7551 39.5724 55.9185 39.6486C55.973 39.6989 56.0146 39.7619 56.0397 39.8323C56.0648 39.9028 56.0726 39.9784 56.0625 40.0526V43.2658C56.0626 43.379 56.0746 43.4918 56.0985 43.6024C56.1201 43.7168 56.1501 43.8293 56.1885 43.939C56.2765 44.1693 56.4114 44.378 56.5844 44.551C56.7808 44.7363 57.0141 44.8762 57.2683 44.9611C57.5762 45.0631 57.8985 45.1127 58.2222 45.108C58.4267 45.1047 58.6293 45.0675 58.8221 44.9978C58.9786 44.949 59.1311 44.8876 59.278 44.8142C59.5485 44.8141 59.8175 44.8554 60.0759 44.9366C60.1858 44.9656 60.2867 45.0223 60.3695 45.1014C60.4523 45.1806 60.5143 45.2796 60.5499 45.3895L61.5217 44.7775C61.0777 44.4948 60.5552 44.368 60.0339 44.4164H59.662C59.7771 44.3194 59.8677 44.1955 59.926 44.0553C59.9947 43.9088 60.047 43.7548 60.0819 43.5963C60.0819 43.5106 60.0819 43.4433 60.1239 43.3821C60.1182 43.3368 60.1102 43.2918 60.0999 43.2474H60.0939ZM66.4651 43.3698V42.9169C66.4651 42.7149 66.4291 42.5803 66.3511 42.5191C66.3024 42.4839 66.2473 42.4589 66.1891 42.4456C66.1055 42.4344 66.0208 42.4344 65.9371 42.4456C65.9371 42.4456 65.9371 42.4456 65.9371 42.3599C65.9371 42.2743 65.9371 42.2987 65.9371 42.2926H67.7909C67.7909 42.2926 67.7909 42.2926 67.7909 42.3661C67.7909 42.4395 67.7909 42.4395 67.7909 42.4456C67.6869 42.4434 67.5833 42.46 67.4849 42.4946C67.4226 42.5213 67.3731 42.5718 67.3469 42.6354C67.3106 42.7393 67.2943 42.8495 67.299 42.9597V43.3698C67.2958 43.5802 67.2531 43.788 67.173 43.9818C67.0882 44.1951 66.9593 44.3872 66.795 44.5449C66.6011 44.7198 66.3746 44.853 66.1291 44.9366C65.8307 45.0444 65.5157 45.0962 65.1992 45.0896C64.8014 45.1047 64.4065 45.014 64.0534 44.8265C63.7674 44.675 63.5316 44.4408 63.3755 44.1532C63.2352 43.888 63.161 43.5916 63.1595 43.2902V40.3953H62.7156C62.6086 40.3863 62.5024 40.3699 62.3976 40.3463L61.9717 40.2362C61.6853 40.1642 61.4276 40.0039 61.2338 39.7771L62.0377 39.0672C62.0598 39.234 62.1383 39.3877 62.2596 39.5017C62.4201 39.6836 62.6111 39.8349 62.8236 39.9485C63.018 40.0669 63.2391 40.1322 63.4655 40.1383H63.9814V43.1984C63.9591 43.5572 64.0404 43.9147 64.2154 44.2267C64.3341 44.4318 64.5122 44.5944 64.7253 44.6918C64.8747 44.7524 65.0327 44.7875 65.1932 44.7959C65.3642 44.7904 65.5337 44.7616 65.6972 44.7102C65.9078 44.6336 66.09 44.4925 66.2191 44.3062C66.403 44.0314 66.4917 43.7019 66.4711 43.3698H66.4651ZM0.792023 43.278V40.1138C0.80124 40.0359 0.794248 39.957 0.771504 39.8821C0.748761 39.8072 0.710779 39.7381 0.660041 39.6792C0.524668 39.5796 0.358232 39.5338 0.192105 39.5507C0.192105 39.5507 0.162109 39.5507 0.162109 39.4773C0.162109 39.4038 0.162109 39.4038 0.192105 39.3977H2.21983C2.21983 39.3977 2.24982 39.3977 2.24982 39.4773C2.24982 39.5568 2.24982 39.5446 2.21383 39.5507C2.05691 39.5419 1.90194 39.5896 1.77589 39.6853C1.71634 39.7378 1.67001 39.8041 1.64078 39.8787C1.61155 39.9532 1.60028 40.0339 1.60791 40.1138V43.174C1.57788 43.4024 1.5984 43.6347 1.66796 43.854C1.73752 44.0732 1.85434 44.2738 2.00986 44.4409C2.24827 44.6311 2.54114 44.7364 2.84374 44.7408C3.00551 44.7361 3.16551 44.7052 3.31768 44.649C3.5255 44.5601 3.69998 44.4056 3.81561 44.2083C3.99172 43.8945 4.07311 43.5347 4.04958 43.174V40.1138C4.05746 40.0335 4.04693 39.9524 4.01882 39.877C3.9907 39.8016 3.94578 39.7339 3.8876 39.6792C3.73361 39.581 3.55271 39.5359 3.37167 39.5507V39.3977H5.47738C5.73863 39.3938 5.99968 39.4143 6.25728 39.4589C6.25728 39.4222 6.25728 39.4038 6.25728 39.3977H8.41098C8.41098 39.3977 8.41098 39.3977 8.41098 39.465C8.41098 39.5323 8.41098 39.5507 8.38099 39.5507C8.20376 39.5401 8.02667 39.5737 7.86506 39.6486C7.80949 39.6982 7.76674 39.761 7.74058 39.8315C7.71443 39.9019 7.70567 39.9779 7.71508 40.0526V43.1617C7.71508 44.2083 8.17102 44.7285 9.08289 44.7285C9.41247 44.7327 9.73731 44.6482 10.0248 44.4837C10.2809 44.346 10.4761 44.1141 10.5707 43.835C10.6111 43.7129 10.6431 43.5882 10.6667 43.4616C10.6758 43.3414 10.6758 43.2207 10.6667 43.1005C10.675 42.9021 10.6359 42.7047 10.5527 42.5252C10.4995 42.4037 10.4241 42.2937 10.3307 42.2008C10.278 42.1467 10.2172 42.1012 10.1507 42.0662V40.0526C10.1608 39.9787 10.1523 39.9035 10.126 39.8339C10.0998 39.7644 10.0567 39.7027 10.0008 39.6547C9.83718 39.5722 9.65479 39.5363 9.47284 39.5507C9.47284 39.5507 9.44284 39.5507 9.44284 39.465C9.44284 39.3793 9.44284 39.4038 9.44284 39.3977H11.6025C11.6025 39.3977 11.6025 39.3977 11.6025 39.4773C11.6025 39.5568 11.6025 39.5507 11.6025 39.5507C11.4234 39.54 11.2443 39.5736 11.0806 39.6486C11.0231 39.6969 10.9786 39.7593 10.9513 39.83C10.924 39.9006 10.9148 39.9773 10.9246 40.0526V43.2474C10.9271 43.2943 10.9271 43.3413 10.9246 43.3882C10.9169 43.4607 10.9029 43.5324 10.8826 43.6024C10.8714 43.7601 10.8433 43.9161 10.7987 44.0675C10.7404 44.2078 10.6498 44.3316 10.5347 44.4286H10.9126C11.4319 44.3816 11.9521 44.5084 12.3944 44.7897L11.4286 45.4018C11.3915 45.2917 11.3283 45.1927 11.2445 45.1136C11.1608 45.0346 11.0591 44.978 10.9486 44.9489C10.6903 44.8672 10.4212 44.8259 10.1507 44.8265C10.0042 44.9009 9.85169 44.9624 9.69481 45.0101C9.50205 45.0799 9.29941 45.1171 9.09489 45.1202C8.7692 45.1254 8.44489 45.0758 8.13502 44.9734C7.88262 44.8883 7.65132 44.7484 7.45711 44.5633C7.28411 44.3902 7.14915 44.1816 7.06117 43.9512C7.02092 43.8417 6.98883 43.7291 6.96518 43.6146C6.94628 43.5034 6.93625 43.3909 6.93518 43.278V40.0526C6.93733 39.9694 6.92515 39.8866 6.89919 39.8078L6.04131 40.3525C5.95679 40.1663 5.82139 40.0091 5.65136 39.8996C5.50538 39.8018 5.34554 39.7275 5.17742 39.6792C5.07298 39.6498 4.96677 39.6273 4.85947 39.6119V43.2229C4.85924 43.5342 4.78514 43.8408 4.6435 44.1165C4.48934 44.4097 4.2562 44.6518 3.97159 44.8142C3.619 45.0039 3.22412 45.0967 2.82575 45.0835C2.42947 45.0963 2.03614 45.0101 1.6799 44.8326C1.39222 44.6807 1.15601 44.444 1.00199 44.1532C0.861836 43.8838 0.789672 43.583 0.792023 43.278Z" fill="white"/>
<path fill-rule="evenodd" clip-rule="evenodd" d="M34.2913 35.1371C34.0301 35.5814 33.718 35.9923 33.3614 36.3612C33.1395 36.5754 32.9355 36.5142 33.0615 36.2204C33.1875 35.9266 33.2235 35.235 33.3614 34.9963C33.5114 35.2167 33.6494 35.437 34.2913 35.1554M33.4574 30.3448C33.8654 30.7733 34.3033 30.6202 34.7473 30.3448C34.533 30.3733 34.3153 30.3502 34.1113 30.2775C34.2193 30.1061 34.3393 29.9164 34.8552 30.0388C34.9353 30.0464 35.0131 30.0703 35.0839 30.1091C35.1547 30.148 35.2172 30.2009 35.2675 30.2649C35.3179 30.3288 35.3552 30.4024 35.3771 30.4814C35.399 30.5603 35.4052 30.6429 35.3952 30.7243C35.361 30.9689 35.2427 31.1931 35.0613 31.3568C34.88 31.5205 34.6474 31.6131 34.4053 31.6179C33.9674 31.6179 33.8054 31.5138 33.6854 31.3853C33.4274 31.0058 33.1935 30.6937 32.9775 30.406C33.1739 30.1937 33.408 30.0213 33.6674 29.898C33.7214 30.0449 33.7454 30.1979 33.4574 30.3265V30.3448ZM35.7671 30.8161C35.8931 31.0131 35.9423 31.2511 35.9051 31.4832H36.445C36.583 31.6179 36.745 31.6424 36.859 31.4832C36.945 31.3578 37.0617 31.2573 37.1974 31.1919C37.3331 31.1264 37.4832 31.0981 37.6329 31.1099L37.9508 30.8712C37.9195 30.8074 37.8751 30.7513 37.8206 30.7067C37.7662 30.662 37.7029 30.6299 37.6351 30.6125C37.5673 30.595 37.4967 30.5927 37.428 30.6057C37.3593 30.6186 37.2941 30.6466 37.2369 30.6876C37.0425 30.8198 36.8243 30.9114 36.595 30.9569H36.0371L35.2872 30.0266C35.2187 29.9519 35.1361 29.8922 35.0443 29.8512C34.9525 29.8101 34.8535 29.7886 34.7533 29.7879C34.7912 29.6559 34.798 29.5167 34.773 29.3815C34.7479 29.2464 34.6918 29.1193 34.6093 29.0106C34.3633 28.5822 34.0094 28.6066 33.7934 28.9677C33.6751 29.2231 33.6373 29.5097 33.6854 29.7879C33.4574 29.8615 33.2411 29.9687 33.0435 30.1061C32.9011 30.1832 32.7811 30.2972 32.6955 30.4366C32.4016 30.5101 32.3416 30.4366 32.3416 30.3387V29.898C32.3416 29.641 32.0236 29.3472 31.6697 29.2432V29.7818C31.7957 29.7818 31.8676 29.898 31.8676 30.1061V31.5261C31.8788 31.6315 31.8533 31.7377 31.7957 31.826C31.6757 32.0035 31.7177 32.1809 31.8976 32.1993L32.4616 32.2483C32.2036 32.1075 31.9996 31.9055 32.1016 31.6362L32.4736 30.7733C32.5935 30.6447 32.7375 30.6692 32.8935 30.8406L33.3255 31.3914C33.3739 31.4896 33.4474 31.5727 33.5381 31.6319C33.6289 31.6912 33.7337 31.7244 33.8414 31.728H34.9632C35.2032 31.6913 35.4792 31.3608 35.7671 30.7977V30.8161ZM36.625 34.5373C36.6327 34.7664 36.6906 34.9909 36.7944 35.1942C36.8982 35.3976 37.0453 35.5746 37.2249 35.7124H37.6089C37.8428 36.2755 38.5387 36.4652 39.4566 36.4836H36.961C36.7486 36.4767 36.5411 36.4175 36.3562 36.3109C36.1713 36.2043 36.0144 36.0535 35.8991 35.8715C35.8671 36.0418 35.778 36.1955 35.6471 36.3061V33.9253C35.9324 34.1857 36.2645 34.3873 36.625 34.5189V34.5373ZM35.7731 33.0256C35.8479 32.8503 35.9447 32.6857 36.0611 32.5359L35.7731 32.2789C35.6291 32.0953 35.6411 31.8872 35.9171 31.7342C35.9627 31.6957 36.0164 31.6683 36.0739 31.6542C36.1314 31.64 36.1914 31.6394 36.2492 31.6523C36.307 31.6653 36.3612 31.6916 36.4076 31.7291C36.454 31.7666 36.4914 31.8144 36.517 31.8688C36.721 32.1871 36.583 32.2666 36.295 32.3401C36.295 32.4564 36.439 32.5665 36.547 32.6889C36.7433 32.9953 36.838 33.3579 36.817 33.7233C36.817 34.0905 36.601 34.2435 36.259 34.0966C35.9507 33.9436 35.6608 33.7546 35.3952 33.5335H35.7191C35.8709 33.6377 36.0315 33.7278 36.1991 33.8028C36.331 33.8702 36.439 33.9008 36.421 33.5519C36.421 33.3255 36.343 33.3071 36.1571 33.4111C35.9711 33.5152 35.6471 33.4601 35.7731 33.0072V33.0256ZM32.8035 21.1031V20.5767H35.2032V21.1031H32.8035ZM34.9272 21.6111H35.5991V24.6712H34.9272V21.6111ZM32.3836 21.6111H33.0615V24.6712H32.3956L32.3836 21.6111ZM52.5588 26.8379V23.7777C52.5382 23.4925 52.4127 23.2259 52.2074 23.0313C52.0021 22.8367 51.7322 22.7286 51.452 22.7286C51.1717 22.7286 50.9019 22.8367 50.6966 23.0313C50.4913 23.2259 50.3657 23.4925 50.3451 23.7777V26.8379H49.1933V22.1129H61.4916V26.8379H60.6997V23.7777C60.6997 23.4784 60.5836 23.1914 60.3768 22.9792C60.1699 22.767 59.8892 22.647 59.5959 22.6454C59.3025 22.6454 59.0212 22.7638 58.8132 22.9749C58.6052 23.1859 58.4876 23.4723 58.486 23.7715V26.8317H56.6263V23.7715C56.6263 23.4729 56.51 23.1864 56.303 22.9752C56.0959 22.764 55.8152 22.6454 55.5224 22.6454C55.2297 22.6454 54.9489 22.764 54.7419 22.9752C54.5349 23.1864 54.4186 23.4729 54.4186 23.7715V26.8317L52.5588 26.8379ZM9.4967 26.8379V23.7777C9.49749 23.6298 9.46972 23.4832 9.41498 23.3462C9.36023 23.2093 9.27958 23.0847 9.17764 22.9796C9.07569 22.8744 8.95445 22.7908 8.82082 22.7335C8.6872 22.6761 8.54381 22.6462 8.39885 22.6454C8.10658 22.647 7.82673 22.7662 7.62006 22.977C7.41338 23.1879 7.29658 23.4734 7.295 23.7715V26.8317H6.49111V22.1129H18.7774V26.8379H17.6436V23.7777C17.623 23.4925 17.4974 23.2259 17.2921 23.0313C17.0868 22.8367 16.817 22.7286 16.5367 22.7286C16.2565 22.7286 15.9866 22.8367 15.7813 23.0313C15.576 23.2259 15.4505 23.4925 15.4299 23.7777V26.8379H13.5701V23.7777C13.5701 23.479 13.4538 23.1926 13.2468 22.9814C13.0398 22.7702 12.7591 22.6515 12.4663 22.6515C12.1735 22.6515 11.8928 22.7702 11.6858 22.9814C11.4787 23.1926 11.3624 23.479 11.3624 23.7777V26.8379H9.4967ZM64.8931 22.1129V26.8379H61.9595V22.1129H64.8931ZM3.10158 26.8379V22.1129H6.03518V26.8379H3.10158ZM12.3103 30.9018L23.2588 34.8862H3.09558V30.9018H12.3103ZM64.8991 30.9018V34.8862H44.7299L55.6844 30.9201L64.8991 30.9018ZM46.7456 27.2296H64.8991V30.2897H56.2903V29.7267H51.407V28.5087H46.7396L46.7456 27.2296ZM3.10158 30.2897V27.2296H21.2491V28.5393H16.5757V29.7083H11.6984V30.2714L3.10158 30.2897ZM35.7191 26.8868H32.2756V26.0667H35.7131L35.7191 26.8868ZM20.6432 25.6627H31.9396V21.1031H32.3956V15.4478C32.4205 15.0325 32.5998 14.6425 32.8969 14.3575C33.194 14.0724 33.5865 13.9137 33.9944 13.9137C34.4022 13.9137 34.7947 14.0724 35.0918 14.3575C35.3889 14.6425 35.5682 15.0325 35.5931 15.4478V21.1031H36.0431V25.5893H47.3515V26.0667H36.271V26.8379H48.7733V21.6723H64.8931V20.9745H49.7092V7.4485H18.2735V20.9745H3.09558V21.6723H19.1974V26.8379H31.7177V26.0667H20.6372L20.6432 25.6627ZM11.3145 8.75826H0V37.9035H68.0067V8.75826H56.6743V0H11.3145V8.75826ZM35.4972 12.3754V11.7634H37.1169V12.7732H36.0551C35.9086 12.5907 35.7155 12.453 35.4972 12.3754ZM32.7675 12.3081V11.7756H35.2212V12.3081H32.7675ZM31.9336 12.7855H30.8718V11.7756H32.4916V12.3876C32.2732 12.4652 32.0801 12.6029 31.9336 12.7855ZM20.6372 9.56615H47.3515V24.9711H36.769V15.2642C36.7692 14.9933 36.6782 14.7304 36.5111 14.5198C36.3439 14.3092 36.1109 14.1636 35.8511 14.1075V13.575C35.8511 13.4713 35.8311 13.3686 35.7922 13.2729C35.7533 13.1771 35.6963 13.09 35.6244 13.0167C35.5526 12.9434 35.4673 12.8852 35.3734 12.8456C35.2795 12.8059 35.1788 12.7855 35.0772 12.7855H32.9055C32.8042 12.7855 32.7038 12.8059 32.6103 12.8457C32.5167 12.8854 32.4318 12.9437 32.3604 13.0171C32.289 13.0905 32.2326 13.1776 32.1943 13.2733C32.1561 13.3691 32.1368 13.4716 32.1376 13.575V14.1075C31.8734 14.1587 31.6348 14.3021 31.4629 14.5132C31.2911 14.7243 31.1966 14.9898 31.1957 15.2642V24.9711H20.6372V9.56615ZM29.114 24.3958H28.5621V12.9079C28.5621 12.7894 28.516 12.6757 28.4338 12.5919C28.3517 12.5082 28.2403 12.4611 28.1242 12.4611C28.0091 12.4627 27.8992 12.5105 27.8184 12.5941C27.7375 12.6777 27.6922 12.7904 27.6922 12.9079V24.3958H27.1403V12.7671C27.1597 12.5136 27.2721 12.277 27.455 12.1043C27.6379 11.9317 27.878 11.8358 28.1272 11.8358C28.3764 11.8358 28.6164 11.9317 28.7993 12.1043C28.9823 12.277 29.0946 12.5136 29.114 12.7671V24.3958ZM40.8484 24.3958H40.2965V12.9079C40.2965 12.7894 40.2504 12.6757 40.1682 12.5919C40.0861 12.5082 39.9747 12.4611 39.8586 12.4611C39.7435 12.4627 39.6336 12.5105 39.5528 12.5941C39.4719 12.6777 39.4266 12.7904 39.4266 12.9079V24.3958H38.8747V12.7671C38.8941 12.5136 39.0065 12.277 39.1894 12.1043C39.3723 11.9317 39.6124 11.8358 39.8616 11.8358C40.1108 11.8358 40.3508 11.9317 40.5337 12.1043C40.7167 12.277 40.829 12.5136 40.8484 12.7671V24.3958ZM44.6459 24.3958H44.1V12.9079C44.1 12.8492 44.0886 12.7911 44.0666 12.7369C44.0446 12.6827 44.0124 12.6334 43.9717 12.5919C43.931 12.5505 43.8828 12.5176 43.8296 12.4951C43.7765 12.4726 43.7195 12.4611 43.662 12.4611C43.5469 12.4627 43.4371 12.5105 43.3562 12.5941C43.2754 12.6777 43.2301 12.7904 43.2301 12.9079V24.3958H42.6782V12.7671C42.6782 12.5009 42.7818 12.2456 42.9663 12.0574C43.1508 11.8691 43.4011 11.7634 43.662 11.7634C43.923 11.7634 44.1732 11.8691 44.3577 12.0574C44.5422 12.2456 44.6459 12.5009 44.6459 12.7671V24.3958ZM25.7305 24.3958V11.39H22.9169V24.3958H21.675V10.5883H46.3137V24.3958H45.0718V11.39H42.2582V24.3958H41.2684V11.39H38.4547V24.3958H37.4949V11.39H30.4938V24.3958H29.534V11.39H26.7204V24.3958H25.7305ZM23.3308 24.3958V12.7671C23.3502 12.5136 23.4626 12.277 23.6455 12.1043C23.8285 11.9317 24.0685 11.8358 24.3177 11.8358C24.5669 11.8358 24.8069 11.9317 24.9898 12.1043C25.1728 12.277 25.2852 12.5136 25.3045 12.7671V24.3958H24.7526V12.9079C24.7526 12.7904 24.7073 12.6777 24.6265 12.5941C24.5456 12.5105 24.4358 12.4627 24.3207 12.4611C24.2045 12.4611 24.0931 12.5082 24.011 12.5919C23.9289 12.6757 23.8827 12.7894 23.8827 12.9079V24.3958H23.3308ZM32.4376 34.8862V33.3561C32.5935 33.4601 33.2415 32.897 33.3434 32.793V34.1762C33.3434 34.5312 33.2175 34.623 33.0675 34.6413V33.4173C33.0675 33.3071 32.9775 33.2214 32.8215 33.4173C32.6895 33.4173 32.6295 33.5091 32.6295 33.6988V34.8862H32.9955V35.3941H31.9996V37.3159H34.9992V36.1714L34.6393 36.202V36.3244H34.3213V35.9756L35.5211 34.6964V37.2976H67.4488V9.36418H56.0863V0.612038H11.9024V9.36418H0.599918V37.2976H31.5017V35.3758H2.45966V11.286H13.7981V2.5216H54.2146V11.286H65.541V35.3758H38.9527V36.1102L38.4487 35.8042V34.8862H42.7682L53.7167 30.9201H50.3931V29.7328H45.4858V28.7229H40.9864V27.9946H26.9963V28.7229H22.4969V29.7328H17.6196V30.9018H14.2661L25.1966 34.8862H32.4376ZM34.8792 31.826C35.0056 31.8454 35.1257 31.8948 35.2299 31.9703C35.3341 32.0458 35.4195 32.1452 35.4792 32.2605C35.2752 32.4074 35.0772 32.5849 34.8792 32.7563C34.8433 32.7873 34.8015 32.8105 34.7564 32.8243C34.7113 32.8381 34.6639 32.8423 34.6172 32.8365C34.5704 32.8308 34.5254 32.8153 34.4848 32.7909C34.4442 32.7666 34.409 32.7339 34.3813 32.6951C34.1413 32.438 33.8954 32.236 33.6194 32.2789C33.3434 32.3217 32.7975 32.8909 32.4676 33.2275C32.477 32.9316 32.5552 32.6421 32.6955 32.3829C32.7487 32.2371 32.8344 32.106 32.9458 31.9997C33.0572 31.8935 33.1913 31.8152 33.3374 31.7709C33.4454 31.9361 33.7154 32.0157 34.1893 32.0341C34.6633 32.0524 34.9092 31.9912 34.8792 31.826ZM34.4413 33.05C34.1473 32.8052 33.8774 32.6277 33.6854 32.7257V34.5618C33.7996 34.6607 33.9318 34.7358 34.0744 34.7826C34.217 34.8294 34.3673 34.847 34.5167 34.8345C34.666 34.822 34.8114 34.7796 34.9447 34.7097C35.0779 34.6398 35.1963 34.5438 35.2932 34.4271C35.4732 34.0966 35.4852 33.8151 35.3652 33.6927L35.0592 33.3561H35.4732V32.6583C35.2701 32.7213 35.0889 32.8424 34.9512 33.0072C34.9242 33.0494 34.8882 33.0847 34.8458 33.1105C34.8034 33.1362 34.7557 33.1518 34.7065 33.1559C34.6573 33.1601 34.6079 33.1527 34.5619 33.1343C34.5159 33.116 34.4747 33.0871 34.4413 33.05ZM19.0534 8.01157H48.9353V8.62361H19.0534V8.01157Z" fill="white"/>
</svg>
