<?xml version="1.0" encoding="UTF-8"?>
<svg id="Layer_1" data-name="Layer 1" xmlns="http://www.w3.org/2000/svg" viewBox="0 0 142 60">
  <defs>
    <style>
      .cls-1 {
        fill: #fff;
        stroke-width: 0px;
      }
    </style>
  </defs>
  <g id="Layer_1-2" data-name="Layer_1">
    <g id="_2308050186400" data-name=" 2308050186400">
      <path class="cls-1" d="M102.33,29.68c.61-.15,1.09-.45,1.44-.89.35-.45.52-.98.52-1.6,0-.87-.35-1.56-1.04-2.06-.69-.5-1.64-.76-2.84-.76h-3.78c-.68,0-1.23.55-1.23,1.23v8.82c0,.68.55,1.23,1.23,1.23h3.92c1.29,0,2.31-.28,3.05-.83s1.12-1.31,1.12-2.28c0-.75-.21-1.38-.64-1.88-.42-.5-1.01-.83-1.76-.97h0ZM97.56,26.23h2.74c.56-.01,1,.1,1.31.34.32.24.47.57.47,1s-.16.78-.47,1.03c-.32.25-.75.37-1.31.37h-2.74v-2.74h0ZM101.91,33.38c-.39.27-.92.4-1.61.39h-2.74v-2.98h2.74c.69-.01,1.22.12,1.61.38.39.26.58.63.58,1.09s-.19.86-.58,1.13Z"/>
      <path class="cls-1" d="M128.99,24.36h-1.82c-.08,0-.14.06-.14.14v7.64l-5.41-7.23c-.26-.34-.66-.55-1.09-.55-.75,0-1.36.61-1.36,1.36v9.77c0,.08.06.14.14.14h1.84c.08,0,.14-.06.14-.14v-7.63l5.36,7.18c.26.35.68.58,1.12.58.75,0,1.36-.61,1.36-1.36v-9.77c0-.08-.06-.14-.14-.14h0Z"/>
      <path class="cls-1" d="M141.97,35.42l-4.45-6.29,4.12-4.54c.08-.09.02-.23-.1-.23h-2.17s-.08.02-.1.05l-5.05,5.58v-5.48c0-.08-.06-.14-.14-.14h-1.88c-.08,0-.14.06-.14.14v11c0,.08.06.14.14.14h1.88c.08,0,.14-.06.14-.14v-2.75l1.77-1.95,3.5,4.78s.07.06.11.06h2.26c.11,0,.18-.13.11-.22h0Z"/>
      <path class="cls-1" d="M51.09,24.36h0c-.59,0-1.12.35-1.36.89l-3.31,7.42-3.34-7.42c-.24-.54-.77-.88-1.36-.88h0c-.83,0-1.49.67-1.49,1.49v9.64c0,.08.06.14.14.14h1.69c.08,0,.14-.06.14-.14v-7.95l3.24,7.43c.13.31.4.55.72.63.52.13,1.02-.14,1.22-.61l3.23-7.45v7.95c0,.08.06.14.14.14h1.71c.08,0,.14-.06.14-.14v-9.64c0-.83-.67-1.49-1.49-1.49h0Z"/>
      <path class="cls-1" d="M63.83,33.75h-6.16v-2.83h5.34c.08,0,.14-.06.14-.14v-1.61c0-.08-.06-.14-.14-.14h-5.34v-2.79h5.97c.08,0,.14-.06.14-.14v-1.61c0-.08-.06-.14-.14-.14h-6.9c-.68,0-1.23.55-1.23,1.23v8.82c0,.68.55,1.23,1.23,1.23h7.09c.08,0,.14-.06.14-.14v-1.61c0-.08-.06-.14-.14-.14h0Z"/>
      <path class="cls-1" d="M80.14,24.36h-1.88c-.08,0-.14.06-.14.14v11c0,.08.06.14.14.14h1.88c.08,0,.14-.06.14-.14v-11c0-.08-.06-.14-.14-.14Z"/>
      <path class="cls-1" d="M73.4,31.9c.19-.08.38-.17.55-.28.43-.29.8-.67,1.07-1.11.38-.62.57-1.37.57-2.25,0-1.23-.4-2.19-1.19-2.87-.8-.68-1.92-1.01-3.38-1.01h-3.47c-.68,0-1.23.55-1.23,1.23v9.91c0,.08.06.14.14.14h1.88c.08,0,.14-.06.14-.14v-3.18h2.55l2.39,3.26s.07.06.11.06h2.26c.11,0,.18-.13.11-.22l-2.49-3.52h0ZM72.89,29.89c-.43.35-1.05.53-1.87.53h-2.54v-4.17h2.54c.82,0,1.44.17,1.87.52.43.34.64.86.64,1.55s-.22,1.22-.64,1.58h0Z"/>
      <path class="cls-1" d="M28.79,35.55l3.86-8.81,3.86,8.81s.07.08.13.08h1.84c.1,0,.17-.1.13-.19l-4.42-10.07c-.59-1.34-2.49-1.34-3.07,0l-4.42,10.07c-.04.09.03.19.13.19h1.84c.05,0,.1-.03.13-.08h0Z"/>
      <path class="cls-1" d="M83.98,35.55l3.86-8.81,3.86,8.81s.07.08.13.08h1.84c.1,0,.17-.1.13-.19l-4.42-10.07c-.59-1.34-2.49-1.34-3.07,0l-4.42,10.07c-.04.09.03.19.13.19h1.84c.05,0,.1-.03.13-.08h0Z"/>
      <path class="cls-1" d="M107.75,35.55l3.86-8.81,3.86,8.81s.07.08.13.08h1.84c.1,0,.17-.1.13-.19l-4.42-10.07c-.59-1.34-2.49-1.34-3.07,0l-4.42,10.07c-.04.09.03.19.13.19h1.84c.05,0,.1-.03.13-.08h0Z"/>
      <path class="cls-1" d="M7.25,35.55l3.86-8.81,3.86,8.81s.07.08.13.08h1.84c.1,0,.17-.1.13-.19l-4.42-10.07c-.59-1.34-2.49-1.34-3.07,0l-4.42,10.07c-.04.09.03.19.13.19h1.84c.05,0,.1-.03.13-.08h0Z"/>
      <path class="cls-1" d="M20.15,41.11H2.08C.93,41.11,0,40.18,0,39.03v-18.06C0,19.82.93,18.89,2.08,18.89h18.06c1.15,0,2.08.93,2.08,2.08v18.06c0,1.15-.93,2.08-2.08,2.08ZM2.08,19.57c-.77,0-1.4.63-1.4,1.4v18.06c0,.77.63,1.4,1.4,1.4h18.06c.77,0,1.4-.63,1.4-1.4v-18.06c0-.77-.63-1.4-1.4-1.4,0,0-18.06,0-18.06,0Z"/>
    </g>
  </g>
</svg>