<svg width="142" height="61" viewBox="0 0 142 61" fill="none" xmlns="http://www.w3.org/2000/svg">
<g filter="url(#filter0_d_407_777)">
<g clip-path="url(#clip0_407_777)">
<path d="M34.7816 45.006C34.9065 45.4215 34.7526 45.7404 34.3852 45.8948C34.0194 46.0477 33.6825 45.9258 33.4902 45.5254C33.3043 45.1373 33.1468 44.7333 33.0009 44.3278C32.9319 44.1374 32.8354 44.0768 32.6336 44.0804C31.8242 44.0926 31.0148 44.0919 30.2054 44.0811C29.9948 44.0782 29.8787 44.1302 29.8126 44.343C29.7096 44.6748 29.5738 44.9959 29.4475 45.3205C29.3263 45.6314 29.1825 45.9258 28.7862 45.9474C28.3702 45.9698 28.1539 45.713 28 45.3746C28.143 45.3566 28.1699 45.4872 28.2367 45.5622C28.6003 45.9712 29.025 45.928 29.2776 45.4396C29.4431 45.1192 29.5695 44.7787 29.6762 44.4353C29.7814 44.0984 29.984 43.9642 30.344 43.9743C31.0801 43.9952 31.8176 43.9866 32.5537 43.9779C32.8339 43.9743 33.0031 44.0753 33.1025 44.3408C33.2412 44.7116 33.3762 45.0868 33.5541 45.441C33.7689 45.8681 34.1617 45.9619 34.5079 45.6884C34.7308 45.5124 34.7373 45.2801 34.6814 45.0341C34.5791 44.5861 34.3773 44.1742 34.2009 43.7536C33.6201 42.3691 33.0793 40.9688 32.4978 39.5844C32.4042 39.3622 32.3134 39.1393 32.1806 38.938C31.8293 38.4063 31.1149 38.3666 30.6968 38.8507C30.5364 39.0354 30.4355 39.2525 30.3476 39.4776C29.6391 41.3021 28.8951 43.1137 28.1887 44.9389C28.1532 45.0305 28.1575 45.1668 28 45.1589C28.7448 43.276 29.4881 41.393 30.2351 39.5108C30.3099 39.3218 30.3905 39.1328 30.487 38.9546C30.6881 38.5845 31.0024 38.3926 31.4329 38.4092C31.8728 38.4272 32.1922 38.6227 32.3621 39.0354C33.0604 40.7329 33.7595 42.4305 34.4549 44.1294C34.5733 44.418 34.6923 44.708 34.7816 45.006Z" fill="white"/>
<path d="M41.9366 45.0522C41.5381 44.0631 40.982 43.1772 40.0739 42.5416C40.3316 42.4456 40.5719 42.3749 40.7969 42.2703C41.263 42.0532 41.6085 41.7184 41.7762 41.2199C42.1994 39.9646 41.4945 38.793 40.177 38.6026C39.1324 38.4525 38.0783 38.5499 37.0286 38.5355C36.122 38.5232 35.9064 38.7512 35.9064 39.6667C35.9064 41.4075 35.9056 43.1476 35.9078 44.8884C35.9078 45.0558 35.9085 45.2268 35.9434 45.3891C36.0261 45.7729 36.2773 45.9561 36.6708 45.9482C37.1354 45.9388 37.3778 45.6712 37.3902 45.0991C37.4054 44.3913 37.3938 43.6829 37.3938 42.9744C37.3938 42.8453 37.3575 42.7198 37.5731 42.7039C38.2881 42.6512 38.8906 42.8237 39.2885 43.4657C39.5926 43.9549 39.8968 44.4447 40.2024 44.9331C40.336 45.1467 40.4688 45.3617 40.6111 45.5694C40.7526 45.7765 40.9465 45.9136 41.2034 45.9439C41.7798 46.0131 42.1515 45.5846 41.9366 45.0522ZM37.5375 41.6448C37.3931 41.6506 37.396 41.5489 37.396 41.4493C37.396 40.9104 37.4003 40.3715 37.3916 39.8326C37.3887 39.6652 37.4613 39.6335 37.6087 39.6378C37.8976 39.6465 38.1872 39.6407 38.4761 39.6407C38.4761 39.6364 38.4769 39.6321 38.4769 39.6277C38.8137 39.6458 39.152 39.6479 39.4866 39.684C40.0144 39.741 40.3389 40.0736 40.3773 40.5613C40.4165 41.0691 40.1632 41.4133 39.6253 41.5482C38.9371 41.7213 38.2337 41.6174 37.5375 41.6448Z" fill="white"/>
<path d="M49.4208 44.6993C49.243 44.2535 49.0644 43.8076 48.8829 43.364C48.2971 41.9312 47.7185 40.4955 47.1175 39.0693C46.8721 38.4885 46.311 38.2577 45.7469 38.4705C45.3491 38.6213 45.1843 38.9784 45.0406 39.3384C44.5731 40.5085 44.11 41.6794 43.6476 42.8517C43.3703 43.5544 43.0842 44.2549 42.8294 44.9655C42.669 45.4135 42.8396 45.7591 43.236 45.9056C43.6091 46.0441 43.9408 45.8839 44.1238 45.4539C44.2835 45.0788 44.4323 44.6979 44.5629 44.3119C44.6247 44.1301 44.7176 44.0775 44.9027 44.0796C45.6518 44.089 46.4017 44.1056 47.1494 44.0746C47.5182 44.0587 47.7106 44.1532 47.8165 44.5233C47.9283 44.9122 48.0742 45.2988 48.2949 45.6458C48.4742 45.9279 48.7414 46.0131 49.0492 45.9149C49.362 45.8161 49.5609 45.6047 49.5638 45.3205C49.5551 45.0593 49.4927 44.8782 49.4208 44.6993ZM47.0289 42.9823C46.3814 42.9751 45.7331 42.9794 45.0413 42.9794C45.4007 41.9824 45.7477 41.02 46.1273 39.966C46.4932 40.963 46.822 41.8706 47.161 42.7745C47.2191 42.9282 47.214 42.9845 47.0289 42.9823Z" fill="white"/>
<path d="M53.2823 33.7805C53.1451 33.3845 52.9767 32.9985 52.8192 32.6097C52.3502 31.4539 51.8798 30.2989 51.4102 29.1439C51.2497 28.7493 51.0131 28.4535 50.5405 28.4802C50.1187 28.4629 49.8814 28.7046 49.734 29.0451C49.5249 29.5291 49.3326 30.0212 49.1395 30.5117C48.7046 31.6163 48.2654 32.7193 47.8466 33.8296C47.7101 34.1925 47.8524 34.4681 48.1747 34.5914C48.4702 34.7054 48.7402 34.5799 48.8934 34.2336C49.0248 33.9385 49.1395 33.6348 49.2469 33.3297C49.3013 33.1745 49.3703 33.101 49.5525 33.1046C50.2167 33.1168 50.881 33.1154 51.5444 33.1053C51.7194 33.1024 51.8007 33.1637 51.8566 33.3232C51.9604 33.6161 52.0744 33.9075 52.205 34.1903C52.3894 34.59 52.6435 34.7126 52.9687 34.5842C53.299 34.4536 53.4202 34.1788 53.2823 33.7805ZM49.8182 32.1963C49.6135 32.1963 49.6962 32.0772 49.7311 31.9813C49.9895 31.2628 50.2479 30.5442 50.534 29.7499C50.8447 30.594 51.1321 31.3731 51.4348 32.197C50.8701 32.197 50.3438 32.197 49.8182 32.1963Z" fill="white"/>
<path d="M56.591 44.8262C56.17 43.9431 55.6611 43.1236 54.7951 42.5349C55.1043 42.4382 55.3773 42.3617 55.6277 42.2268C56.1482 41.9476 56.4821 41.5335 56.5823 40.947C56.795 39.6917 56.1213 38.7611 54.8502 38.5959C53.7933 38.4588 52.7276 38.5511 51.6656 38.5367C50.9056 38.5259 50.6428 38.7957 50.6421 39.5532C50.6399 41.3532 50.6399 43.1539 50.6442 44.9546C50.6442 45.1205 50.6617 45.2908 50.7009 45.4524C50.7793 45.7712 51.0007 45.9307 51.3288 45.9487C51.8478 45.9783 52.1229 45.6926 52.1331 45.0743C52.1447 44.3666 52.1411 43.6582 52.1309 42.9497C52.1288 42.7636 52.1854 42.7188 52.3734 42.703C53.1392 42.6395 53.7098 42.9208 54.1054 43.5759C54.4967 44.223 54.8938 44.8673 55.3032 45.5029C55.5878 45.9436 56.0313 46.0735 56.4233 45.8621C56.7827 45.6688 56.8429 45.3542 56.591 44.8262ZM52.2776 41.6446C52.1353 41.6497 52.1346 41.5566 52.1353 41.4549C52.1367 40.916 52.1404 40.3778 52.1324 39.8389C52.1302 39.673 52.2042 39.6376 52.3494 39.6405C52.6384 39.647 52.928 39.6427 53.2169 39.6427C53.2169 39.6383 53.2169 39.634 53.2176 39.6304C53.5537 39.647 53.892 39.6484 54.2267 39.6845C54.7522 39.7415 55.084 40.0827 55.1116 40.5632C55.1421 41.0877 54.9083 41.4109 54.3639 41.5487C53.6771 41.7233 52.9737 41.6201 52.2776 41.6446Z" fill="white"/>
<path d="M59.1043 33.9951C58.1127 34.5593 57.0594 34.783 55.9327 34.5225C54.7829 34.257 53.9989 33.374 53.8334 32.1786C53.7753 31.7609 53.7738 31.3388 53.8319 30.9204C54.0068 29.6593 54.8177 28.7972 56.0743 28.5541C56.7472 28.4235 57.4223 28.4242 58.0764 28.6609C58.57 28.8391 58.9664 29.1457 59.211 29.6153C59.4085 29.9941 59.3359 30.3339 59.0433 30.5063C58.7421 30.6838 58.4306 30.5958 58.1983 30.212C57.7795 29.5215 57.1697 29.2965 56.4053 29.4465C55.6518 29.5951 55.2562 30.1124 55.095 30.8223C54.9738 31.3569 54.9868 31.8972 55.1386 32.426C55.3701 33.2362 55.9712 33.677 56.8242 33.6849C57.2292 33.6885 57.6096 33.5839 57.9893 33.4555C58.292 33.3538 58.4219 33.1972 58.3994 32.856C58.3646 32.3106 58.3922 32.3106 57.8412 32.3092C57.6002 32.3084 57.3577 32.3301 57.1196 32.268C56.8735 32.2046 56.7508 32.0502 56.7719 31.7955C56.7915 31.5524 56.9454 31.4232 57.1733 31.4088C57.4623 31.3901 57.7533 31.4038 58.043 31.4038C58.3087 31.403 58.5751 31.3908 58.8401 31.4059C59.3076 31.4333 59.4869 31.6231 59.4948 32.0877C59.5014 32.4953 59.4948 32.9036 59.4948 33.312C59.4948 33.6135 59.37 33.8444 59.1043 33.9951Z" fill="white"/>
<path d="M64.0269 50.1959V52.4641C64.0269 52.7087 64.0436 52.9965 63.6966 52.99C63.3467 52.9828 63.391 52.6856 63.3881 52.4482C63.3852 52.2203 63.3794 51.9916 63.3903 51.7643C63.3975 51.6085 63.3445 51.5522 63.1855 51.5566C62.8596 51.5652 62.5337 51.5659 62.2077 51.5566C62.0458 51.5515 61.9994 51.6128 62.0045 51.7658C62.0139 52.0536 62.0081 52.3422 62.0059 52.63C62.0045 52.8356 61.9203 52.99 61.6952 52.9951C61.4687 53.0009 61.3722 52.8472 61.3707 52.643C61.3657 51.8033 61.3664 50.9628 61.3707 50.1231C61.3715 49.9225 61.4513 49.7645 61.6843 49.7638C61.9391 49.7631 62.0059 49.9326 62.0066 50.149C62.0074 50.377 62.0139 50.6057 62.0052 50.833C61.9987 50.9866 62.0517 51.0479 62.2114 51.0436C62.5366 51.0357 62.8632 51.0364 63.1892 51.0443C63.3511 51.0487 63.3975 50.9823 63.3903 50.8308C63.3801 50.6151 63.3881 50.3987 63.3874 50.1829C63.3859 49.9586 63.4316 49.758 63.7118 49.7638C63.9906 49.7696 64.0262 49.9773 64.0269 50.1967V50.1959Z" fill="white"/>
<path d="M48.8939 16.9769C47.9451 14.5276 48.3937 12.2551 49.8986 10.163C51.2466 8.28867 53.1173 7.07811 55.2102 6.17416C56.5096 5.6136 57.862 5.2197 59.3153 4.92969C59.189 5.35822 59.0641 5.73336 58.9712 6.11572C58.9218 6.31916 58.7628 6.32854 58.6213 6.37472C56.956 6.91723 55.3967 7.66391 54.0146 8.74678C52.8494 9.65939 51.892 10.7437 51.2873 12.1036C50.1766 14.599 50.6869 17.2481 52.6709 19.3143C54.1089 20.812 55.8983 21.734 57.8445 22.3847C59.6986 23.0044 61.6121 23.3284 63.559 23.477C63.6911 23.4871 63.8254 23.49 63.9554 23.5116C64.0432 23.526 64.224 23.4669 64.163 23.6537C64.1187 23.7894 64.1819 24.0296 63.914 24.0209C59.6332 23.8824 55.4802 23.2757 51.8876 20.6944C50.5512 19.7342 49.4928 18.5236 48.8939 16.9769Z" fill="white"/>
<path d="M64.2809 45.1106C64.175 44.615 63.9419 44.1634 63.7525 43.6974C63.1289 42.1629 62.4973 40.6327 61.8723 39.0997C61.6887 38.6509 61.3656 38.4121 60.7733 38.4085C60.4016 38.3977 60.096 38.6495 59.9123 39.0499C59.7127 39.4856 59.5385 39.9329 59.3628 40.3795C58.761 41.9089 58.1549 43.4369 57.5698 44.9736C57.4006 45.4187 57.5777 45.7621 57.977 45.9085C58.3509 46.0456 58.6826 45.8855 58.867 45.454C59.0274 45.0796 59.1755 44.698 59.304 44.312C59.3657 44.1273 59.4623 44.0797 59.6452 44.0819C60.4785 44.0905 61.3126 44.0898 62.146 44.0819C62.3188 44.0797 62.4008 44.1331 62.461 44.2969C62.6149 44.7124 62.7841 45.1236 62.9634 45.5291C63.0774 45.7881 63.2748 45.9511 63.5812 45.9504C64.0457 45.9482 64.3775 45.563 64.2809 45.1106ZM61.7068 42.9839C61.1529 42.9702 60.5983 42.9781 60.0444 42.981C59.8993 42.9817 59.7686 42.9911 59.8477 42.7761C60.1802 41.8692 60.5076 40.961 60.8669 39.9719C61.2241 40.9458 61.5442 41.8353 61.8789 42.7184C61.9544 42.9175 61.95 42.9904 61.7068 42.9839Z" fill="white"/>
<path d="M58.8993 7.574C59.3109 6.16937 59.7225 4.76474 60.1356 3.36084C60.1443 3.33198 60.1682 3.30817 60.2176 3.23242C60.9384 5.65138 61.6455 8.02273 62.362 10.4251C61.9206 10.3977 61.5032 10.3688 61.0858 10.3479C60.9653 10.3414 60.8433 10.3479 60.7243 10.3638C60.6328 10.376 60.5145 10.3825 60.4905 10.4951C60.4666 10.6076 60.5718 10.6625 60.6495 10.7122C61.1976 11.0614 61.8103 11.2382 62.4418 11.3579C62.5623 11.381 62.6777 11.3781 62.722 11.5289C62.9442 12.2857 63.1714 13.0396 63.4066 13.8267C62.8643 13.8007 62.3598 13.7733 61.856 13.7538C61.5409 13.7415 61.2266 13.7646 60.9181 13.8267C60.7787 13.8548 60.6118 13.8764 60.566 14.0388C60.5181 14.2068 60.6648 14.2963 60.7729 14.3858C61.035 14.6022 61.3384 14.7508 61.6426 14.8987C62.3271 15.2306 63.0378 15.4982 63.7579 15.7413C63.9561 15.8077 64.0512 15.9123 64.1027 16.1035C64.2109 16.5075 64.3365 16.9064 64.4613 17.3278C63.7419 17.4042 63.0422 17.4533 62.3627 17.6221C62.0789 17.6921 61.6542 17.6979 61.6121 18.011C61.5765 18.2764 61.9576 18.4308 62.2001 18.5802C62.844 18.977 63.5873 19.0505 64.3067 19.1941C65.0138 19.3355 64.9891 19.3232 64.8475 20.018C64.7684 20.4097 64.6043 20.5143 64.2058 20.5114C61.2941 20.492 58.3824 20.4963 55.4708 20.5071C55.1615 20.5086 55.0788 20.4689 55.184 20.1435C55.4359 19.368 55.6501 18.5802 55.8686 17.7945C55.9245 17.5932 56.0188 17.4807 56.225 17.4013C57.0714 17.0745 57.8765 16.6648 58.5944 16.1049C58.7505 15.983 58.9879 15.8474 58.9218 15.631C58.8441 15.3792 58.5581 15.4434 58.3505 15.4369C57.7458 15.4174 57.1542 15.548 56.5103 15.631C56.7288 14.9124 56.9371 14.2307 57.1426 13.5482C57.1796 13.4241 57.2877 13.4003 57.3828 13.3519C57.8119 13.1326 58.2445 12.9184 58.6663 12.6868C58.8768 12.5714 59.0764 12.4321 59.2644 12.2835C59.39 12.184 59.5889 12.075 59.5163 11.8903C59.4474 11.715 59.2318 11.7403 59.0648 11.7395C58.5951 11.7374 58.1378 11.8427 57.6289 11.9286C57.8474 11.2071 58.0877 10.5311 58.2518 9.83713C58.3999 9.21165 58.6481 8.75138 59.3501 8.61647C59.5933 8.56958 60.0085 8.45847 59.9483 8.16485C59.8989 7.92534 59.4866 8.00758 59.2296 8.00397C58.773 7.99748 58.7723 8.00758 58.8993 7.574Z" fill="white"/>
<path d="M65.5915 31.5232H65.5922V33.7207C65.5922 33.8166 65.5951 33.9133 65.5864 34.0085C65.5523 34.4017 65.32 34.634 64.973 34.6282C64.6398 34.6224 64.4097 34.4031 64.3966 34.0172C64.3763 33.4292 64.3756 32.8405 64.3908 32.2525C64.3981 31.9871 64.3516 31.8716 64.0431 31.8839C63.3796 31.9113 62.7139 31.9019 62.0497 31.8868C61.8254 31.8817 61.7601 31.9467 61.7666 32.1681C61.7818 32.6962 61.7746 33.225 61.7702 33.7531C61.7688 33.8967 61.763 34.0439 61.7267 34.1809C61.6519 34.4702 61.4537 34.6268 61.1481 34.6261C60.836 34.6261 60.6596 34.4507 60.5812 34.1658C60.5623 34.0972 60.5579 34.0229 60.5579 33.9515C60.5565 32.3543 60.5507 30.7577 60.5594 29.1605C60.5623 28.6548 60.8846 28.3878 61.3172 28.4968C61.6606 28.5841 61.7572 28.8524 61.7651 29.1576C61.7782 29.6374 61.7869 30.1185 61.7651 30.5976C61.7535 30.8595 61.8414 30.9172 62.0896 30.9107C62.7539 30.8934 63.4188 30.8963 64.083 30.91C64.3117 30.9143 64.4024 30.8667 64.3915 30.6163C64.3705 30.1366 64.3785 29.6554 64.3901 29.1756C64.4017 28.7103 64.6144 28.4758 64.9926 28.4795C65.3744 28.4838 65.5842 28.7182 65.5893 29.1821C65.5973 29.9627 65.5915 30.7433 65.5915 31.5232Z" fill="white"/>
<path d="M68.5639 50.0891C68.4471 49.991 68.3048 49.908 68.1603 49.8568C66.9756 49.4376 65.9905 50.1316 65.9942 51.3776C65.9971 52.2173 66.3956 52.7829 67.0997 52.9452C67.8728 53.1234 68.5654 52.8558 68.8819 52.2563C69.2427 51.5716 69.0968 50.5357 68.5639 50.0891ZM67.5839 52.4893C67.0112 52.5246 66.6373 52.0687 66.6431 51.3415C66.6489 50.6229 67.0453 50.1987 67.6442 50.2687C68.1552 50.3286 68.4427 50.7528 68.4245 51.4201C68.4064 52.0572 68.0921 52.4575 67.5839 52.4893Z" fill="white"/>
<path d="M61.237 5.45838C60.9815 4.65398 60.9742 4.65038 61.8236 4.55298C62.8674 4.43322 63.9164 4.39643 64.9131 4.37695C66.5254 4.38489 68.0752 4.50248 69.6084 4.79178C69.7151 4.81126 69.9779 4.7456 69.8595 4.99738C69.779 5.17053 69.9271 5.52908 69.4973 5.47209C66.8462 5.11931 64.2031 5.20371 61.5702 5.65677C61.3793 5.68996 61.2973 5.64884 61.237 5.45838Z" fill="white"/>
<path d="M70.0156 39.1791C70.0018 39.5268 69.8014 39.7288 69.3993 39.7447C68.9173 39.7642 68.4331 39.7685 67.9511 39.7483C67.6868 39.7368 67.6331 39.8313 67.6375 40.0737C67.6513 40.9012 67.6425 41.7294 67.6425 42.5576H67.6404C67.6404 43.4096 67.6527 44.2616 67.636 45.1129C67.6251 45.7074 67.3442 45.9801 66.8346 45.9476C66.4266 45.9216 66.1907 45.6734 66.1609 45.2016C66.1413 44.8914 66.1537 44.5783 66.1537 44.2659C66.1537 42.862 66.1486 41.4588 66.1587 40.0549C66.1602 39.827 66.1108 39.7382 65.8633 39.749C65.4176 39.7692 64.9697 39.7599 64.5232 39.7527C64.0253 39.744 63.7908 39.5463 63.7872 39.151C63.7835 38.7527 64.0231 38.537 64.508 38.5349C66.1021 38.5298 67.6955 38.5298 69.2897 38.5363C69.7971 38.5385 70.0323 38.7585 70.0156 39.1791Z" fill="white"/>
<path d="M71.6287 29.3501C71.0552 30.9156 70.4738 32.479 69.8836 34.0387C69.7522 34.3871 69.4952 34.6122 69.0938 34.6267C68.6727 34.6418 68.4063 34.4203 68.2655 34.0524C67.8169 32.8757 67.3791 31.694 66.94 30.5138C66.789 30.109 66.6358 29.705 66.5037 29.2945C66.3774 28.9035 66.5131 28.6135 66.8441 28.5053C67.1788 28.3956 67.4728 28.5327 67.6078 28.9165C68.0709 30.2288 68.5167 31.5469 68.9696 32.8628C69.0038 32.9623 69.0393 33.0619 69.0989 33.2307C69.3624 32.4559 69.6048 31.7438 69.8466 31.031C70.0781 30.35 70.3046 29.6661 70.5427 28.9872C70.6959 28.5486 70.9746 28.387 71.3311 28.5075C71.6519 28.6164 71.7811 28.9338 71.6287 29.3501Z" fill="white"/>
<path d="M73.2479 50.0771C73.2435 50.2553 73.1238 50.3195 72.9612 50.3361C72.7252 50.3599 72.3884 50.2214 72.2788 50.3981C72.159 50.5915 72.2338 50.906 72.2316 51.1679C72.228 51.6354 72.2294 52.1029 72.2316 52.5704C72.2323 52.7969 72.1786 52.9974 71.9071 52.9931C71.6364 52.9881 71.5899 52.7846 71.5921 52.5595C71.595 52.2363 71.5928 51.9124 71.5928 51.5892C71.5928 51.266 71.5812 50.9406 71.5971 50.6182C71.6073 50.4061 71.5572 50.3029 71.3213 50.3325C71.179 50.3512 71.0324 50.3375 70.8879 50.3361C70.7057 50.3339 70.5772 50.2589 70.5801 50.0634C70.5823 49.8845 70.7079 49.8152 70.8719 49.8145C71.571 49.8123 72.2708 49.8109 72.9706 49.8159C73.1347 49.8166 73.2523 49.8967 73.2479 50.0771Z" fill="white"/>
<path d="M73.396 34.5204C72.8153 34.5153 72.6091 34.3068 72.6062 33.7369C72.6019 33.0047 72.6055 32.2724 72.6048 31.5402C72.6048 30.8079 72.6011 30.0756 72.6062 29.3441C72.6099 28.7965 72.8255 28.5787 73.3772 28.5758C74.4276 28.5707 75.478 28.5715 76.5291 28.5758C76.9429 28.5772 77.1208 28.728 77.1157 29.0454C77.1106 29.3571 76.9284 29.5021 76.5139 29.5043C75.7168 29.5093 74.9197 29.5137 74.1227 29.5021C73.8962 29.4985 73.7975 29.5461 73.8149 29.7943C73.8374 30.1045 73.8309 30.4183 73.8163 30.73C73.8069 30.9248 73.8795 30.9717 74.0653 30.9695C74.8261 30.9608 75.5869 30.9601 76.3476 30.9688C76.7433 30.9731 76.9436 31.1939 76.8718 31.5243C76.8072 31.8222 76.5741 31.8749 76.3179 31.8763C75.5934 31.8792 74.8682 31.8872 74.1437 31.872C73.9027 31.8677 73.7982 31.9139 73.8149 32.1801C73.8381 32.5509 73.8359 32.9253 73.8149 33.2961C73.8018 33.5284 73.8882 33.5739 74.1024 33.571C74.9118 33.5587 75.7212 33.5645 76.5299 33.5674C76.6496 33.5674 76.7723 33.5731 76.8877 33.602C77.1389 33.6655 77.2333 33.8531 77.2173 34.0933C77.2021 34.3227 77.0772 34.4785 76.8369 34.5009C76.6329 34.5204 76.4275 34.5233 76.2221 34.5233C75.2805 34.5247 74.3383 34.5276 73.396 34.5204Z" fill="white"/>
<path d="M77.4763 52.6925C77.4749 52.875 77.3493 52.9385 77.186 52.9392C76.5943 52.9406 76.0034 52.9442 75.4125 52.9363C75.1577 52.9327 75.0561 52.774 75.0575 52.5323C75.0597 52.137 75.0583 51.7416 75.0583 51.3463C75.0583 50.9747 75.0634 50.6025 75.0568 50.2309C75.051 49.9438 75.1875 49.8118 75.4713 49.8125C76.0143 49.8139 76.5573 49.8132 77.0996 49.8125C77.2716 49.8125 77.4306 49.8493 77.4277 50.0563C77.4248 50.2591 77.268 50.2973 77.0945 50.2966C76.7206 50.2944 76.3461 50.3088 75.9737 50.2908C75.7443 50.28 75.6891 50.3608 75.6927 50.5787C75.7014 51.0678 75.6891 51.0685 76.1929 51.0692C76.4702 51.0692 76.7475 51.0678 77.0248 51.07C77.1736 51.0707 77.2927 51.1255 77.3021 51.2886C77.3123 51.4725 77.1881 51.5447 77.0255 51.5476C76.6756 51.554 76.325 51.5641 75.9766 51.5461C75.7508 51.5346 75.692 51.6089 75.6927 51.8289C75.6949 52.4385 75.684 52.4385 76.288 52.4385C76.59 52.4385 76.8912 52.4385 77.1925 52.4407C77.3602 52.4421 77.4785 52.5121 77.4763 52.6925Z" fill="white"/>
<path d="M69.8024 6.47846C70.4245 4.33508 71.0379 2.18882 71.6542 0.0432859C71.6571 0.0339073 71.6717 0.0281358 71.705 0C71.9983 1.00568 72.2901 1.99909 72.5776 2.99394C73.223 5.23038 73.8603 7.47043 74.5173 9.70398C74.6051 10.0041 74.5492 10.0438 74.2596 10.0005C73.6745 9.9132 73.0828 9.86775 72.489 9.91031C72.3243 9.92257 72.1065 9.91608 72.0629 10.1058C72.0237 10.2761 72.2168 10.3641 72.346 10.4434C73.0749 10.89 73.8734 11.1598 74.7133 11.2976C74.9528 11.3366 75.0588 11.4289 75.122 11.6576C75.3819 12.594 75.6541 13.5276 75.9372 14.4575C76.0098 14.6941 75.9931 14.7677 75.718 14.7381C74.8882 14.6487 74.0549 14.6184 73.22 14.6609C72.9297 14.6754 72.6393 14.7021 72.3714 14.8254C72.1319 14.9351 72.0854 15.1068 72.2546 15.3153C72.4469 15.5534 72.7017 15.7186 72.9631 15.8693C74.0737 16.5114 75.2672 16.9731 76.4751 17.393C76.7539 17.4904 76.8794 17.639 76.9455 17.9052C77.0566 18.3475 77.1742 18.7897 77.3266 19.2189C77.4362 19.5284 77.4123 19.6381 77.0377 19.6619C76.1579 19.7167 75.2817 19.8264 74.4273 20.0594C74.2189 20.1157 74.0106 20.1857 73.8175 20.2809C73.4763 20.4497 73.4618 20.5825 73.7267 20.8465C74.2734 21.389 74.9441 21.7079 75.686 21.8774C76.462 22.0556 77.2431 22.2136 78.0264 22.3615C78.2268 22.399 78.3059 22.4841 78.3502 22.6746C78.4365 23.0483 78.5433 23.4184 78.6623 23.7834C78.7284 23.9876 78.6674 24.0439 78.4699 24.0251C78.3625 24.015 78.2529 24.023 78.144 24.023C73.8298 24.0222 69.5149 24.0194 65.2007 24.0295C64.8777 24.0302 64.7906 23.9948 64.8959 23.6471C65.2458 22.487 65.5637 21.3169 65.8788 20.146C65.9383 19.9231 66.0501 19.8185 66.2628 19.7355C67.38 19.2997 68.4304 18.7378 69.3901 18.017C69.5338 17.9088 69.6666 17.784 69.7908 17.6534C69.9047 17.533 70.0427 17.3959 69.9686 17.2134C69.8975 17.0366 69.7095 17.0078 69.5411 16.9897C68.7992 16.9125 68.0718 17.0438 67.343 17.1513C67.1528 17.1795 66.9647 17.2177 66.7782 17.2516C66.6809 17.1499 66.7695 17.0648 66.7934 16.9825C67.0337 16.1529 67.2863 15.3261 67.5194 14.4936C67.576 14.2901 67.6747 14.1718 67.8685 14.0809C68.6547 13.7115 69.4271 13.3169 70.1407 12.8184C70.3389 12.6806 70.5334 12.5356 70.6815 12.343C70.8789 12.084 70.8194 11.9224 70.4949 11.8661C70.1218 11.8026 69.7472 11.8394 69.3755 11.8957C69.0082 11.952 68.6424 12.0205 68.2177 12.0941C68.6235 10.7241 69.0198 9.40314 69.4039 8.07787C69.4496 7.91916 69.5563 7.8802 69.6819 7.83619C70.1828 7.66089 70.6851 7.48702 71.1388 7.20494C71.2593 7.12919 71.4263 7.05128 71.4038 6.89256C71.3769 6.70643 71.1795 6.69922 71.0285 6.67397C70.6815 6.61553 70.3309 6.62419 69.981 6.65593C69.8503 6.6682 69.7421 6.68695 69.8024 6.47846Z" fill="white"/>
<path d="M79.4272 44.905C79.0084 43.9923 78.4951 43.1447 77.5783 42.5264C77.6828 42.5019 77.7293 42.4932 77.775 42.4802C78.4901 42.2753 79.0969 41.937 79.3329 41.173C79.7263 39.9018 79.0004 38.7685 77.6705 38.5968C76.6005 38.4582 75.5232 38.5513 74.4488 38.5369C73.7077 38.5268 73.4565 38.7894 73.455 39.5375C73.4521 40.7257 73.4536 41.9146 73.4543 43.1028C73.4543 43.7867 73.4449 44.4714 73.4587 45.1553C73.4703 45.7281 73.8064 46.0174 74.3363 45.9424C74.7029 45.8904 74.9178 45.6235 74.9258 45.1575C74.9381 44.4252 74.9345 43.6929 74.9287 42.9607C74.9272 42.7847 74.9664 42.7176 75.1653 42.701C75.9276 42.6397 76.5097 42.9044 76.9025 43.5645C77.031 43.781 77.1711 43.9916 77.3046 44.2052C77.5972 44.6734 77.8701 45.1553 78.1874 45.6069C78.4465 45.9748 78.8915 46.052 79.2472 45.8464C79.5797 45.6538 79.6465 45.3818 79.4272 44.905ZM77.182 41.5467C76.4945 41.7227 75.7904 41.6188 75.0935 41.6462C74.9338 41.652 74.9301 41.5496 74.9309 41.4327C74.9323 40.9061 74.9388 40.3787 74.928 39.852C74.9236 39.6623 75.0158 39.6356 75.1697 39.6392C75.4593 39.645 75.7482 39.6407 76.0379 39.6407C76.0379 39.6363 76.0379 39.6327 76.0386 39.6284C76.3747 39.6472 76.7137 39.6493 77.0477 39.6876C77.5616 39.746 77.8788 40.0764 77.9086 40.5468C77.942 41.0864 77.7184 41.4089 77.182 41.5467Z" fill="white"/>
<path d="M73.8359 6.02539C76.519 6.9784 79.398 9.14053 80.3177 11.3359C79.9649 10.8186 79.6078 10.3049 79.1737 9.85042C77.8176 8.43064 76.1705 7.4495 74.3535 6.74177C73.9862 6.59893 73.8657 6.37601 73.8359 6.02539Z" fill="white"/>
<path d="M81.6503 52.6806C81.6518 52.8769 81.5117 52.9411 81.3324 52.9411C80.8133 52.9411 80.295 52.9447 79.7767 52.9396C79.5277 52.9374 79.4043 52.8018 79.4058 52.5522C79.4072 52.1446 79.4058 51.7377 79.4058 51.3301C79.405 50.9586 79.4065 50.587 79.4043 50.2155C79.4036 49.9846 79.421 49.7559 79.7288 49.7639C80.0315 49.7718 80.0431 50.0092 80.0439 50.2328C80.046 50.8323 80.062 51.4318 80.0373 52.0306C80.025 52.3351 80.0852 52.4692 80.425 52.431C80.7226 52.3971 81.0268 52.4252 81.328 52.4245C81.5066 52.4238 81.6489 52.4844 81.6503 52.6806Z" fill="white"/>
<path d="M83.0422 33.7533C82.7053 33.0146 82.2756 32.3415 81.578 31.8459C81.7631 31.7795 81.9242 31.7311 82.0789 31.6648C82.6756 31.4079 83.0175 30.9671 83.0443 30.3085C83.0865 29.2877 82.4607 28.6434 81.3319 28.5936C80.5602 28.5597 79.7857 28.5763 79.0118 28.5763C78.373 28.5763 78.1748 28.779 78.1748 29.4255C78.1734 30.8185 78.1734 32.2123 78.1756 33.6054C78.1756 33.7973 78.1698 33.9928 78.2046 34.1797C78.2467 34.4069 78.3897 34.5729 78.6329 34.6147C78.8703 34.6551 79.0968 34.6263 79.2514 34.4149C79.3704 34.2526 79.3871 34.0578 79.3871 33.8637C79.3886 33.3233 79.3958 32.7823 79.385 32.2419C79.3813 32.0428 79.4372 31.9815 79.6477 31.9714C80.2234 31.9447 80.6568 32.1553 80.9595 32.6409C81.3094 33.2014 81.6506 33.7678 82.0172 34.3182C82.2349 34.645 82.6044 34.72 82.9057 34.5426C83.175 34.3831 83.2244 34.1516 83.0422 33.7533ZM79.5526 31.115C79.4249 31.1194 79.3879 31.0566 79.3893 30.9405C79.3922 30.5213 79.3944 30.1014 79.3879 29.6823C79.385 29.5221 79.4532 29.4731 79.6042 29.4781C79.8329 29.4853 80.0622 29.4803 80.2909 29.4803V29.5012C80.5196 29.5012 80.7497 29.4875 80.9776 29.5041C81.4981 29.543 81.7856 29.7977 81.8154 30.2255C81.8473 30.693 81.6194 30.9621 81.0684 31.0667C80.5675 31.1612 80.0579 31.0985 79.5526 31.115Z" fill="white"/>
<path d="M86.44 44.9965C86.612 45.4048 86.3739 45.8074 85.9209 45.8125C84.4705 45.8276 83.0209 45.8276 81.5712 45.8096C81.1037 45.8038 80.8467 45.5116 80.8366 44.9951C80.8184 44.0471 80.8315 43.0977 80.8315 42.149H80.8271C80.8271 41.2847 80.8242 40.4197 80.8286 39.5555C80.8315 38.7886 81.0877 38.5339 81.847 38.5332C83.116 38.5332 84.3849 38.5332 85.6538 38.5332C85.9442 38.5339 86.2171 38.575 86.3311 38.8968C86.4872 39.3354 86.2128 39.6666 85.6763 39.6709C84.6854 39.6774 83.6938 39.6861 82.7036 39.6651C82.3908 39.6579 82.2768 39.725 82.3066 40.0533C82.34 40.4226 82.3283 40.7978 82.3087 41.1693C82.2964 41.4038 82.3654 41.4774 82.6071 41.4738C83.537 41.4615 84.4676 41.4694 85.3983 41.4716C85.6473 41.4716 85.8868 41.5019 86.0168 41.7566C86.2258 42.1642 85.9522 42.5638 85.4411 42.5703C84.5591 42.5804 83.6771 42.5732 82.7951 42.5739C82.4738 42.5744 82.3136 42.7317 82.3145 43.0458C82.3145 43.4902 82.3262 43.9346 82.3095 44.3782C82.3007 44.599 82.3617 44.6632 82.5889 44.6603C83.6517 44.6481 84.7152 44.6553 85.7787 44.656C86.0574 44.6567 86.318 44.7065 86.44 44.9965Z" fill="white"/>
<path d="M80.3057 15.6818C80.5177 14.9784 80.7289 14.2931 80.9278 13.6041C80.9736 13.4461 81.0854 13.4548 81.2037 13.4317C81.7518 13.3264 82.281 13.1619 82.7666 12.8827C82.8653 12.8264 83.0134 12.7665 82.9655 12.6222C82.9292 12.5111 82.7877 12.5176 82.6809 12.5111C82.2933 12.4873 81.9071 12.5082 81.5253 12.5717C81.2893 12.6107 81.2654 12.5422 81.3293 12.3308C81.9623 10.23 82.5873 8.12699 83.2464 5.91797C83.6987 7.45173 84.1234 8.89171 84.5604 10.3721C84.2511 10.3721 83.9745 10.3634 83.7001 10.3764C83.5992 10.3815 83.457 10.4002 83.4417 10.5265C83.4301 10.6239 83.5404 10.683 83.6239 10.7321C83.9165 10.9045 84.2351 11.0178 84.5538 11.1289C84.6555 11.1642 84.7585 11.1808 84.7977 11.3114C85.0598 12.1793 85.3277 13.0457 85.6064 13.9533C85.1208 13.8739 84.6859 13.7708 84.2395 13.7888C84.0994 13.7946 83.9186 13.7671 83.8657 13.9345C83.8199 14.0802 83.968 14.1675 84.066 14.2491C84.572 14.6682 85.1636 14.9445 85.7538 15.2194C85.944 15.3081 86.0543 15.4192 86.1109 15.6263C86.2663 16.1904 86.447 16.7481 86.6249 17.3339C86.1175 17.2784 85.6427 17.2091 85.1651 17.181C84.9132 17.1665 84.54 17.0619 84.4442 17.3397C84.3419 17.6369 84.7063 17.7834 84.9204 17.937C85.5302 18.3742 86.198 18.7111 86.8971 18.9809C87.0554 19.0423 87.1541 19.1094 87.2027 19.2875C87.4118 20.0515 87.6368 20.8112 87.8662 21.5687C87.9214 21.7505 87.9105 21.8212 87.6898 21.8212C84.8986 21.8154 82.1075 21.8169 79.3163 21.8198C79.1798 21.8198 79.1065 21.7916 79.0557 21.6437C78.7457 20.7434 78.7421 20.7513 79.6713 20.5832C80.3827 20.4541 81.1071 20.3466 81.6915 19.864C81.8055 19.7695 81.9978 19.6944 81.9557 19.5134C81.9165 19.3481 81.7285 19.3128 81.5812 19.2659C80.9315 19.0603 80.2571 18.9939 79.5834 18.9413C79.3489 18.9232 79.3693 18.859 79.3976 18.6621C79.5145 17.8505 79.8963 17.3447 80.7529 17.1572C81.3344 17.0302 81.8773 16.7301 82.4007 16.4271C82.4835 16.3787 82.5699 16.3311 82.6425 16.2691C82.7659 16.1637 82.9641 16.0772 82.8987 15.8788C82.845 15.715 82.6541 15.702 82.5002 15.6782C81.8737 15.5823 81.2465 15.6494 80.6193 15.6818C80.5249 15.6862 80.4306 15.6818 80.3057 15.6818Z" fill="white"/>
<path d="M89.2594 33.7889C88.6155 32.1736 87.9542 30.5656 87.2922 28.9575C87.1543 28.6235 86.8813 28.4684 86.5046 28.4799C86.0639 28.4561 85.8338 28.7403 85.6799 29.1003C85.4549 29.6299 85.2487 30.1681 85.0382 30.7041C84.6346 31.73 84.2244 32.7544 83.8346 33.786C83.6865 34.1771 83.8143 34.4563 84.1431 34.5868C84.4603 34.7124 84.7311 34.5717 84.8995 34.1763C85.0171 33.9008 85.1267 33.6208 85.2175 33.3359C85.2748 33.1562 85.3685 33.1007 85.555 33.1036C86.1946 33.1151 86.8348 33.1158 87.4744 33.1036C87.6718 33.1 87.7785 33.1476 87.8424 33.3481C87.9368 33.6439 88.0595 33.9325 88.1909 34.2153C88.3644 34.5868 88.6257 34.708 88.9379 34.5876C89.2682 34.4599 89.4119 34.172 89.2594 33.7889ZM85.6327 32.1845C85.9216 31.3837 86.2018 30.6067 86.5111 29.7482C86.8254 30.6045 87.1107 31.3837 87.4047 32.1845H85.6327Z" fill="white"/>
<path d="M93.2318 43.4627C93.2783 44.2917 93.0024 44.9705 92.2852 45.438C91.6755 45.8341 90.9938 45.9531 90.0929 45.9488C89.1877 45.9257 88.2266 45.6451 87.6437 44.6206C87.5173 44.3977 87.4331 44.1611 87.4099 43.9071C87.378 43.5544 87.5566 43.2831 87.8774 43.185C88.207 43.0847 88.4444 43.2261 88.6164 43.4902C88.7071 43.6301 88.7652 43.791 88.8385 43.9418C89.3075 44.9042 90.5147 45.1913 91.3807 44.547C91.9426 44.1293 91.9077 43.3711 91.3023 43.0155C90.9444 42.8048 90.5357 42.7319 90.1372 42.6367C89.5253 42.4895 88.9206 42.3236 88.3856 41.978C87.2553 41.2472 87.2335 39.5894 88.3885 38.9026C89.5224 38.2273 90.7347 38.2273 91.9273 38.7749C92.3883 38.9863 92.7251 39.3578 92.8711 39.8606C92.9502 40.1355 92.9509 40.4082 92.7491 40.6441C92.495 40.9413 92.103 40.963 91.8301 40.6766C91.7161 40.5575 91.6312 40.4068 91.5484 40.2617C91.0911 39.4617 90.2483 39.2077 89.4127 39.6247C89.1398 39.7611 88.9344 39.9551 88.9249 40.2841C88.9155 40.616 89.1144 40.8165 89.3852 40.9579C89.7517 41.1498 90.1546 41.2371 90.5524 41.3367C91.0562 41.4622 91.5535 41.6058 92.0304 41.8135C92.7585 42.1303 93.1876 42.6583 93.2318 43.4627Z" fill="white"/>
<path d="M93.8872 34.2544C93.2724 33.3663 92.6844 32.4587 92.0869 31.5584C91.8684 31.2287 91.6528 30.8961 91.4329 30.5607C91.3109 30.6241 91.3704 30.7316 91.3697 30.8124C91.3654 31.8441 91.3719 32.8765 91.3646 33.9081C91.3617 34.385 91.1868 34.605 90.8318 34.6259C90.4572 34.6476 90.2365 34.4275 90.2293 33.9838C90.2184 33.2646 90.2242 32.5439 90.2242 31.8239C90.2242 30.9841 90.2199 30.1444 90.2271 29.3039C90.2315 28.8566 90.4217 28.5738 90.7534 28.4988C91.1207 28.4158 91.3755 28.5702 91.5759 28.8747C92.3613 30.0686 93.1555 31.2568 93.9489 32.4458C93.9852 32.4999 93.991 32.5893 94.1253 32.5944C94.1253 31.4257 94.1202 30.275 94.1275 29.1243C94.1304 28.6712 94.3104 28.4764 94.6778 28.4779C95.0197 28.4793 95.2106 28.6647 95.2251 29.0565C95.2418 29.5117 95.2316 29.9684 95.2316 30.4243C95.2316 31.5519 95.2316 32.6802 95.2309 33.8078C95.2309 34.1317 95.1975 34.442 94.8382 34.5826C94.5064 34.7125 94.1333 34.6108 93.8872 34.2544Z" fill="white"/>
<path d="M101.312 41.5737C101.172 40.0421 100.315 38.934 98.9691 38.5668C98.1619 38.3467 97.3452 38.3439 96.5365 38.5646C95.746 38.7796 95.1355 39.2428 94.7101 39.9418C94.255 40.6892 94.1315 41.5138 94.1628 42.3644C94.2361 44.3988 95.3126 45.6657 97.1587 45.9182C99.2058 46.1981 100.771 45.2133 101.215 43.3629C101.308 42.9754 101.341 42.5815 101.345 42.184C101.334 41.9806 101.331 41.7764 101.312 41.5737ZM99.433 43.844C99.0395 44.4883 98.4588 44.7877 97.7125 44.7776C96.959 44.7675 96.3754 44.4363 96.0407 43.7697C95.5319 42.7583 95.5173 41.7072 95.9776 40.6777C96.3333 39.8827 97.0069 39.5284 97.9194 39.5963C98.7789 39.6605 99.3437 40.1258 99.6464 40.9143C99.7938 41.3003 99.8308 41.7064 99.8366 42.1862C99.8308 42.7222 99.7582 43.3109 99.433 43.844Z" fill="white"/>
<path d="M108.615 44.9798C108.193 44.0391 107.673 43.1683 106.758 42.5421C106.952 42.475 107.126 42.4223 107.294 42.3567C107.886 42.1258 108.33 41.7521 108.503 41.1158C108.847 39.8547 108.147 38.7784 106.836 38.5987C105.767 38.453 104.688 38.5511 103.614 38.536C102.864 38.5251 102.609 38.787 102.608 39.5265C102.607 41.3517 102.608 43.1769 102.608 45.0022C102.608 45.1104 102.609 45.2193 102.626 45.3254C102.694 45.7496 102.946 45.9566 103.373 45.948C103.818 45.9386 104.067 45.681 104.079 45.1659C104.095 44.4337 104.085 43.7007 104.085 42.9684C104.085 42.835 104.062 42.7181 104.271 42.703C104.986 42.6532 105.59 42.8242 105.987 43.4677C106.295 43.9691 106.602 44.4705 106.918 44.9675C107.086 45.2301 107.22 45.5173 107.453 45.7337C107.734 45.9949 108.151 46.0244 108.453 45.8138C108.779 45.588 108.752 45.2828 108.615 44.9798ZM104.226 41.6432C104.088 41.6475 104.084 41.5523 104.085 41.4484C104.087 40.9095 104.092 40.3699 104.082 39.8309C104.078 39.6513 104.173 39.6398 104.306 39.6412C104.596 39.6441 104.885 39.6419 105.174 39.6419C105.174 39.6383 105.174 39.634 105.175 39.6304C105.512 39.647 105.851 39.6463 106.186 39.6838C106.705 39.7415 107.027 40.0669 107.06 40.5307C107.1 41.0898 106.879 41.4087 106.315 41.5501C105.627 41.7225 104.923 41.6208 104.226 41.6432Z" fill="white"/>
<path d="M115 39.1349C115.007 39.5144 114.771 39.7373 114.313 39.7496C113.843 39.7626 113.371 39.7655 112.901 39.7496C112.68 39.7416 112.612 39.8001 112.615 40.0266C112.629 40.8779 112.621 41.7299 112.62 42.5819C112.62 43.4217 112.63 44.2621 112.617 45.1019C112.607 45.705 112.311 45.9921 111.787 45.946C111.475 45.9193 111.264 45.7577 111.189 45.4583C111.145 45.2859 111.131 45.1033 111.131 44.9244C111.126 43.3171 111.121 41.709 111.135 40.1016C111.138 39.8152 111.059 39.733 110.776 39.7481C110.342 39.7719 109.906 39.7611 109.472 39.7517C108.996 39.7409 108.777 39.5476 108.772 39.1587C108.766 38.7453 108.986 38.5376 109.479 38.5354C111.084 38.5296 112.69 38.5296 114.295 38.5369C114.76 38.539 114.993 38.7518 115 39.1349Z" fill="white"/>
<path d="M34.7816 45.006C34.6923 44.708 34.5733 44.418 34.4549 44.1294C33.7595 42.4305 33.0604 40.7329 32.3621 39.0354C32.1922 38.6227 31.8728 38.4272 31.4329 38.4092C31.0024 38.3926 30.6881 38.5845 30.487 38.9546C30.3905 39.1328 30.3099 39.3218 30.2351 39.5108C29.4881 41.393 28.7448 43.276 28 45.1589V45.3746C28.1539 45.713 28.3702 45.9698 28.7862 45.9474C29.1825 45.9258 29.3263 45.6314 29.4475 45.3205C29.5738 44.9959 29.7096 44.6748 29.8126 44.343C29.8787 44.1302 29.9948 44.0782 30.2054 44.0811C31.0148 44.0919 31.8242 44.0926 32.6336 44.0804C32.8354 44.0768 32.9319 44.1374 33.0009 44.3278C33.1468 44.7333 33.3043 45.1373 33.4902 45.5254C33.6825 45.9258 34.0194 46.0477 34.3852 45.8948C34.7526 45.7404 34.9065 45.4215 34.7816 45.006ZM32.4891 42.9694H30.3084C30.6641 41.9803 31.0119 41.0143 31.3872 39.9697C31.7683 41.0064 32.1247 41.976 32.4891 42.9694Z" fill="white"/>
<path d="M78.4699 24.0251C78.3625 24.015 78.2529 24.023 78.144 24.023C73.8298 24.0222 69.5149 24.0194 65.2007 24.0295C64.8777 24.0302 64.7906 23.9948 64.8959 23.6471C65.2458 22.487 65.5637 21.3169 65.8788 20.146C65.9383 19.9231 66.0501 19.8185 66.2628 19.7355C67.38 19.2997 68.4304 18.7378 69.3901 18.017C69.5338 17.9088 69.6666 17.784 69.7908 17.6534C69.9047 17.533 70.0427 17.3959 69.9686 17.2134C69.8975 17.0366 69.7095 17.0078 69.5411 16.9897C68.7992 16.9125 68.0718 17.0438 67.343 17.1513C67.1528 17.1795 66.9647 17.2177 66.7782 17.2516C66.6809 17.1499 66.7695 17.0648 66.7934 16.9825C67.0337 16.1529 67.2863 15.3261 67.5194 14.4936C67.576 14.2901 67.6747 14.1718 67.8685 14.0809C68.6547 13.7115 69.4271 13.3169 70.1407 12.8184C70.3389 12.6806 70.5334 12.5356 70.6815 12.343C70.8789 12.084 70.8194 11.9224 70.4949 11.8661C70.1218 11.8026 69.7472 11.8394 69.3755 11.8957C69.0082 11.952 68.6424 12.0205 68.2177 12.0941C68.6235 10.7241 69.0198 9.40314 69.4039 8.07787C69.4496 7.91916 69.5563 7.8802 69.6819 7.83619C70.1828 7.66089 70.6851 7.48702 71.1388 7.20494C71.2593 7.12919 71.4263 7.05128 71.4038 6.89256C71.3769 6.70643 71.1795 6.69922 71.0285 6.67397C70.6815 6.61553 70.3309 6.62419 69.981 6.65593C69.8503 6.6682 69.7421 6.68695 69.8024 6.47846C70.4245 4.33508 71.0379 2.18882 71.6542 0.0432859C71.6571 0.0339073 71.6717 0.0281358 71.705 0C71.9983 1.00568 72.2901 1.99909 72.5776 2.99394C73.223 5.23038 73.8603 7.47043 74.5173 9.70398C74.6051 10.0041 74.5492 10.0438 74.2596 10.0005C73.6745 9.9132 73.0828 9.86775 72.489 9.91031C72.3243 9.92257 72.1065 9.91608 72.0629 10.1058C72.0237 10.2761 72.2168 10.3641 72.346 10.4434C73.0749 10.89 73.8734 11.1598 74.7133 11.2976C74.9528 11.3366 75.0588 11.4289 75.122 11.6576C75.3819 12.594 75.6541 13.5276 75.9372 14.4575C76.0098 14.6941 75.9931 14.7677 75.718 14.7381C74.8882 14.6487 74.0549 14.6184 73.22 14.6609C72.9297 14.6754 72.6393 14.7021 72.3714 14.8254C72.1319 14.9351 72.0854 15.1068 72.2546 15.3153C72.4469 15.5534 72.7017 15.7186 72.9631 15.8693C74.0737 16.5114 75.2672 16.9731 76.4751 17.393C76.7539 17.4904 76.8794 17.639 76.9455 17.9052C77.0566 18.3475 77.1742 18.7897 77.3266 19.2189C77.4362 19.5284 77.4123 19.6381 77.0377 19.6619C76.1579 19.7167 75.2817 19.8264 74.4273 20.0594C74.2189 20.1157 74.0106 20.1857 73.8175 20.2809C73.4763 20.4497 73.4618 20.5825 73.7267 20.8465C74.2734 21.389 74.9441 21.7079 75.686 21.8774C76.462 22.0556 77.2431 22.2136 78.0264 22.3615C78.2268 22.399 78.3059 22.4841 78.3502 22.6746C78.4365 23.0483 78.5433 23.4184 78.6623 23.7834C78.7284 23.9876 78.6674 24.0439 78.4699 24.0251Z" fill="white"/>
<path d="M64.8475 20.018C64.7684 20.4097 64.6043 20.5143 64.2058 20.5114C61.2941 20.492 58.3824 20.4963 55.4708 20.5071C55.1615 20.5086 55.0788 20.4689 55.184 20.1435C55.4359 19.368 55.6501 18.5802 55.8686 17.7945C55.9245 17.5932 56.0188 17.4807 56.225 17.4013C57.0714 17.0745 57.8765 16.6648 58.5944 16.1049C58.7505 15.983 58.9879 15.8474 58.9218 15.631C58.8441 15.3792 58.5581 15.4434 58.3505 15.4369C57.7458 15.4174 57.1542 15.548 56.5103 15.631C56.7288 14.9124 56.9371 14.2307 57.1426 13.5482C57.1796 13.4241 57.2877 13.4003 57.3828 13.3519C57.8119 13.1326 58.2445 12.9184 58.6663 12.6868C58.8768 12.5714 59.0764 12.4321 59.2644 12.2835C59.39 12.184 59.5889 12.075 59.5163 11.8903C59.4474 11.715 59.2318 11.7403 59.0648 11.7395C58.5951 11.7374 58.1378 11.8427 57.6289 11.9286C57.8474 11.2071 58.0877 10.5311 58.2518 9.83713C58.3999 9.21165 58.6481 8.75138 59.3501 8.61647C59.5933 8.56958 60.0085 8.45847 59.9483 8.16485C59.8989 7.92534 59.4866 8.00758 59.2296 8.00397C58.773 7.99748 58.7723 8.00758 58.8993 7.574C59.3109 6.16937 59.7225 4.76474 60.1356 3.36084C60.1443 3.33198 60.1682 3.30817 60.2176 3.23242C60.9384 5.65138 61.6455 8.02273 62.362 10.4251C61.9206 10.3977 61.5032 10.3688 61.0858 10.3479C60.9653 10.3414 60.8433 10.3479 60.7243 10.3638C60.6328 10.376 60.5145 10.3825 60.4905 10.4951C60.4666 10.6076 60.5718 10.6625 60.6495 10.7122C61.1976 11.0614 61.8103 11.2382 62.4418 11.3579C62.5623 11.381 62.6777 11.3781 62.722 11.5289C62.9442 12.2857 63.1714 13.0396 63.4066 13.8267C62.8643 13.8007 62.3598 13.7733 61.856 13.7538C61.5409 13.7415 61.2266 13.7646 60.9181 13.8267C60.7787 13.8548 60.6118 13.8764 60.566 14.0388C60.5181 14.2068 60.6648 14.2963 60.7729 14.3858C61.035 14.6022 61.3384 14.7508 61.6426 14.8987C62.3271 15.2306 63.0378 15.4982 63.7579 15.7413C63.9561 15.8077 64.0512 15.9123 64.1027 16.1035C64.2109 16.5075 64.3365 16.9064 64.4613 17.3278C63.7419 17.4042 63.0422 17.4533 62.3627 17.6221C62.0789 17.6921 61.6542 17.6979 61.6121 18.011C61.5765 18.2764 61.9576 18.4308 62.2001 18.5802C62.844 18.977 63.5873 19.0505 64.3067 19.1941C65.0138 19.3355 64.9891 19.3232 64.8475 20.018Z" fill="white"/>
<path d="M87.6898 21.8212C84.8986 21.8154 82.1075 21.8169 79.3163 21.8198C79.1798 21.8198 79.1065 21.7916 79.0557 21.6437C78.7457 20.7434 78.7421 20.7513 79.6713 20.5832C80.3827 20.4541 81.1071 20.3466 81.6915 19.864C81.8055 19.7695 81.9978 19.6944 81.9557 19.5134C81.9165 19.3481 81.7285 19.3128 81.5812 19.2659C80.9315 19.0603 80.2571 18.9939 79.5834 18.9413C79.3489 18.9232 79.3693 18.859 79.3976 18.6621C79.5145 17.8505 79.8963 17.3447 80.7529 17.1572C81.3344 17.0302 81.8773 16.7301 82.4007 16.4271C82.4835 16.3787 82.5699 16.3311 82.6425 16.2691C82.7659 16.1637 82.9641 16.0772 82.8987 15.8788C82.845 15.715 82.6541 15.702 82.5002 15.6782C81.8737 15.5823 81.2465 15.6494 80.6193 15.6818C80.5249 15.6862 80.4306 15.6818 80.3057 15.6818C80.5177 14.9784 80.7289 14.2931 80.9278 13.6041C80.9736 13.4461 81.0854 13.4548 81.2037 13.4317C81.7518 13.3264 82.281 13.1619 82.7666 12.8827C82.8653 12.8264 83.0134 12.7665 82.9655 12.6222C82.9292 12.5111 82.7877 12.5176 82.6809 12.5111C82.2933 12.4873 81.9071 12.5082 81.5253 12.5717C81.2893 12.6107 81.2654 12.5422 81.3293 12.3308C81.9623 10.23 82.5873 8.12699 83.2464 5.91797C83.6987 7.45173 84.1234 8.89171 84.5604 10.3721C84.2511 10.3721 83.9745 10.3634 83.7001 10.3764C83.5992 10.3815 83.457 10.4002 83.4417 10.5265C83.4301 10.6239 83.5404 10.683 83.6239 10.7321C83.9165 10.9045 84.2351 11.0178 84.5538 11.1289C84.6555 11.1642 84.7585 11.1808 84.7977 11.3114C85.0598 12.1793 85.3277 13.0457 85.6064 13.9533C85.1208 13.8739 84.6859 13.7708 84.2395 13.7888C84.0994 13.7946 83.9186 13.7671 83.8657 13.9345C83.8199 14.0802 83.968 14.1675 84.066 14.2491C84.572 14.6682 85.1636 14.9445 85.7538 15.2194C85.944 15.3081 86.0543 15.4192 86.1109 15.6263C86.2663 16.1904 86.447 16.7481 86.6249 17.3339C86.1175 17.2784 85.6427 17.2091 85.1651 17.181C84.9132 17.1665 84.54 17.0619 84.4442 17.3397C84.3419 17.6369 84.7063 17.7834 84.9204 17.937C85.5302 18.3742 86.198 18.7111 86.8971 18.9809C87.0554 19.0423 87.1541 19.1094 87.2027 19.2875C87.4118 20.0515 87.6368 20.8112 87.8662 21.5687C87.9214 21.7505 87.9105 21.8212 87.6898 21.8212Z" fill="white"/>
<path d="M64.163 23.6537C64.1187 23.7894 64.1819 24.0296 63.914 24.0209C59.6332 23.8824 55.4802 23.2757 51.8876 20.6944C50.5512 19.7342 49.4928 18.5236 48.8939 16.9769C47.9451 14.5276 48.3937 12.2551 49.8986 10.163C51.2466 8.28867 53.1173 7.07811 55.2102 6.17416C56.5096 5.6136 57.862 5.2197 59.3153 4.92969C59.189 5.35822 59.0641 5.73336 58.9712 6.11572C58.9218 6.31916 58.7628 6.32854 58.6213 6.37472C56.956 6.91723 55.3967 7.66391 54.0146 8.74678C52.8494 9.65939 51.892 10.7437 51.2873 12.1036C50.1766 14.599 50.6869 17.2481 52.6709 19.3143C54.1089 20.812 55.8983 21.734 57.8445 22.3847C59.6986 23.0044 61.6121 23.3284 63.559 23.477C63.6911 23.4871 63.8254 23.49 63.9554 23.5116C64.0432 23.526 64.224 23.4669 64.163 23.6537Z" fill="white"/>
<path d="M56.591 44.8262C56.17 43.9431 55.6611 43.1236 54.7951 42.5349C55.1043 42.4382 55.3773 42.3617 55.6277 42.2268C56.1482 41.9476 56.4821 41.5335 56.5823 40.947C56.795 39.6917 56.1213 38.7611 54.8502 38.5959C53.7933 38.4588 52.7276 38.5511 51.6656 38.5367C50.9056 38.5259 50.6428 38.7957 50.6421 39.5532C50.6399 41.3532 50.6399 43.1539 50.6442 44.9546C50.6442 45.1205 50.6617 45.2908 50.7009 45.4524C50.7793 45.7712 51.0007 45.9307 51.3288 45.9487C51.8478 45.9783 52.1229 45.6926 52.1331 45.0743C52.1447 44.3666 52.1411 43.6582 52.1309 42.9497C52.1288 42.7636 52.1854 42.7188 52.3734 42.703C53.1392 42.6395 53.7098 42.9208 54.1054 43.5759C54.4967 44.223 54.8938 44.8673 55.3032 45.5029C55.5878 45.9436 56.0313 46.0735 56.4233 45.8621C56.7827 45.6688 56.8429 45.3542 56.591 44.8262ZM52.2776 41.6446C52.1353 41.6497 52.1346 41.5566 52.1353 41.4549C52.1367 40.916 52.1404 40.3778 52.1324 39.8389C52.1302 39.673 52.2042 39.6376 52.3494 39.6405C52.6384 39.647 52.928 39.6427 53.2169 39.6427C53.2169 39.6383 53.2169 39.634 53.2176 39.6304C53.5537 39.647 53.892 39.6484 54.2267 39.6845C54.7522 39.7415 55.084 40.0827 55.1116 40.5632C55.1421 41.0877 54.9083 41.4109 54.3639 41.5487C53.6771 41.7233 52.9737 41.6201 52.2776 41.6446Z" fill="white"/>
<path d="M41.9366 45.0522C41.5381 44.0631 40.982 43.1772 40.0739 42.5416C40.3316 42.4456 40.5719 42.3749 40.7969 42.2703C41.263 42.0532 41.6085 41.7184 41.7762 41.2199C42.1994 39.9646 41.4945 38.793 40.177 38.6026C39.1324 38.4525 38.0783 38.5499 37.0286 38.5355C36.122 38.5232 35.9064 38.7512 35.9064 39.6667C35.9064 41.4075 35.9056 43.1476 35.9078 44.8884C35.9078 45.0558 35.9085 45.2268 35.9434 45.3891C36.0261 45.7729 36.2773 45.9561 36.6708 45.9482C37.1354 45.9388 37.3778 45.6712 37.3902 45.0991C37.4054 44.3913 37.3938 43.6829 37.3938 42.9744C37.3938 42.8453 37.3575 42.7198 37.5731 42.7039C38.2881 42.6512 38.8906 42.8237 39.2885 43.4657C39.5926 43.9549 39.8968 44.4447 40.2024 44.9331C40.336 45.1467 40.4688 45.3617 40.6111 45.5694C40.7526 45.7765 40.9465 45.9136 41.2034 45.9439C41.7798 46.0131 42.1515 45.5846 41.9366 45.0522ZM37.5375 41.6448C37.3931 41.6506 37.396 41.5489 37.396 41.4493C37.396 40.9104 37.4003 40.3715 37.3916 39.8326C37.3887 39.6652 37.4613 39.6335 37.6087 39.6378C37.8976 39.6465 38.1872 39.6407 38.4761 39.6407C38.4761 39.6364 38.4769 39.6321 38.4769 39.6277C38.8137 39.6458 39.152 39.6479 39.4866 39.684C40.0144 39.741 40.3389 40.0736 40.3773 40.5613C40.4165 41.0691 40.1632 41.4133 39.6253 41.5482C38.9371 41.7213 38.2337 41.6174 37.5375 41.6448Z" fill="white"/>
<path d="M108.615 44.9798C108.193 44.0391 107.673 43.1683 106.758 42.5421C106.952 42.475 107.126 42.4223 107.294 42.3567C107.886 42.1258 108.33 41.7521 108.503 41.1158C108.847 39.8547 108.147 38.7784 106.836 38.5987C105.767 38.453 104.688 38.5511 103.614 38.536C102.864 38.5251 102.609 38.787 102.608 39.5265C102.607 41.3517 102.608 43.1769 102.608 45.0022C102.608 45.1104 102.609 45.2193 102.626 45.3254C102.694 45.7496 102.946 45.9566 103.373 45.948C103.818 45.9386 104.067 45.681 104.079 45.1659C104.095 44.4337 104.085 43.7007 104.085 42.9684C104.085 42.835 104.062 42.7181 104.271 42.703C104.986 42.6532 105.59 42.8242 105.987 43.4677C106.295 43.9691 106.602 44.4705 106.918 44.9675C107.086 45.2301 107.22 45.5173 107.453 45.7337C107.734 45.9949 108.151 46.0244 108.453 45.8138C108.779 45.588 108.752 45.2828 108.615 44.9798ZM104.226 41.6432C104.088 41.6475 104.084 41.5523 104.085 41.4484C104.087 40.9095 104.092 40.3699 104.082 39.8309C104.078 39.6513 104.173 39.6398 104.306 39.6412C104.596 39.6441 104.885 39.6419 105.174 39.6419C105.174 39.6383 105.174 39.634 105.175 39.6304C105.512 39.647 105.851 39.6463 106.186 39.6838C106.705 39.7415 107.027 40.0669 107.06 40.5307C107.1 41.0898 106.879 41.4087 106.315 41.5501C105.627 41.7225 104.923 41.6208 104.226 41.6432Z" fill="white"/>
<path d="M79.4272 44.905C79.0084 43.9923 78.4951 43.1447 77.5783 42.5264C77.6828 42.5019 77.7293 42.4932 77.775 42.4802C78.4901 42.2753 79.0969 41.937 79.3329 41.173C79.7263 39.9018 79.0004 38.7685 77.6705 38.5968C76.6005 38.4582 75.5232 38.5513 74.4488 38.5369C73.7077 38.5268 73.4565 38.7894 73.455 39.5375C73.4521 40.7257 73.4536 41.9146 73.4543 43.1028C73.4543 43.7867 73.4449 44.4714 73.4587 45.1553C73.4703 45.7281 73.8064 46.0174 74.3363 45.9424C74.7029 45.8904 74.9178 45.6235 74.9258 45.1575C74.9381 44.4252 74.9345 43.6929 74.9287 42.9607C74.9272 42.7847 74.9664 42.7176 75.1653 42.701C75.9276 42.6397 76.5097 42.9044 76.9025 43.5645C77.031 43.781 77.1711 43.9916 77.3046 44.2052C77.5972 44.6734 77.8701 45.1553 78.1874 45.6069C78.4465 45.9748 78.8915 46.052 79.2472 45.8464C79.5797 45.6538 79.6465 45.3818 79.4272 44.905ZM77.182 41.5467C76.4945 41.7227 75.7904 41.6188 75.0935 41.6462C74.9338 41.652 74.9301 41.5496 74.9309 41.4327C74.9323 40.9061 74.9388 40.3787 74.928 39.852C74.9236 39.6623 75.0158 39.6356 75.1697 39.6392C75.4593 39.645 75.7482 39.6407 76.0379 39.6407C76.0379 39.6363 76.0379 39.6327 76.0386 39.6284C76.3747 39.6472 76.7137 39.6493 77.0477 39.6876C77.5616 39.746 77.8788 40.0764 77.9086 40.5468C77.942 41.0864 77.7184 41.4089 77.182 41.5467Z" fill="white"/>
<path d="M101.312 41.5737C101.172 40.0421 100.315 38.934 98.9691 38.5668C98.1619 38.3467 97.3452 38.3439 96.5365 38.5646C95.746 38.7796 95.1355 39.2428 94.7101 39.9418C94.255 40.6892 94.1315 41.5138 94.1628 42.3644C94.2361 44.3988 95.3126 45.6657 97.1587 45.9182C99.2058 46.1981 100.771 45.2133 101.215 43.3629C101.308 42.9754 101.341 42.5815 101.345 42.184C101.334 41.9806 101.331 41.7764 101.312 41.5737ZM99.433 43.844C99.0395 44.4883 98.4588 44.7877 97.7125 44.7776C96.959 44.7675 96.3754 44.4363 96.0407 43.7697C95.5319 42.7583 95.5173 41.7072 95.9776 40.6777C96.3333 39.8827 97.0069 39.5284 97.9194 39.5963C98.7789 39.6605 99.3437 40.1258 99.6464 40.9143C99.7938 41.3003 99.8308 41.7064 99.8366 42.1862C99.8308 42.7222 99.7582 43.3109 99.433 43.844Z" fill="white"/>
<path d="M85.9209 45.8125C84.4705 45.8276 83.0209 45.8276 81.5712 45.8096C81.1037 45.8038 80.8467 45.5116 80.8366 44.9951C80.8184 44.0471 80.8315 43.0977 80.8315 42.149H80.8271C80.8271 41.2847 80.8242 40.4197 80.8286 39.5555C80.8315 38.7886 81.0877 38.5339 81.847 38.5332C83.116 38.5332 84.3849 38.5332 85.6538 38.5332C85.9442 38.5339 86.2171 38.575 86.3311 38.8968C86.4872 39.3354 86.2128 39.6666 85.6763 39.6709C84.6854 39.6774 83.6938 39.6861 82.7036 39.6651C82.3908 39.6579 82.2768 39.725 82.3066 40.0533C82.34 40.4226 82.3283 40.7978 82.3087 41.1693C82.2964 41.4038 82.3654 41.4774 82.6071 41.4738C83.537 41.4615 84.4676 41.4694 85.3983 41.4716C85.6473 41.4716 85.8868 41.5019 86.0168 41.7566C86.2258 42.1642 85.9522 42.5638 85.4411 42.5703C84.5591 42.5804 83.6771 42.5732 82.7951 42.5739C82.4738 42.5744 82.3136 42.7317 82.3145 43.0458C82.3145 43.4902 82.3262 43.9346 82.3095 44.3782C82.3007 44.599 82.3617 44.6632 82.5889 44.6603C83.6517 44.6481 84.7152 44.6553 85.7787 44.656C86.0574 44.6567 86.318 44.7065 86.44 44.9965C86.612 45.4048 86.3739 45.8074 85.9209 45.8125Z" fill="white"/>
<path d="M92.2852 45.438C91.6755 45.8341 90.9938 45.9531 90.0929 45.9488C89.1877 45.9257 88.2266 45.6451 87.6437 44.6206C87.5173 44.3977 87.4331 44.1611 87.4099 43.9071C87.378 43.5544 87.5566 43.2831 87.8774 43.185C88.207 43.0847 88.4444 43.2261 88.6164 43.4902C88.7071 43.6301 88.7652 43.791 88.8385 43.9418C89.3075 44.9042 90.5147 45.1913 91.3807 44.547C91.9426 44.1293 91.9077 43.3711 91.3023 43.0155C90.9444 42.8048 90.5357 42.7319 90.1372 42.6367C89.5253 42.4895 88.9206 42.3236 88.3856 41.978C87.2553 41.2472 87.2335 39.5894 88.3885 38.9026C89.5224 38.2273 90.7347 38.2273 91.9273 38.7749C92.3883 38.9863 92.7251 39.3578 92.8711 39.8606C92.9502 40.1355 92.9509 40.4082 92.7491 40.6441C92.495 40.9413 92.103 40.963 91.8301 40.6766C91.7161 40.5575 91.6312 40.4068 91.5484 40.2617C91.0911 39.4617 90.2483 39.2077 89.4127 39.6247C89.1398 39.7611 88.9344 39.9551 88.9249 40.2841C88.9155 40.616 89.1144 40.8165 89.3852 40.9579C89.7517 41.1498 90.1546 41.2371 90.5524 41.3367C91.0562 41.4622 91.5535 41.6058 92.0304 41.8135C92.7585 42.1303 93.1876 42.6583 93.2318 43.4627C93.2783 44.2917 93.0024 44.9705 92.2852 45.438Z" fill="white"/>
<path d="M64.2809 45.1106C64.175 44.615 63.9419 44.1634 63.7525 43.6974C63.1289 42.1629 62.4973 40.6327 61.8723 39.0997C61.6887 38.6509 61.3656 38.4121 60.7733 38.4085C60.4016 38.3977 60.096 38.6495 59.9123 39.0499C59.7127 39.4856 59.5385 39.9329 59.3628 40.3795C58.761 41.9089 58.1549 43.4369 57.5698 44.9736C57.4006 45.4187 57.5777 45.7621 57.977 45.9085C58.3509 46.0456 58.6826 45.8855 58.867 45.454C59.0274 45.0796 59.1755 44.698 59.304 44.312C59.3657 44.1273 59.4623 44.0797 59.6452 44.0819C60.4785 44.0905 61.3126 44.0898 62.146 44.0819C62.3188 44.0797 62.4008 44.1331 62.461 44.2969C62.6149 44.7124 62.7841 45.1236 62.9634 45.5291C63.0774 45.7881 63.2748 45.9511 63.5812 45.9504C64.0457 45.9482 64.3775 45.563 64.2809 45.1106ZM61.7068 42.9839C61.1529 42.9702 60.5983 42.9781 60.0444 42.981C59.8993 42.9817 59.7686 42.9911 59.8477 42.7761C60.1802 41.8692 60.5076 40.961 60.8669 39.9719C61.2241 40.9458 61.5442 41.8353 61.8789 42.7184C61.9544 42.9175 61.95 42.9904 61.7068 42.9839Z" fill="white"/>
<path d="M49.4208 44.6993C49.243 44.2535 49.0644 43.8076 48.8829 43.364C48.2971 41.9312 47.7185 40.4955 47.1175 39.0693C46.8721 38.4885 46.311 38.2577 45.7469 38.4705C45.3491 38.6213 45.1843 38.9784 45.0406 39.3384C44.5731 40.5085 44.11 41.6794 43.6476 42.8517C43.3703 43.5544 43.0842 44.2549 42.8294 44.9655C42.669 45.4135 42.8396 45.7591 43.236 45.9056C43.6091 46.0441 43.9408 45.8839 44.1238 45.4539C44.2835 45.0788 44.4323 44.6979 44.5629 44.3119C44.6247 44.1301 44.7176 44.0775 44.9027 44.0796C45.6518 44.089 46.4017 44.1056 47.1494 44.0746C47.5182 44.0587 47.7106 44.1532 47.8165 44.5233C47.9283 44.9122 48.0742 45.2988 48.2949 45.6458C48.4742 45.9279 48.7414 46.0131 49.0492 45.9149C49.362 45.8161 49.5609 45.6047 49.5638 45.3205C49.5551 45.0593 49.4927 44.8782 49.4208 44.6993ZM47.0289 42.9823C46.3814 42.9751 45.7331 42.9794 45.0413 42.9794C45.4007 41.9824 45.7477 41.02 46.1273 39.966C46.4932 40.963 46.822 41.8706 47.161 42.7745C47.2191 42.9282 47.214 42.9845 47.0289 42.9823Z" fill="white"/>
<path d="M95.2316 30.4243C95.2316 31.5519 95.2316 32.6802 95.2309 33.8078C95.2309 34.1317 95.1975 34.442 94.8382 34.5826C94.5064 34.7125 94.1333 34.6108 93.8872 34.2544C93.2724 33.3663 92.6844 32.4587 92.0869 31.5584C91.8684 31.2287 91.6528 30.8961 91.4329 30.5607C91.3109 30.6241 91.3704 30.7316 91.3697 30.8124C91.3654 31.8441 91.3719 32.8765 91.3646 33.9081C91.3617 34.385 91.1868 34.605 90.8318 34.6259C90.4572 34.6476 90.2365 34.4275 90.2293 33.9838C90.2184 33.2646 90.2242 32.5439 90.2242 31.8239C90.2242 30.9841 90.2199 30.1444 90.2271 29.3039C90.2315 28.8566 90.4217 28.5738 90.7534 28.4988C91.1207 28.4158 91.3755 28.5702 91.5759 28.8747C92.3613 30.0686 93.1555 31.2568 93.9489 32.4458C93.9852 32.4999 93.991 32.5893 94.1253 32.5944C94.1253 31.4257 94.1202 30.275 94.1275 29.1243C94.1304 28.6712 94.3104 28.4764 94.6778 28.4779C95.0197 28.4793 95.2106 28.6647 95.2251 29.0565C95.2418 29.5117 95.2316 29.9684 95.2316 30.4243Z" fill="white"/>
<path d="M83.0422 33.7533C82.7053 33.0146 82.2756 32.3415 81.578 31.8459C81.7631 31.7795 81.9242 31.7311 82.0789 31.6648C82.6756 31.4079 83.0175 30.9671 83.0443 30.3085C83.0865 29.2877 82.4607 28.6434 81.3319 28.5936C80.5602 28.5597 79.7857 28.5763 79.0118 28.5763C78.373 28.5763 78.1748 28.779 78.1748 29.4255C78.1734 30.8185 78.1734 32.2123 78.1756 33.6054C78.1756 33.7973 78.1698 33.9928 78.2046 34.1797C78.2467 34.4069 78.3897 34.5729 78.6329 34.6147C78.8703 34.6551 79.0968 34.6263 79.2514 34.4149C79.3704 34.2526 79.3871 34.0578 79.3871 33.8637C79.3886 33.3233 79.3958 32.7823 79.385 32.2419C79.3813 32.0428 79.4372 31.9815 79.6477 31.9714C80.2234 31.9447 80.6568 32.1553 80.9595 32.6409C81.3094 33.2014 81.6506 33.7678 82.0172 34.3182C82.2349 34.645 82.6044 34.72 82.9057 34.5426C83.175 34.3831 83.2244 34.1516 83.0422 33.7533ZM79.5526 31.115C79.4249 31.1194 79.3879 31.0566 79.3893 30.9405C79.3922 30.5213 79.3944 30.1014 79.3879 29.6823C79.385 29.5221 79.4532 29.4731 79.6042 29.4781C79.8329 29.4853 80.0622 29.4803 80.2909 29.4803V29.5012C80.5196 29.5012 80.7497 29.4875 80.9776 29.5041C81.4981 29.543 81.7856 29.7977 81.8154 30.2255C81.8473 30.693 81.6194 30.9621 81.0684 31.0667C80.5675 31.1612 80.0579 31.0985 79.5526 31.115Z" fill="white"/>
<path d="M59.4948 33.312C59.4948 33.6135 59.37 33.8444 59.1043 33.9951C58.1127 34.5593 57.0594 34.783 55.9327 34.5225C54.7829 34.257 53.9989 33.374 53.8334 32.1786C53.7753 31.7609 53.7738 31.3388 53.8319 30.9204C54.0068 29.6593 54.8177 28.7972 56.0743 28.5541C56.7472 28.4235 57.4223 28.4242 58.0764 28.6609C58.57 28.8391 58.9664 29.1457 59.211 29.6153C59.4085 29.9941 59.3359 30.3339 59.0433 30.5063C58.7421 30.6838 58.4306 30.5958 58.1983 30.212C57.7795 29.5215 57.1697 29.2965 56.4053 29.4465C55.6518 29.5951 55.2562 30.1124 55.095 30.8223C54.9738 31.3569 54.9868 31.8972 55.1386 32.426C55.3701 33.2362 55.9712 33.677 56.8242 33.6849C57.2292 33.6885 57.6096 33.5839 57.9893 33.4555C58.292 33.3538 58.4219 33.1972 58.3994 32.856C58.3646 32.3106 58.3922 32.3106 57.8412 32.3092C57.6002 32.3084 57.3577 32.3301 57.1196 32.268C56.8735 32.2046 56.7508 32.0502 56.7719 31.7955C56.7915 31.5524 56.9454 31.4232 57.1733 31.4088C57.4623 31.3901 57.7533 31.4038 58.043 31.4038C58.3087 31.403 58.5751 31.3908 58.8401 31.4059C59.3076 31.4333 59.4869 31.6231 59.4948 32.0877C59.5014 32.4953 59.4948 32.9036 59.4948 33.312Z" fill="white"/>
<path d="M65.5922 33.7207C65.5922 33.8166 65.5951 33.9133 65.5864 34.0085C65.5523 34.4017 65.32 34.634 64.973 34.6282C64.6398 34.6224 64.4097 34.4031 64.3966 34.0172C64.3763 33.4292 64.3756 32.8405 64.3908 32.2525C64.3981 31.9871 64.3516 31.8716 64.0431 31.8839C63.3796 31.9113 62.7139 31.9019 62.0497 31.8868C61.8254 31.8817 61.7601 31.9467 61.7666 32.1681C61.7818 32.6962 61.7746 33.225 61.7702 33.7531C61.7688 33.8967 61.763 34.0439 61.7267 34.1809C61.6519 34.4702 61.4537 34.6268 61.1481 34.6261C60.836 34.6261 60.6596 34.4507 60.5812 34.1658C60.5623 34.0972 60.5579 34.0229 60.5579 33.9515C60.5565 32.3543 60.5507 30.7577 60.5594 29.1605C60.5623 28.6548 60.8846 28.3878 61.3172 28.4968C61.6606 28.5841 61.7572 28.8524 61.7651 29.1576C61.7782 29.6374 61.7869 30.1185 61.7651 30.5976C61.7535 30.8595 61.8414 30.9172 62.0896 30.9107C62.7539 30.8934 63.4188 30.8963 64.083 30.91C64.3117 30.9143 64.4024 30.8667 64.3915 30.6163C64.3705 30.1366 64.3785 29.6554 64.3901 29.1756C64.4017 28.7103 64.6144 28.4758 64.9926 28.4795C65.3744 28.4838 65.5842 28.7182 65.5893 29.1821C65.5973 29.9627 65.5915 30.7433 65.5915 31.5232H65.5922V33.7207Z" fill="white"/>
<path d="M70.0156 39.1791C70.0018 39.5268 69.8014 39.7288 69.3993 39.7447C68.9173 39.7642 68.4331 39.7685 67.9511 39.7483C67.6868 39.7368 67.6331 39.8313 67.6375 40.0737C67.6513 40.9012 67.6425 41.7294 67.6425 42.5576H67.6404C67.6404 43.4096 67.6527 44.2616 67.636 45.1129C67.6251 45.7074 67.3442 45.9801 66.8346 45.9476C66.4266 45.9216 66.1907 45.6734 66.1609 45.2016C66.1413 44.8914 66.1537 44.5783 66.1537 44.2659C66.1537 42.862 66.1486 41.4588 66.1587 40.0549C66.1602 39.827 66.1108 39.7382 65.8633 39.749C65.4176 39.7692 64.9697 39.7599 64.5232 39.7527C64.0253 39.744 63.7908 39.5463 63.7872 39.151C63.7835 38.7527 64.0231 38.537 64.508 38.5349C66.1021 38.5298 67.6955 38.5298 69.2897 38.5363C69.7971 38.5385 70.0323 38.7585 70.0156 39.1791Z" fill="white"/>
<path d="M115 39.1349C115.007 39.5144 114.771 39.7373 114.313 39.7496C113.843 39.7626 113.371 39.7655 112.901 39.7496C112.68 39.7416 112.612 39.8001 112.615 40.0266C112.629 40.8779 112.621 41.7299 112.62 42.5819C112.62 43.4217 112.63 44.2621 112.617 45.1019C112.607 45.705 112.311 45.9921 111.787 45.946C111.475 45.9193 111.264 45.7577 111.189 45.4583C111.145 45.2859 111.131 45.1033 111.131 44.9244C111.126 43.3171 111.121 41.709 111.135 40.1016C111.138 39.8152 111.059 39.733 110.776 39.7481C110.342 39.7719 109.906 39.7611 109.472 39.7517C108.996 39.7409 108.777 39.5476 108.772 39.1587C108.766 38.7453 108.986 38.5376 109.479 38.5354C111.084 38.5296 112.69 38.5296 114.295 38.5369C114.76 38.539 114.993 38.7518 115 39.1349Z" fill="white"/>
<path d="M77.2173 34.0933C77.2021 34.3227 77.0772 34.4785 76.8369 34.5009C76.6329 34.5204 76.4275 34.5233 76.2221 34.5233C75.2805 34.5247 74.3383 34.5276 73.396 34.5204C72.8153 34.5153 72.6091 34.3068 72.6062 33.7369C72.6019 33.0047 72.6055 32.2724 72.6048 31.5402C72.6048 30.8079 72.6011 30.0756 72.6062 29.3441C72.6099 28.7965 72.8255 28.5787 73.3772 28.5758C74.4276 28.5707 75.478 28.5715 76.5291 28.5758C76.9429 28.5772 77.1208 28.728 77.1157 29.0454C77.1106 29.3571 76.9284 29.5021 76.5139 29.5043C75.7168 29.5093 74.9197 29.5137 74.1227 29.5021C73.8962 29.4985 73.7975 29.5461 73.8149 29.7943C73.8374 30.1045 73.8309 30.4183 73.8163 30.73C73.8069 30.9248 73.8795 30.9717 74.0653 30.9695C74.8261 30.9608 75.5869 30.9601 76.3476 30.9688C76.7433 30.9731 76.9436 31.1939 76.8718 31.5243C76.8072 31.8222 76.5741 31.8749 76.3179 31.8763C75.5934 31.8792 74.8682 31.8872 74.1437 31.872C73.9027 31.8677 73.7982 31.9139 73.8149 32.1801C73.8381 32.5509 73.8359 32.9253 73.8149 33.2961C73.8018 33.5284 73.8882 33.5739 74.1024 33.571C74.9118 33.5587 75.7212 33.5645 76.5299 33.5674C76.6496 33.5674 76.7723 33.5731 76.8877 33.602C77.1389 33.6655 77.2333 33.8531 77.2173 34.0933Z" fill="white"/>
<path d="M89.2594 33.7889C88.6155 32.1736 87.9542 30.5656 87.2922 28.9575C87.1543 28.6235 86.8813 28.4684 86.5046 28.4799C86.0639 28.4561 85.8338 28.7403 85.6799 29.1003C85.4549 29.6299 85.2487 30.1681 85.0382 30.7041C84.6346 31.73 84.2244 32.7544 83.8346 33.786C83.6865 34.1771 83.8143 34.4563 84.1431 34.5868C84.4603 34.7124 84.7311 34.5717 84.8995 34.1763C85.0171 33.9008 85.1267 33.6208 85.2175 33.3359C85.2748 33.1562 85.3685 33.1007 85.555 33.1036C86.1946 33.1151 86.8348 33.1158 87.4744 33.1036C87.6718 33.1 87.7785 33.1476 87.8424 33.3481C87.9368 33.6439 88.0595 33.9325 88.1909 34.2153C88.3644 34.5868 88.6257 34.708 88.9379 34.5876C89.2682 34.4599 89.4119 34.172 89.2594 33.7889ZM85.6327 32.1845C85.9216 31.3837 86.2018 30.6067 86.5111 29.7482C86.8254 30.6045 87.1107 31.3837 87.4047 32.1845H85.6327Z" fill="white"/>
<path d="M53.2823 33.7805C53.1451 33.3845 52.9767 32.9985 52.8192 32.6097C52.3502 31.4539 51.8798 30.2989 51.4102 29.1439C51.2497 28.7493 51.0131 28.4535 50.5405 28.4802C50.1187 28.4629 49.8814 28.7046 49.734 29.0451C49.5249 29.5291 49.3326 30.0212 49.1395 30.5117C48.7046 31.6163 48.2654 32.7193 47.8466 33.8296C47.7101 34.1925 47.8524 34.4681 48.1747 34.5914C48.4702 34.7054 48.7402 34.5799 48.8934 34.2336C49.0248 33.9385 49.1395 33.6348 49.2469 33.3297C49.3013 33.1745 49.3703 33.101 49.5525 33.1046C50.2167 33.1168 50.881 33.1154 51.5444 33.1053C51.7194 33.1024 51.8007 33.1637 51.8566 33.3232C51.9604 33.6161 52.0744 33.9075 52.205 34.1903C52.3894 34.59 52.6435 34.7126 52.9687 34.5842C53.299 34.4536 53.4202 34.1788 53.2823 33.7805ZM49.8182 32.1963C49.6135 32.1963 49.6962 32.0772 49.7311 31.9813C49.9895 31.2628 50.2479 30.5442 50.534 29.7499C50.8447 30.594 51.1321 31.3731 51.4348 32.197C50.8701 32.197 50.3438 32.197 49.8182 32.1963Z" fill="white"/>
<path d="M71.6287 29.3501C71.0552 30.9156 70.4738 32.479 69.8836 34.0387C69.7522 34.3871 69.4952 34.6122 69.0938 34.6267C68.6727 34.6418 68.4063 34.4203 68.2655 34.0524C67.8169 32.8757 67.3791 31.694 66.94 30.5138C66.789 30.109 66.6358 29.705 66.5037 29.2945C66.3774 28.9035 66.5131 28.6135 66.8441 28.5053C67.1788 28.3956 67.4728 28.5327 67.6078 28.9165C68.0709 30.2288 68.5167 31.5469 68.9696 32.8628C69.0038 32.9623 69.0393 33.0619 69.0989 33.2307C69.3624 32.4559 69.6048 31.7438 69.8466 31.031C70.0781 30.35 70.3046 29.6661 70.5427 28.9872C70.6959 28.5486 70.9746 28.387 71.3311 28.5075C71.6519 28.6164 71.7811 28.9338 71.6287 29.3501Z" fill="white"/>
<path d="M69.8595 4.99738C69.779 5.17053 69.9271 5.52908 69.4973 5.47209C66.8462 5.11931 64.2031 5.20371 61.5702 5.65677C61.3793 5.68996 61.2973 5.64884 61.237 5.45838C60.9815 4.65398 60.9742 4.65038 61.8236 4.55298C62.8674 4.43322 63.9164 4.39643 64.9131 4.37695C66.5254 4.38489 68.0752 4.50248 69.6084 4.79178C69.7151 4.81126 69.9779 4.7456 69.8595 4.99738Z" fill="white"/>
<path d="M68.5639 50.0891C68.4471 49.991 68.3048 49.908 68.1603 49.8568C66.9756 49.4376 65.9905 50.1316 65.9942 51.3776C65.9971 52.2173 66.3956 52.7829 67.0997 52.9452C67.8728 53.1234 68.5654 52.8558 68.8819 52.2563C69.2427 51.5716 69.0968 50.5357 68.5639 50.0891ZM67.5839 52.4893C67.0112 52.5246 66.6373 52.0687 66.6431 51.3415C66.6489 50.6229 67.0453 50.1987 67.6442 50.2687C68.1552 50.3286 68.4427 50.7528 68.4245 51.4201C68.4064 52.0572 68.0921 52.4575 67.5839 52.4893Z" fill="white"/>
<path d="M64.0269 50.1959V52.4641C64.0269 52.7087 64.0436 52.9965 63.6966 52.99C63.3467 52.9828 63.391 52.6856 63.3881 52.4482C63.3852 52.2203 63.3794 51.9916 63.3903 51.7643C63.3975 51.6085 63.3445 51.5522 63.1855 51.5566C62.8596 51.5652 62.5337 51.5659 62.2077 51.5566C62.0458 51.5515 61.9994 51.6128 62.0045 51.7658C62.0139 52.0536 62.0081 52.3422 62.0059 52.63C62.0045 52.8356 61.9203 52.99 61.6952 52.9951C61.4687 53.0009 61.3722 52.8472 61.3707 52.643C61.3657 51.8033 61.3664 50.9628 61.3707 50.1231C61.3715 49.9225 61.4513 49.7645 61.6843 49.7638C61.9391 49.7631 62.0059 49.9326 62.0066 50.149C62.0074 50.377 62.0139 50.6057 62.0052 50.833C61.9987 50.9866 62.0517 51.0479 62.2114 51.0436C62.5366 51.0357 62.8632 51.0364 63.1892 51.0443C63.3511 51.0487 63.3975 50.9823 63.3903 50.8308C63.3801 50.6151 63.3881 50.3987 63.3874 50.1829C63.3859 49.9586 63.4316 49.758 63.7118 49.7638C63.9906 49.7696 64.0262 49.9773 64.0269 50.1967V50.1959Z" fill="white"/>
<path d="M77.4763 52.6925C77.4749 52.875 77.3493 52.9385 77.186 52.9392C76.5943 52.9406 76.0034 52.9442 75.4125 52.9363C75.1577 52.9327 75.0561 52.774 75.0575 52.5323C75.0597 52.137 75.0583 51.7416 75.0583 51.3463C75.0583 50.9747 75.0634 50.6025 75.0568 50.2309C75.051 49.9438 75.1875 49.8118 75.4713 49.8125C76.0143 49.8139 76.5573 49.8132 77.0996 49.8125C77.2716 49.8125 77.4306 49.8493 77.4277 50.0563C77.4248 50.2591 77.268 50.2973 77.0945 50.2966C76.7206 50.2944 76.3461 50.3088 75.9737 50.2908C75.7443 50.28 75.6891 50.3608 75.6927 50.5787C75.7014 51.0678 75.6891 51.0685 76.1929 51.0692C76.4702 51.0692 76.7475 51.0678 77.0248 51.07C77.1736 51.0707 77.2927 51.1255 77.3021 51.2886C77.3123 51.4725 77.1881 51.5447 77.0255 51.5476C76.6756 51.554 76.325 51.5641 75.9766 51.5461C75.7508 51.5346 75.692 51.6089 75.6927 51.8289C75.6949 52.4385 75.684 52.4385 76.288 52.4385C76.59 52.4385 76.8912 52.4385 77.1925 52.4407C77.3602 52.4421 77.4785 52.5121 77.4763 52.6925Z" fill="white"/>
<path d="M73.2479 50.0771C73.2435 50.2553 73.1238 50.3195 72.9612 50.3361C72.7252 50.3599 72.3884 50.2214 72.2788 50.3981C72.159 50.5915 72.2338 50.906 72.2316 51.1679C72.228 51.6354 72.2294 52.1029 72.2316 52.5704C72.2323 52.7969 72.1786 52.9974 71.9071 52.9931C71.6364 52.9881 71.5899 52.7846 71.5921 52.5595C71.595 52.2363 71.5928 51.9124 71.5928 51.5892C71.5928 51.266 71.5812 50.9406 71.5971 50.6182C71.6073 50.4061 71.5572 50.3029 71.3213 50.3325C71.179 50.3512 71.0324 50.3375 70.8879 50.3361C70.7057 50.3339 70.5772 50.2589 70.5801 50.0634C70.5823 49.8845 70.7079 49.8152 70.8719 49.8145C71.571 49.8123 72.2708 49.8109 72.9706 49.8159C73.1347 49.8166 73.2523 49.8967 73.2479 50.0771Z" fill="white"/>
<path d="M81.6503 52.6806C81.6518 52.8769 81.5117 52.9411 81.3324 52.9411C80.8133 52.9411 80.295 52.9447 79.7767 52.9396C79.5277 52.9374 79.4043 52.8018 79.4058 52.5522C79.4072 52.1446 79.4058 51.7377 79.4058 51.3301C79.405 50.9586 79.4065 50.587 79.4043 50.2155C79.4036 49.9846 79.421 49.7559 79.7288 49.7639C80.0315 49.7718 80.0431 50.0092 80.0439 50.2328C80.046 50.8323 80.062 51.4318 80.0373 52.0306C80.025 52.3351 80.0852 52.4692 80.425 52.431C80.7226 52.3971 81.0268 52.4252 81.328 52.4245C81.5066 52.4238 81.6489 52.4844 81.6503 52.6806Z" fill="white"/>
<path d="M80.3177 11.3359C79.9649 10.8186 79.6078 10.3049 79.1737 9.85042C77.8176 8.43064 76.1705 7.4495 74.3535 6.74177C73.9862 6.59893 73.8657 6.37601 73.8359 6.02539C76.519 6.9784 79.398 9.14053 80.3177 11.3359Z" fill="white"/>
</g>
</g>
<defs>
<filter id="filter0_d_407_777" x="-4" y="0" width="150" height="62" filterUnits="userSpaceOnUse" color-interpolation-filters="sRGB">
<feFlood flood-opacity="0" result="BackgroundImageFix"/>
<feColorMatrix in="SourceAlpha" type="matrix" values="0 0 0 0 0 0 0 0 0 0 0 0 0 0 0 0 0 0 127 0" result="hardAlpha"/>
<feOffset dy="4"/>
<feGaussianBlur stdDeviation="2"/>
<feComposite in2="hardAlpha" operator="out"/>
<feColorMatrix type="matrix" values="0 0 0 0 0 0 0 0 0 0 0 0 0 0 0 0 0 0 0.25 0"/>
<feBlend mode="normal" in2="BackgroundImageFix" result="effect1_dropShadow_407_777"/>
<feBlend mode="normal" in="SourceGraphic" in2="effect1_dropShadow_407_777" result="shape"/>
</filter>
<clipPath id="clip0_407_777">
<rect width="87" height="53" fill="white" transform="translate(28)"/>
</clipPath>
</defs>
</svg>
