<svg width="67" height="54" viewBox="0 0 67 54" fill="none" xmlns="http://www.w3.org/2000/svg">
<g clip-path="url(#clip0_527_184)">
<path d="M45.2364 29.6401C45.2364 29.6401 45.2364 29.6376 45.2364 29.6364C45.2464 29.1836 45.1168 28.7507 44.9923 28.3265C44.945 28.1677 45.0272 27.9345 44.8055 27.8353C44.4704 26.6544 43.981 25.5405 43.3956 24.4613C43.0432 23.8125 42.5412 23.2556 42.256 22.5684C42.2884 22.4369 42.1875 22.355 42.1352 22.2558C42.1066 22.2012 42.0779 22.1466 42.0518 22.0908C41.7118 21.39 41.2746 20.7449 40.5037 20.5006C39.9781 20.3331 39.6505 19.9411 39.2258 19.6633C39.0789 19.5665 39.0565 19.4611 39.176 19.3085C39.379 19.0505 39.5609 18.7751 39.7527 18.5084C40.8997 16.907 42.0468 15.3069 43.1951 13.7054C43.9797 12.6114 44.7656 11.5173 45.5515 10.422C45.6536 10.3761 45.6922 10.293 45.6922 10.1876C45.9824 9.89234 46.1867 9.53137 46.427 9.20017C47.5068 7.71165 48.568 6.20948 49.6428 4.71723C50.1871 3.9618 50.3689 3.11831 50.1509 2.23387C49.7873 0.75279 48.2006 -0.295381 46.6363 0.0717891C45.7034 0.291347 45.0247 0.802407 44.59 1.61241C43.5525 3.54874 42.5487 5.50491 41.5337 7.45488C40.556 9.33166 39.582 11.2109 38.6044 13.0889C37.8334 14.5676 37.0538 16.0412 36.2866 17.5223C36.1869 17.7133 36.0886 17.779 35.8806 17.6873C34.7323 17.1812 33.5453 16.8165 32.3074 16.5857C31.514 16.4369 30.7169 16.3501 29.9173 16.3017C28.7068 16.2297 27.5099 16.3736 26.3155 16.5919C25.3939 16.7606 24.5009 17.0075 23.6278 17.3312C22.1171 17.8907 20.7259 18.6635 19.4456 19.6447C17.9486 20.7933 16.6944 22.1541 15.6843 23.7431C15.5772 23.82 15.5187 23.9267 15.4975 24.0544C14.876 25.0294 14.404 26.0788 14.0354 27.1692C13.7713 27.9494 13.5447 28.7458 13.4475 29.5694C13.4475 29.5731 13.4463 29.5756 13.445 29.5793C13.445 29.5756 13.445 29.5731 13.4463 29.5694C13.369 29.6178 13.3242 29.7009 13.3304 29.7778C13.3666 30.2343 13.1648 30.6635 13.1909 31.1212C13.2146 31.5417 13.2159 31.9659 13.1909 32.3864C13.1474 33.1195 13.2682 33.839 13.3217 34.5647C13.3292 34.6701 13.3553 34.7668 13.4475 34.8338C13.4338 35.1266 13.5372 35.402 13.6019 35.6773C13.8124 36.5791 14.0889 37.4648 14.4538 38.3195C15.0404 39.6926 15.8002 40.9628 16.7417 42.1226C17.5562 43.1262 18.4779 44.0205 19.5129 44.8008C20.7483 45.7323 22.0872 46.4716 23.5319 47.0273C24.182 47.2779 24.8546 47.4528 25.5197 47.6575C25.5197 47.6575 25.5197 47.6575 25.5209 47.6575C25.7003 47.7232 25.8846 47.7716 26.0776 47.779C26.3043 47.7356 26.4961 47.8721 26.7116 47.8932C27.2048 47.9391 27.7017 47.9738 28.1899 48.042C29.4914 48.2231 30.7742 48.0395 32.0496 47.8646C32.874 47.7518 33.6848 47.5148 34.4832 47.2469C36.0437 46.7234 37.4909 45.9866 38.8211 45.0278C40.2035 44.0317 41.3967 42.8421 42.3993 41.464C43.4865 39.9692 44.2861 38.3381 44.803 36.5667C44.9724 36.4352 44.9387 36.2504 44.93 36.073C44.925 36.0916 44.92 36.1102 44.9151 36.1289C44.9188 36.1102 44.9225 36.0916 44.9288 36.073C45.0745 35.5297 45.1803 34.9814 45.2526 34.4232C45.3971 33.3106 45.5166 32.2016 45.3771 31.0753C45.3186 30.599 45.2725 30.1177 45.2351 29.6376L45.2364 29.6401ZM22.5306 39.6058C22.3737 39.4309 22.2354 39.2386 22.0399 39.1009C21.6102 38.3381 21.3063 37.538 21.4022 36.6474C21.4969 35.7803 21.8244 34.9864 22.3002 34.2608C22.746 33.5798 23.2417 32.9384 23.8894 32.4274C24.1235 32.2413 24.3701 32.0776 24.6304 31.9374C24.9829 31.7476 24.9891 31.7588 25.0177 32.1731C24.9679 32.353 25.0775 32.513 25.0813 32.6879C25.1024 34.1181 25.2855 35.5421 25.2133 36.9761C25.1946 37.3693 25.0962 37.7402 25.0177 38.1185C24.9468 38.4274 24.7711 38.6792 24.5918 38.931C24.3788 39.0749 24.2505 39.2957 24.0849 39.4818C24.0264 39.5277 23.9678 39.5723 23.9093 39.6182C23.578 39.8278 23.2056 39.7819 22.8407 39.7919C22.7373 39.7298 22.634 39.6678 22.5306 39.6058ZM43.1366 32.807C43.1141 33.5252 42.9859 34.2297 42.8377 34.9343C42.6035 36.042 42.2249 37.0914 41.723 38.1011C40.8636 39.8316 39.673 41.2953 38.1822 42.5258C37.0065 43.4946 35.7037 44.2438 34.2777 44.7772C33.5578 45.0464 32.8205 45.2448 32.0657 45.3999C31.1391 45.5897 30.2038 45.6976 29.2672 45.6839C28.373 45.6715 27.48 45.5723 26.5932 45.3912C25.3391 45.1357 24.1509 44.7139 22.8955 44.0925C24.334 43.6881 25.3042 42.8235 26.0166 41.6513C26.1685 41.6699 26.1063 41.4541 26.2433 41.4479C26.3118 41.5471 26.3703 41.6513 26.3828 41.7766C26.394 41.8919 26.3616 42.0271 26.5148 42.0842C26.6742 42.7156 26.8311 43.3482 26.9943 43.9796C27.0428 44.1644 27.1537 44.2364 27.3418 44.1322C27.4837 44.0528 27.6519 44.0168 27.7565 43.8791C27.8661 43.8928 27.9707 43.8779 28.0654 43.8158C29.2523 43.2849 30.4355 42.7429 31.6298 42.2293C31.8578 42.1313 31.8827 42.0259 31.8042 41.8398C31.4455 41.005 31.1441 40.1491 30.8813 39.282C30.5974 38.3455 30.357 37.3978 30.1552 36.439C30.0008 35.7071 29.8987 34.9678 29.7604 34.2347C29.6957 33.8948 29.662 33.5438 29.6247 33.1965C29.4702 31.7985 29.5562 30.3943 29.4964 28.9951C29.4391 27.6083 29.2348 26.2401 28.4228 25.0468C28.1999 24.7193 27.9172 24.4489 27.622 24.1909C26.9569 23.691 26.1997 23.3895 25.4001 23.1861C24.9966 23.0819 24.5806 23.0249 24.1783 22.9145C23.507 22.7296 22.832 22.8264 22.1582 22.8599C22.1146 22.8611 22.0723 22.912 22.0299 22.9405C21.6974 22.948 21.3835 23.0273 21.0896 23.1849C20.4108 23.3722 19.823 23.7245 19.2949 24.1822C18.9761 24.3608 18.727 24.6064 18.5526 24.9277C18.4069 25.1125 18.2487 25.2899 18.1179 25.4859C17.4616 26.472 17.0045 27.545 16.7367 28.6974C16.5325 28.876 16.5973 28.9752 16.8351 29.0025C17.0195 29.0249 17.21 29.0447 17.3894 29.0422C17.9087 29.0348 18.3957 29.2916 18.92 29.1998C19.1579 29.3114 19.417 29.2891 19.6673 29.3201C19.6934 29.3511 19.7196 29.4094 19.7445 29.4094C20.2452 29.4131 20.7234 29.6054 21.2266 29.5694C21.3711 29.5595 21.4196 29.4578 21.4072 29.3325C21.3599 28.8562 21.5168 28.4071 21.589 27.9469C21.6314 27.5289 21.8456 27.1766 22.0336 26.8169C22.3014 26.3071 22.5953 25.8158 23.0151 25.4077C23.2878 25.1423 23.5892 24.9426 23.9765 25.053C24.3651 25.1634 24.4834 25.5405 24.547 25.8692C24.7039 26.6742 24.8372 27.483 24.6865 28.3153C24.5719 28.948 24.263 29.4665 23.8645 29.9403C23.0462 30.914 22.0038 31.5715 20.8268 32.0366C20.3137 32.2401 19.8454 32.5365 19.3597 32.7933C19.1691 32.8342 19.006 32.9124 18.9213 33.1022C18.1204 33.6753 17.6086 34.4704 17.1876 35.335C16.997 35.4962 17.0157 35.7468 16.9236 35.9502C16.7778 36.2727 16.8214 36.625 16.748 36.9599C16.7156 37.1088 16.6707 37.1299 16.5512 37.0666C16.2934 36.5853 16.1476 36.0606 16.0156 35.5396C15.7254 34.4046 15.5486 33.2448 15.5561 32.0714C15.561 31.177 15.6881 30.2938 15.8587 29.4131C16.2386 27.4495 17.0506 25.6782 18.2388 24.0854C19.7644 22.0375 21.7285 20.5266 24.1061 19.5653C24.9891 19.208 25.9033 18.9649 26.8423 18.7751C28.1364 18.5134 29.4428 18.496 30.7344 18.6089C33.0708 18.8148 35.2217 19.6199 37.1771 20.9211C37.2194 20.9484 37.2518 20.9918 37.3066 21.0451C36.9791 21.3081 36.6216 21.5264 36.319 21.813C35.705 22.3922 35.2379 23.0782 34.807 23.7939C34.7783 23.8435 34.7833 23.9341 34.6986 23.913C34.6575 23.9031 34.609 23.8473 34.5978 23.8039C34.472 23.3102 34.3524 22.8152 34.2316 22.3203C34.1681 21.9556 33.9937 21.6108 34.0398 21.2262C34.0498 21.1431 34.0834 21.024 33.9763 20.9806C33.8592 20.9347 33.7334 20.9347 33.6624 21.0761C33.6114 21.0848 33.5578 21.0848 33.5092 21.1022C32.2775 21.5537 31.1379 22.1702 30.1191 23.0013C30.0282 23.0745 30.007 23.1501 30.0257 23.2692C30.0855 23.6538 30.1104 24.0445 30.1453 24.4303C30.2088 25.1373 30.3333 25.8345 30.4105 26.539C30.4417 26.8293 30.4828 27.1282 30.5351 27.4197C30.6397 28.004 30.7294 28.5907 30.8278 29.1762C30.9174 29.7096 31.0233 30.2417 31.1005 30.7776C31.1802 31.3234 31.3534 31.8531 31.372 32.4075C31.316 32.6184 31.3845 32.8355 31.4455 33.0116C31.5414 33.2907 31.4667 33.6095 31.6597 33.8576C31.6971 34.0623 31.6049 34.298 31.8055 34.4642C31.8864 34.8562 31.9674 35.2494 32.0483 35.6426C32.0408 35.8597 32.1318 36.0581 32.1704 36.2665C32.2351 36.5332 32.3049 36.7987 32.3634 37.0666C32.488 37.6335 32.5976 38.2029 32.7283 38.7685C32.8915 39.4718 33.0733 40.1702 33.2427 40.8723C33.3971 41.5136 33.5416 42.1574 33.6985 42.7987C33.7234 42.8954 33.7807 43.0096 33.9165 42.8892C34.1021 42.8843 34.2328 42.7751 34.3611 42.661C34.4657 42.6151 34.5704 42.5692 34.675 42.5233C34.8605 42.4216 35.0797 42.3794 35.2304 42.2157C36.3887 41.6724 37.5769 41.1985 38.7962 40.814C39.034 40.7396 39.0042 40.644 38.9469 40.5002C38.7501 40.0077 38.5359 39.5227 38.3466 39.0278C38.024 38.1905 37.7151 37.3494 37.4013 36.5084C37.258 36.0929 37.1148 35.6786 36.9716 35.263C36.6503 34.2632 36.3414 33.2622 36.0886 32.2413C35.9403 31.6471 35.7884 31.0493 35.6962 30.4489C35.5356 29.3895 35.4795 28.3203 35.6265 27.2461C35.7112 26.6259 35.7872 26.0081 35.9976 25.4177C36.1533 24.9823 36.3389 24.5568 36.7574 24.2938C37.2331 23.9949 37.689 24.083 37.9704 24.5692C38.3378 25.2043 38.5122 25.9052 38.6455 26.6259C38.765 27.2808 38.7463 27.932 38.7202 28.6465C39.0527 28.4133 39.3504 28.2074 39.6468 27.9978C40.3181 27.519 40.9931 27.0464 41.6545 26.5551C41.8363 26.4199 41.9061 26.4572 41.9883 26.6432C42.3469 27.4569 42.6135 28.2967 42.8227 29.1613C43.1141 30.3645 43.1752 31.5814 43.1366 32.807ZM44.9088 36.1599C44.9088 36.1599 44.9088 36.1611 44.9088 36.1623V36.1599Z" fill="white"/>
<path d="M66.54 33.6502C65.1301 33.6626 63.719 33.6688 62.3092 33.6688C62.0999 33.6688 62.0426 33.7519 62.0439 33.9454C62.0451 34.2642 62.0514 34.5818 62.0015 34.9018C61.8932 35.5915 61.882 36.2911 61.7338 36.9783C61.6267 37.472 61.5183 37.9607 61.2829 38.4073C61.0239 38.8997 60.644 38.9705 60.1832 38.6442C59.4745 38.1406 59.1569 37.3988 59.0909 36.5888C59.0199 35.718 59.0274 34.8348 59.1108 33.9603C59.2391 32.6157 59.3313 31.2711 59.3114 29.919C59.3089 29.7639 59.3151 29.6089 59.3238 29.4551C59.4123 27.9405 59.4235 26.4234 59.4048 24.9076C59.401 24.6297 59.3936 24.3506 59.3799 24.0728C59.3724 23.9301 59.426 23.8458 59.5567 23.7838C60.7287 23.2343 61.8907 22.6599 63.1013 22.196C63.2844 22.1253 63.3715 22.0385 63.3666 21.84C63.3578 21.479 63.3641 21.1168 63.3666 20.7559C63.3703 20.0314 63.3703 20.0302 62.6816 20.2411C61.75 20.5264 60.8184 20.8104 59.9191 21.1913C59.3475 21.4331 59.3375 21.4145 59.3674 20.808C59.4185 19.7685 59.4297 18.7265 59.548 17.692C59.6389 16.8981 59.7273 16.103 59.8469 15.3116C59.9627 14.5425 60.101 13.7759 60.2255 13.0081C60.2367 12.9411 60.309 12.8741 60.2342 12.8108C60.1682 12.7563 60.1022 12.8009 60.035 12.8319C59.6725 13.0019 59.3076 13.1693 58.9427 13.3343C57.3398 14.0587 55.7394 14.7869 54.1328 15.5038C53.9559 15.5832 53.8986 15.6949 53.9173 15.8636C54.0593 17.1797 54.012 18.502 54.0282 19.8218C54.0431 21.0474 54.1216 22.2717 54.2162 23.4935C54.2337 23.7205 54.1477 23.8321 53.9671 23.9252C53.0891 24.3804 52.2347 24.8778 51.4015 25.41C51.2795 25.4435 51.1624 25.4832 51.0926 25.601C51.0353 25.6878 50.8672 25.673 50.8934 25.8379C51.0341 26.7124 51.1711 27.5894 51.3156 28.5098C52.3431 27.7904 53.3332 27.0771 54.4628 26.4768C54.4118 27.056 54.5936 27.5708 54.5811 28.1079C54.5674 28.7567 54.682 29.3992 54.7256 30.0467C54.7717 30.7228 54.8439 31.4013 54.8801 32.0773C54.9199 32.8179 55.0058 33.5547 55.0445 34.2952C55.0731 34.8472 55.0893 35.4067 55.1541 35.9574C55.2549 36.8171 55.3048 37.6804 55.3334 38.5437C55.3434 38.8377 55.4031 39.1243 55.4878 39.3897C55.7618 40.2481 56.3223 40.9155 57.0247 41.4712C57.782 42.0703 58.6301 42.5231 59.4969 42.9349C60.3326 43.3331 61.1696 43.699 62.1622 43.4125C63.0614 43.1532 63.8112 42.724 64.3654 41.9773C64.8661 41.3025 65.1538 40.5272 65.4091 39.7333C65.7503 38.6727 66.058 37.6022 66.3282 36.5218C66.5425 35.6659 66.6433 34.7877 66.7604 33.9132C66.7841 33.7346 66.7529 33.644 66.5437 33.6465L66.54 33.6502Z" fill="white"/>
<path d="M13.2436 38.7531C13.2436 38.7122 13.2436 38.67 13.2361 38.6291C13.058 37.5896 13.1091 36.534 13.0319 35.4858C12.9509 34.3682 12.8824 33.248 12.8276 32.1279C12.7591 30.7287 12.7106 29.3295 12.5798 27.934C12.5499 27.6152 12.5599 27.6127 12.2722 27.7703C10.612 28.6832 8.95054 29.595 7.28662 30.503C7.1409 30.5823 7.06368 30.6828 7.08735 30.8466C7.13965 31.2013 7.19445 31.5573 7.2505 31.9121C7.34017 32.4777 7.43981 33.0421 7.52201 33.609C7.61044 34.2168 7.67022 34.8296 7.76736 35.4362C7.88692 36.1842 8.00524 36.9321 8.08869 37.6851C8.13477 38.2842 8.21697 38.8809 8.31287 39.4701C8.38511 39.9092 8.31536 40.3744 8.52086 40.7912C8.52584 41.007 8.51214 41.2265 8.53954 41.4399C8.68401 42.5935 8.78489 43.7521 8.826 44.9119C8.85962 45.8645 8.92065 46.8209 8.73632 47.7761C8.60431 48.4533 8.41251 49.0884 7.98656 49.6367C7.75615 49.9319 7.38999 49.9679 7.15211 49.7124C7.02881 49.5809 6.91547 49.4358 6.83826 49.2596C6.37495 48.2015 6.23297 47.069 6.10967 45.9427C6.02996 45.2195 5.91787 44.4901 5.98014 43.7546C6.00007 43.5139 5.93281 43.4618 5.70116 43.5933C4.89037 44.0498 4.14185 44.5931 3.39458 45.1451C2.23756 46.001 1.1864 46.9772 0.0978761 47.91C-0.0079872 48.0006 -0.0254235 48.08 0.02564 48.2251C0.279712 48.952 0.593565 49.6541 0.919874 50.35C1.30472 51.1724 1.707 51.9799 2.39698 52.61C3.95255 54.0316 5.84439 54.4198 7.81593 53.5044C9.44498 52.749 10.5746 51.4738 11.5361 50.0213C12.6246 48.3764 13.1128 46.5294 13.2249 44.5943C13.2884 43.4953 13.3893 42.3901 13.3084 41.2873C13.2461 40.4426 13.2498 39.5978 13.2424 38.7519L13.2436 38.7531Z" fill="white"/>
<path d="M50.7492 23.9387C50.8725 22.7008 50.8326 21.4492 51.0332 20.2174C51.0618 20.0425 50.9846 20.0289 50.8414 20.0958C50.5449 20.236 50.2435 20.3687 49.9434 20.5015C48.338 21.2135 46.7326 21.9255 45.1247 22.6338C44.9392 22.7156 44.857 22.8186 44.8869 23.0344C44.9417 23.4314 44.9566 23.832 45.0039 24.2302C45.0836 24.9025 45.1596 25.5749 45.2655 26.2435C45.3825 26.9803 45.5357 27.7121 45.6665 28.4477C45.8234 29.3334 45.9617 30.224 46.1273 31.1085C46.2905 31.973 46.5109 32.8265 46.6479 33.6948C46.7936 34.6139 46.9991 35.5219 47.1262 36.4448C47.166 36.7326 47.171 37.0402 47.2931 37.3181C47.308 37.6108 47.2233 37.9172 47.4189 38.1839C47.4213 38.2559 47.4226 38.3278 47.4251 38.401C47.445 38.8426 47.4961 38.8724 47.8909 38.6615C48.7353 38.2112 49.5735 37.7485 50.4254 37.3144C50.6533 37.199 50.7305 37.0737 50.7293 36.8207C50.7206 32.7644 50.7218 28.7094 50.723 24.6532C50.723 24.4163 50.7243 24.1781 50.7479 23.9424L50.7492 23.9387Z" fill="white"/>
<path d="M48.3232 13.3676C47.9209 13.4284 47.5198 13.5214 47.1288 13.6579C45.4549 14.2434 43.7038 16.5593 44.1372 18.5105C44.2717 19.1208 44.6167 19.6256 45.1971 19.9184C45.8746 20.2607 46.5646 20.0623 47.2197 19.8675C48.3294 19.5375 49.2697 18.9111 50.017 18.023C50.4417 17.5181 50.8278 16.9822 50.9648 16.3149C51.0358 16.2839 51.0868 16.2318 51.0868 16.1536C51.0906 15.8286 51.0893 15.5024 51.0868 15.1774C51.0868 15.0993 51.0382 15.0459 50.9673 15.0137C50.7032 13.7757 49.4154 13.2026 48.3232 13.3676Z" fill="white"/>
<path d="M6.55409 26.3499C7.26026 26.8734 8.01127 26.6935 8.73363 26.3995C9.40493 26.1267 9.98656 25.6999 10.5644 25.2633C11.4612 24.5873 12.0864 23.7574 12.2246 22.6274C12.2906 22.0903 12.0216 21.1674 11.4338 20.8622C10.9269 20.5993 10.4225 20.4132 9.81842 20.4516C9.46969 20.4169 9.10353 20.4715 8.75231 20.6005C7.28268 21.1438 6.36479 22.2552 5.71715 23.6073C5.22271 24.6394 5.71341 25.7272 6.55409 26.3499Z" fill="white"/>
<path d="M23.896 50.7491C23.8587 50.2417 23.698 50.0544 23.3306 50.0805C23.0491 50.1003 22.8673 50.2653 22.7988 50.5208C22.6755 50.9835 22.5684 51.4524 22.4787 51.9225C22.4027 52.3158 22.607 52.6321 22.947 52.704C23.3269 52.7846 23.6868 52.58 23.7802 52.2413C23.8711 51.9126 23.9371 51.5839 23.8973 51.3011C23.8973 51.0766 23.9073 50.9116 23.8948 50.7478L23.896 50.7491Z" fill="white"/>
<path d="M42.5765 46.4436C42.4968 46.2675 42.4569 46.0703 42.3013 45.9313C42.1095 45.7602 41.8915 45.7589 41.6623 45.8123C41.4419 45.8644 41.4593 46.0653 41.4531 46.2142C41.4257 46.8728 41.5403 47.5042 41.889 48.0773C42.0048 48.2671 42.1817 48.3638 42.3959 48.3366C42.9128 48.3366 43.1781 47.9173 42.985 47.4025C42.863 47.0775 42.7197 46.76 42.5765 46.4436Z" fill="white"/>
<path d="M44.1524 44.6056C43.7389 44.5238 43.3092 44.5622 42.9082 44.4208C42.7824 44.3762 42.6865 44.427 42.603 44.5138C42.3452 44.7818 42.4013 45.3375 42.7325 45.5149C43.1585 45.7419 43.6405 45.8163 44.0154 45.9267C44.4973 45.9292 44.7913 45.6426 44.795 45.2581C44.7975 44.9095 44.5135 44.6776 44.1536 44.6056H44.1524Z" fill="white"/>
<path d="M22.0038 49.0165C21.5953 49.148 21.188 49.2832 20.7832 49.4234C20.3884 49.5586 20.1854 49.9072 20.3099 50.2222C20.4606 50.6055 20.8592 50.7829 21.2453 50.6105C21.5828 50.4604 21.9029 50.2719 22.2342 50.1094C22.4671 49.9952 22.5082 49.7695 22.5792 49.5933C22.5904 49.21 22.2915 48.9235 22.0038 49.0153V49.0165Z" fill="white"/>
<path d="M21.268 15.5398C21.2605 15.8102 21.3913 15.9901 21.608 16.1216C21.9206 16.3114 22.3279 16.1849 22.3441 15.8723C22.3678 15.4096 22.3503 14.9469 22.4773 14.5524C22.4686 14.2026 22.3466 14.0004 22.08 13.8528C21.8459 13.7238 21.6591 13.7759 21.4822 13.9211C21.2655 14.0984 21.1173 14.3292 21.1945 14.6194C21.2755 14.9246 21.278 15.231 21.2693 15.5398H21.268Z" fill="white"/>
</g>
<defs>
<clipPath id="clip0_527_184">
<rect width="66.7636" height="54" fill="white"/>
</clipPath>
</defs>
</svg>
