<svg width="142" height="40" viewBox="0 0 142 40" fill="none" xmlns="http://www.w3.org/2000/svg">
<g clip-path="url(#clip0_524_40)">
<path fill-rule="evenodd" clip-rule="evenodd" d="M20.8298 0C23.5661 0.000388821 26.2756 0.514548 28.8034 1.51312C31.3313 2.51168 33.628 3.9751 35.5624 5.81979C37.4968 7.66449 39.0311 9.85433 40.0776 12.2643C41.1241 14.6742 41.6623 17.257 41.6615 19.8652C41.6797 23.2583 40.7718 26.5975 39.0268 29.555L34.1894 26.0931C35.9386 24.3162 36.9856 22.1722 36.9856 19.8741C36.9856 13.7973 29.7559 8.85169 20.8298 8.85169C11.9038 8.85169 4.70511 13.7973 4.70511 19.8741C4.70511 25.9509 11.9348 30.9202 20.8298 30.9202C24.1648 30.9559 27.4588 30.217 30.427 28.7673L35.5595 33.9438C33.1336 36.2486 30.1492 37.948 26.8702 38.8916C23.5912 39.8351 20.1188 39.9938 16.7601 39.3537C13.4015 38.7135 10.2601 37.2941 7.61396 35.2211C4.96783 33.1482 2.89849 30.4855 1.58903 27.4687C0.279572 24.4519 -0.229643 21.174 0.106428 17.9249C0.4425 14.6759 1.6135 11.5559 3.51583 8.84094C5.41817 6.12599 7.99319 3.89979 11.0131 2.35931C14.033 0.818826 17.4047 0.0115463 20.8298 0.00888391V0ZM20.8298 12.4824C21.1405 12.4824 21.4512 12.4824 21.7619 12.5061L20.8298 19.7882L26.1519 13.7114C28.7058 14.9937 30.399 17.2236 30.399 19.7112C30.399 23.7358 26.1271 26.9637 20.8298 26.9637C15.5326 26.9637 11.2886 23.7358 11.2886 19.7112C11.2886 15.6867 15.5637 12.4824 20.8298 12.4824Z" fill="white"/>
<path fill-rule="evenodd" clip-rule="evenodd" d="M55.288 15.711C56.5759 15.708 57.8396 16.044 58.9399 16.6821C60.0401 17.3201 60.9342 18.2353 61.5235 19.3269C61.8223 19.9391 62.0817 20.568 62.3002 21.2103L65.258 28.7442H61.4427L60.666 26.7215C60.0086 27.4704 59.1855 28.0712 58.2556 28.4808C57.3258 28.8904 56.3123 29.0987 55.288 29.0907C53.4266 29.0907 51.6414 28.3858 50.3252 27.1312C49.009 25.8767 48.2695 24.1751 48.2695 22.4008C48.2695 20.6265 49.009 18.925 50.3252 17.6704C51.6414 16.4158 53.4266 15.711 55.288 15.711ZM55.288 18.8145C55.7897 18.8008 56.2893 18.8831 56.757 19.0566C57.2248 19.2301 57.6513 19.4913 58.0113 19.8247C58.3714 20.1581 58.6575 20.557 58.853 20.9977C59.0484 21.4384 59.1491 21.912 59.1491 22.3904C59.1491 22.8689 59.0484 23.3425 58.853 23.7832C58.6575 24.2239 58.3714 24.6228 58.0113 24.9562C57.6513 25.2896 57.2248 25.5508 56.757 25.7243C56.2893 25.8978 55.7897 25.9801 55.288 25.9664C54.3117 25.9396 53.3848 25.5511 52.7042 24.8834C52.0236 24.2157 51.6428 23.3214 51.6428 22.3904C51.6428 21.4595 52.0236 20.5652 52.7042 19.8975C53.3848 19.2298 54.3117 18.8413 55.288 18.8145Z" fill="white"/>
<path fill-rule="evenodd" clip-rule="evenodd" d="M139.971 29.0664H142.013L139.325 22.2551C139.192 21.8998 139.083 21.5385 138.949 21.1801C138.385 19.9001 137.376 18.8437 136.092 18.1877C134.809 17.5317 133.327 17.3159 131.897 17.5763C130.466 17.8368 129.172 18.5578 128.232 19.6186C127.293 20.6794 126.764 22.0157 126.734 23.4039C126.704 24.7921 127.175 26.1479 128.069 27.2445C128.962 28.341 130.224 29.1118 131.642 29.4279C133.061 29.7439 134.55 29.586 135.861 28.9806C137.172 28.3751 138.225 27.3589 138.844 26.102L139.971 29.0664ZM133.046 19.4033C133.9 19.405 134.734 19.6481 135.442 20.1017C136.151 20.5552 136.703 21.199 137.028 21.9515C137.352 22.7039 137.436 23.5313 137.267 24.329C137.099 25.1266 136.686 25.8587 136.081 26.4326C135.475 27.0065 134.705 27.3965 133.868 27.5531C133.03 27.7098 132.162 27.6261 131.375 27.3127C130.587 26.9993 129.914 26.4702 129.442 25.7924C128.97 25.1146 128.719 24.3185 128.721 23.5048C128.725 22.4147 129.183 21.3705 129.994 20.6016C130.805 19.8327 131.902 19.4017 133.046 19.4033Z" fill="white"/>
<path fill-rule="evenodd" clip-rule="evenodd" d="M117.807 17.6094C118.853 17.6085 119.883 17.853 120.807 18.3214C121.731 18.7899 122.519 19.4678 123.103 20.2953C123.687 21.1229 124.048 22.0747 124.154 23.0667C124.261 24.0588 124.11 25.0606 123.714 25.9839C123.319 26.9071 122.691 27.7233 121.886 28.3606C121.081 28.9978 120.124 29.4365 119.1 29.6379C118.075 29.8392 117.014 29.7972 116.011 29.5153C115.007 29.2335 114.092 28.7205 113.345 28.0217V36.4292H111.438V23.6951C111.437 22.8975 111.601 22.1076 111.921 21.3705C112.24 20.6334 112.709 19.9637 113.301 19.3995C113.893 18.8354 114.595 18.388 115.368 18.0828C116.141 17.7777 116.97 17.6208 117.807 17.6212V17.6094ZM117.807 19.558C118.66 19.5551 119.496 19.7935 120.207 20.2432C120.919 20.6929 121.474 21.3336 121.803 22.0843C122.133 22.8349 122.221 23.6619 122.057 24.4604C121.894 25.259 121.485 25.9933 120.883 26.5706C120.282 27.1478 119.514 27.542 118.677 27.7032C117.841 27.8645 116.973 27.7856 116.183 27.4765C115.393 27.1674 114.717 26.642 114.241 25.9668C113.765 25.2916 113.509 24.4969 113.507 23.6833C113.506 22.5935 113.958 21.5478 114.764 20.7748C115.569 20.0017 116.663 19.5643 117.807 19.558Z" fill="white"/>
<path d="M79.4525 10.8145H77.5449V29.0894H79.4525V10.8145Z" fill="white"/>
<path fill-rule="evenodd" clip-rule="evenodd" d="M67.5996 22.6313C67.5971 20.866 68.3276 19.1715 69.6316 17.918C70.9356 16.6646 72.7071 15.9539 74.559 15.9414V19.045C73.5724 19.0567 72.6309 19.4407 71.9408 20.113C71.2506 20.7852 70.8682 21.6908 70.8774 22.6313V29.0901H67.5996V22.6313Z" fill="white"/>
<path fill-rule="evenodd" clip-rule="evenodd" d="M102.972 17.4277C104.233 17.4271 105.466 17.783 106.515 18.4504C107.563 19.1178 108.381 20.0667 108.864 21.177C109.347 22.2874 109.474 23.5093 109.228 24.6883C108.982 25.8673 108.376 26.9503 107.484 27.8005C106.593 28.6507 105.457 29.2297 104.22 29.4644C102.983 29.6991 101.701 29.579 100.536 29.1191C99.3708 28.6593 98.3749 27.8804 97.6743 26.881C96.9736 25.8816 96.5996 24.7066 96.5996 23.5046C96.607 21.8956 97.2806 20.3544 98.4739 19.2164C99.6673 18.0784 101.284 17.4355 102.972 17.4277ZM102.972 19.403C103.826 19.4042 104.66 19.6467 105.369 20.0999C106.078 20.5532 106.63 21.1967 106.956 21.9491C107.281 22.7015 107.365 23.529 107.196 24.3269C107.028 25.1248 106.615 25.8571 106.01 26.4313C105.405 27.0055 104.635 27.3958 103.798 27.5527C102.96 27.7096 102.092 27.6261 101.304 27.3127C100.516 26.9994 99.8434 26.4703 99.371 25.7925C98.8985 25.1146 98.6477 24.3184 98.6501 23.5046C98.6518 22.9644 98.765 22.4298 98.9834 21.9313C99.2018 21.4329 99.521 20.9803 99.9229 20.5994C100.325 20.2185 100.801 19.9169 101.326 19.7116C101.85 19.5063 102.411 19.4014 102.978 19.403H102.972Z" fill="white"/>
<path fill-rule="evenodd" clip-rule="evenodd" d="M88.1054 17.2734C89.3668 17.2723 90.6001 17.6277 91.6494 18.2949C92.6987 18.962 93.5168 19.9109 94.0002 21.0214C94.4836 22.1318 94.6105 23.354 94.365 24.5333C94.1195 25.7125 93.5125 26.7959 92.6208 27.6462C91.7291 28.4965 90.5929 29.0757 89.3558 29.3103C88.1187 29.5449 86.8365 29.4245 85.6712 28.9643C84.506 28.504 83.5101 27.7247 82.8097 26.7249C82.1093 25.725 81.7357 24.5496 81.7363 23.3473C81.7359 22.5498 81.9004 21.7601 82.2203 21.0232C82.5402 20.2863 83.0092 19.6167 83.6007 19.0526C84.1922 18.4886 84.8944 18.0411 85.6674 17.7358C86.4403 17.4306 87.2688 17.2734 88.1054 17.2734ZM88.1054 19.2221C88.9624 19.2209 89.8005 19.4621 90.5136 19.9151C91.2267 20.3681 91.7828 21.0126 92.1115 21.7671C92.4401 22.5215 92.5266 23.3518 92.36 24.1531C92.1933 24.9544 91.781 25.6905 91.1752 26.2683C90.5695 26.8461 89.7975 27.2397 88.957 27.3991C88.1165 27.5585 87.2452 27.4767 86.4535 27.164C85.6618 26.8512 84.9853 26.3217 84.5095 25.6423C84.0337 24.9629 83.78 24.1642 83.7807 23.3473C83.777 22.8048 83.8862 22.2671 84.1022 21.7652C84.3182 21.2633 84.6366 20.8072 85.0389 20.4235C85.4412 20.0398 85.9194 19.736 86.4458 19.5297C86.9722 19.3235 87.5363 19.2189 88.1054 19.2221Z" fill="white"/>
</g>
<defs>
<clipPath id="clip0_524_40">
<rect width="142" height="39.7571" fill="white"/>
</clipPath>
</defs>
</svg>
