<svg width="142" height="62" viewBox="0 0 142 62" fill="none" xmlns="http://www.w3.org/2000/svg">
<g filter="url(#filter0_d_406_68)">
<path d="M95.5318 47.8438L97.7502 41.9839L99.9685 47.8438H95.5318ZM97.7502 33.4453L89.4627 53.578H93.146L94.2343 50.8992H101.266L102.354 53.578H106.038L97.7502 33.4453ZM62.926 47.8438L65.1444 41.9839L67.3627 47.8438H62.926ZM65.1025 33.4453L56.8569 53.578H60.5402L61.6285 50.8992H68.6603L69.7485 53.578H73.4319L65.1025 33.4453ZM30.0691 47.8438L32.2875 41.9839L34.5058 47.8438H30.0691ZM32.2875 33.4453L24 53.578H27.6833L28.7716 50.8992H35.8034L36.8916 53.578H40.5749L32.2875 33.4453ZM117.506 39.0122V42.2351H112.442V53.578H108.758V42.2351H103.694V39.0122H117.506ZM81.8868 46.6718H78.4546V42.1932H81.8868C83.8958 42.1932 84.6911 42.821 84.6911 44.4116C84.6911 46.3369 83.6866 46.6718 81.8868 46.6718ZM86.742 48.9739C87.9977 48.2205 88.8348 46.8392 88.8348 44.4116C88.8348 43.1559 88.5418 41.7746 87.621 40.7282C86.6583 39.6818 85.0678 38.9284 82.4309 38.9284H74.3945V53.578H78.4546V49.9366L82.4309 49.8947H82.5146L84.6074 53.578H88.7093L86.1561 49.2669C86.3653 49.1831 86.5746 49.0994 86.742 48.9739ZM49.281 46.6718H45.8488V42.1932H49.281C51.2901 42.1932 52.0853 42.821 52.0853 44.4116C52.0853 46.3369 51.0808 46.6718 49.281 46.6718ZM54.1363 48.9739C55.3919 48.2205 56.2291 46.8392 56.2291 44.4116C56.2291 43.1559 55.9361 41.7746 55.0152 40.7282C54.0526 39.6818 52.462 38.9284 49.8251 38.9284H41.7888V53.578H45.8488V49.9366L49.8251 49.8947H49.9088L52.0016 53.578H56.1035L53.5503 49.2669C53.7596 49.1831 53.927 49.0994 54.1363 48.9739Z" fill="white"/>
<path d="M71.5487 8.03634C71.6324 8.03634 71.6742 7.95263 71.7161 7.95263C71.9254 7.91077 72.1765 8.07819 72.1765 8.28747C72.0091 8.32933 71.8835 8.37119 71.7161 8.28747C71.6742 8.24562 71.5905 8.20376 71.5068 8.16191C71.465 8.12005 71.3394 8.0782 71.3394 7.99448C71.4231 7.99448 71.5068 8.03634 71.5487 8.03634ZM79.3757 18.4166C80.6314 17.8306 82.6824 16.2401 82.8498 14.1892C82.8498 13.938 82.8079 13.1009 82.7242 13.352C82.3894 14.1892 81.8871 14.6914 81.2174 15.2356C80.757 15.6123 80.2547 15.9471 80.1291 15.989C80.0036 16.0727 79.9617 15.989 80.0036 15.9053C81.7615 14.1473 83.0591 11.9289 81.8452 9.79429C81.7197 9.62686 81.4685 9.25016 81.3848 9.29202C81.343 9.33387 81.4267 9.91986 81.3011 10.5477C80.8825 13.1009 78.8735 14.7751 79.3339 14.0636C81.2592 11.1337 81.1755 7.49221 77.6596 5.10642C76.5714 4.35302 76.0273 4.2693 75.6087 3.68332C75.4413 3.47404 75.4413 3.26476 75.3994 3.18105C75.2739 3.05548 75.2739 3.93446 75.6087 4.52044C76.3202 5.73426 77.1574 6.86437 77.3666 8.58047C77.5759 10.464 76.1528 13.1428 73.8089 13.7287C73.8089 13.7287 73.767 13.7287 73.6833 13.7706C73.5159 13.8125 73.1392 13.8543 73.0973 13.7287C72.9299 13.352 72.2184 12.9335 71.7998 12.5149C71.3394 12.0545 70.9627 11.7615 70.7953 11.2174C70.6697 10.8825 70.6278 10.4221 70.7116 10.0873C70.8371 9.54315 71.2975 9.16645 71.7998 8.99903C71.8417 8.99903 71.8835 8.95717 71.9254 8.95717C72.5114 8.8316 72.9718 8.87346 73.1392 8.87346C73.2648 8.87346 73.4322 8.91531 73.5159 8.95717C73.6833 9.04088 73.6833 9.16645 73.6833 8.95717C73.6415 8.53861 73.474 8.49675 73.2229 8.37119C73.1392 8.32933 73.0555 8.28747 73.0555 8.24562C72.8462 8.12005 72.9718 7.91077 72.7206 7.95263C72.5532 8.0782 72.6369 7.86892 72.4695 7.74335C71.7161 7.11551 70.6697 7.91077 69.4977 7.7852C68.9955 7.74335 68.6606 7.65964 68.4095 7.36664C68.3676 7.32479 68.3258 7.19922 68.2839 7.19922C68.2839 7.19922 68.2421 7.28293 68.2421 7.36664C68.2839 7.74335 68.6606 8.20376 69.4977 8.28747C69.707 8.28747 69.707 8.37119 69.5396 8.53861C69.1629 8.78975 68.7443 9.29202 68.6188 9.45944C67.1119 11.9289 69.4977 13.7706 68.7862 13.7706C68.7025 13.7706 68.6606 13.7287 68.6606 13.7287C66.3585 13.1428 64.8936 10.464 65.1029 8.58047C65.3121 6.86437 66.1493 5.73426 66.8608 4.52044C67.1119 3.93446 67.1119 3.05548 66.9864 3.18105C66.9027 3.26476 66.9027 3.43219 66.7771 3.68332C66.3585 4.2693 65.8144 4.35302 64.7262 5.10642C61.2521 7.49221 61.1265 11.1337 63.0519 14.0636C63.5542 14.7751 61.5032 13.1009 61.0847 10.5477C60.9591 9.91986 61.0847 9.33387 61.001 9.29202C60.9173 9.25016 60.6243 9.62686 60.5406 9.79429C59.3267 11.9289 60.6243 14.1473 62.3822 15.9053C62.4659 15.989 62.3822 16.0308 62.2567 15.989C62.1311 15.9053 61.6288 15.5704 61.1684 15.2356C60.4987 14.7333 59.9964 14.1892 59.6616 13.352C59.5779 13.1428 59.536 13.9799 59.536 14.1892C59.7034 16.2401 61.7125 17.8306 63.0101 18.4166C63.6379 18.7096 61.2521 18.2492 59.9964 16.9517C59.9127 16.9098 59.9127 16.9098 59.9127 16.9517C59.9546 17.5376 60.122 17.9981 60.5824 18.5422C60.7498 18.7515 60.9591 18.9189 61.1684 19.0863C62.6334 20.1746 64.5587 20.1327 64.5587 20.1327C64.5587 20.1746 64.2657 20.2583 64.0565 20.3001C63.7635 20.342 63.0938 20.342 62.8426 20.342C62.1729 20.3001 61.7962 20.1746 61.7544 20.1746C61.6707 20.1746 61.7544 20.2583 61.7962 20.3001C62.4659 20.9698 63.4286 21.3884 64.3076 21.5558C65.5214 21.7651 67.0282 21.221 68.0328 20.4257C68.7862 19.8397 69.5396 17.9562 69.2047 18.2492C67.6561 20.2164 64.9354 19.9653 65.0191 19.7141C66.0655 19.4212 68.0328 18.0818 66.7771 18.4585C63.889 19.2956 61.5032 16.9935 62.8845 17.4539C64.7262 18.0818 67.0701 16.9098 66.1074 16.9098C63.3031 16.9098 62.1311 14.9844 62.8426 15.3611C64.3076 16.1564 66.9027 15.4867 66.233 15.3611C65.8563 15.2774 65.1866 15.0681 64.0983 13.8962C61.9637 11.5104 63.5542 7.99448 63.7216 8.32933C63.6798 9.20831 63.5123 12.2638 66.2748 13.7287C66.9864 14.1055 67.8235 14.4403 68.3676 14.6914C68.7025 14.8589 68.9955 14.9844 69.0792 15.11C69.121 15.1937 69.1629 15.2774 69.0792 15.2774C68.4932 15.403 68.0746 15.4448 67.8235 15.8215C67.6561 16.1564 68.8699 15.696 69.0792 16.0727C69.1629 16.1982 68.1165 16.3238 67.7816 17.1191C67.6561 17.4539 68.4095 16.9517 69.2466 16.8679C69.7489 16.8261 68.6188 17.4121 68.4513 17.9981C68.3676 18.3748 69.9163 17.4958 70.0837 17.5795C70.1256 17.6213 69.8326 18.4166 69.5396 19.1282C69.2466 19.756 68.9536 20.342 68.9536 20.342H73.3066C73.3066 20.342 73.0136 19.756 72.7206 19.1282C72.4276 18.4166 72.1347 17.6213 72.1765 17.5795C72.3439 17.4539 73.9345 18.3748 73.8089 17.9981C73.6415 17.4121 72.5532 16.8261 73.0136 16.8679C73.8507 16.9098 74.6042 17.4539 74.4786 17.1191C74.1437 16.3238 73.1392 16.1982 73.1811 16.0727C73.3485 15.7378 74.5623 16.1564 74.4367 15.8215C74.1856 15.4448 73.767 15.403 73.1811 15.2774C73.0973 15.2774 73.0973 15.1937 73.1811 15.11C73.2648 14.9844 73.5159 14.8589 73.8926 14.6914C74.4786 14.4403 75.2738 14.1055 75.9854 13.7287C78.7479 12.2638 78.5805 9.20831 78.5386 8.32933C78.706 7.99448 80.2966 11.5104 78.1619 13.8962C77.0737 15.11 76.404 15.2774 76.0273 15.3611C75.3576 15.4867 77.9108 16.1564 79.4176 15.3611C80.171 15.0263 78.9572 16.9517 76.1528 16.9098C75.1901 16.9098 77.5759 18.0818 79.3757 17.4539C80.757 16.9517 78.3712 19.2956 75.4831 18.4585C74.2275 18.0818 76.1947 19.4212 77.2411 19.7141C77.2829 19.9653 74.6042 20.2583 73.0555 18.2492C72.7625 17.9562 73.5159 19.8397 74.2275 20.4257C75.232 21.1791 76.6969 21.7651 77.9526 21.5558C78.8316 21.3884 79.7943 20.9698 80.464 20.3001C80.5477 20.2164 80.5896 20.1327 80.5058 20.1746C80.464 20.1746 80.1291 20.3001 79.4176 20.342C79.1246 20.3838 78.4968 20.3838 78.2038 20.3001C77.9945 20.2583 77.7015 20.1746 77.7015 20.1327C77.7015 20.1327 79.6269 20.1746 81.0918 19.0863C81.3011 18.9189 81.5104 18.7515 81.6778 18.5422C82.1382 17.9981 82.3056 17.5376 82.3475 16.9517C82.3475 16.9098 82.3056 16.8679 82.2638 16.9517C81.0918 18.2492 78.7479 18.7096 79.3757 18.4166ZM71.172 26.4948C71.1301 26.4948 70.9208 26.2437 70.6697 25.8251C70.586 25.6577 70.5023 25.281 70.4604 25.281C70.4186 25.281 70.3349 25.4903 70.2093 25.6577C70.0419 25.8251 69.8744 25.9507 69.7907 25.9925C69.8744 25.6577 69.9163 25.2391 69.9581 24.8624C69.9581 24.695 70 24.4439 69.9581 24.4439C69.8326 24.5276 69.414 24.9461 68.828 25.1136C68.7025 25.1554 68.3676 25.2391 68.1583 25.2391C68.2839 25.1554 68.4513 24.988 68.535 24.9043C68.6606 24.7787 68.8699 24.5694 68.9955 24.3602H67.6142C67.3631 24.695 66.9445 25.4066 66.0655 25.4484C66.0237 25.4903 66.4004 26.0344 66.9864 26.0762C67.1957 26.1181 67.4049 26.1181 67.6561 26.0762C68.2839 25.9925 68.9117 25.6577 69.0792 25.574C69.121 25.7833 68.9955 26.2855 68.9117 26.4948C68.828 26.8715 68.6606 27.0808 68.6188 27.1645C68.6188 27.2482 69.121 27.2482 69.3303 27.1226C69.7489 26.9552 70 26.7459 70.0837 26.6622C70.1674 26.8715 70.3348 27.2482 70.5441 27.4994C70.7116 27.7505 71.0464 28.169 71.1301 28.169C71.2138 28.169 71.5487 27.7505 71.7161 27.4994C71.8835 27.2482 72.0928 26.8297 72.1765 26.6622C72.2602 26.7459 72.5114 26.9552 72.9299 27.1226C73.1392 27.2064 73.6415 27.2482 73.6415 27.1645C73.5996 27.0808 73.474 26.8715 73.3485 26.4948C73.2648 26.2855 73.1811 25.7833 73.1811 25.574C73.3066 25.6577 73.9763 25.9507 74.6042 26.0762C74.8553 26.1181 75.0646 26.1181 75.2738 26.0762C75.8598 25.9925 76.2784 25.4903 76.1947 25.4484C75.3157 25.4066 74.8971 24.695 74.646 24.3602H73.2648C73.3903 24.5276 73.5996 24.7369 73.7252 24.9043C73.8507 25.0298 73.9763 25.1554 74.1019 25.2391C73.8926 25.2391 73.5578 25.1554 73.4322 25.1136C72.8462 24.9043 72.3858 24.5276 72.3021 24.4439C72.2602 24.4439 72.2602 24.7369 72.3021 24.8624C72.3439 25.2391 72.3858 25.6577 72.4695 25.9925C72.3439 25.9507 72.2184 25.867 72.0509 25.6577C71.9254 25.5321 71.8417 25.3228 71.7998 25.281C71.7998 25.281 71.7161 25.6158 71.5905 25.8251C71.4231 26.2855 71.2138 26.4948 71.172 26.4948ZM67.8235 7.95263L66.3585 11.3848C66.7352 11.9289 67.2375 12.4312 67.7816 12.7661C67.1119 11.2592 67.3212 9.79429 68.4932 8.53861C68.2002 8.41304 67.9909 8.20376 67.8235 7.95263ZM68.3676 6.65509C68.535 7.11551 69.121 7.28293 69.6233 7.28293C70.3349 7.28293 71.0045 6.94809 71.6742 6.94809C72.0928 6.94809 72.5114 7.07365 72.8462 7.4085C73.0136 7.45036 73.2229 7.53407 73.3485 7.82706C73.7252 8.03634 74.1856 8.24562 74.1856 8.91531C74.1856 9.25016 74.1019 9.5013 73.8926 9.62686C73.6415 9.45944 73.0555 9.41759 72.6788 9.41759C71.9254 9.41759 70.8371 9.83614 71.2557 11.05C71.5487 11.8871 73.0136 12.7242 73.4322 13.2265C74.4367 13.1009 75.3157 12.3475 75.9435 11.4267L71.172 0L68.3676 6.65509ZM80.0873 21.3047L83.1428 28.5457H77.8271L76.6551 25.6995C76.8225 25.4066 76.8644 25.1554 76.8644 24.988C76.8644 24.9461 76.8225 24.9043 76.7807 24.9043C75.7761 25.0298 75.0227 23.8997 74.9809 23.7742H67.3631C67.3212 23.8997 66.5678 25.0717 65.5633 24.9043C65.5214 24.9043 65.4796 24.9461 65.4796 24.988C65.4796 25.1554 65.5633 25.4066 65.6888 25.6995L64.5169 28.5457H59.2012L62.2148 21.3047C63.5542 22.1418 66.0237 22.6441 68.3676 20.8024H73.9763C76.0273 22.4348 78.3712 22.4348 80.0873 21.3047Z" fill="white"/>
</g>
<defs>
<filter id="filter0_d_406_68" x="-4" y="0" width="150" height="62" filterUnits="userSpaceOnUse" color-interpolation-filters="sRGB">
<feFlood flood-opacity="0" result="BackgroundImageFix"/>
<feColorMatrix in="SourceAlpha" type="matrix" values="0 0 0 0 0 0 0 0 0 0 0 0 0 0 0 0 0 0 127 0" result="hardAlpha"/>
<feOffset dy="4"/>
<feGaussianBlur stdDeviation="2"/>
<feComposite in2="hardAlpha" operator="out"/>
<feColorMatrix type="matrix" values="0 0 0 0 0 0 0 0 0 0 0 0 0 0 0 0 0 0 0.25 0"/>
<feBlend mode="normal" in2="BackgroundImageFix" result="effect1_dropShadow_406_68"/>
<feBlend mode="normal" in="SourceGraphic" in2="effect1_dropShadow_406_68" result="shape"/>
</filter>
</defs>
</svg>
