<svg width="142" height="62" viewBox="0 0 142 62" fill="none" xmlns="http://www.w3.org/2000/svg">
<g filter="url(#filter0_d_396_122)">
<g clip-path="url(#clip0_396_122)">
<path d="M34.0752 32.3248C36.2565 30.4629 38.59 28.8163 41.1075 27.4437C43.3129 26.2438 45.5762 25.1839 47.9297 24.3129C49.6547 23.6754 51.3938 23.0784 53.1849 22.6642C54.6178 22.3333 56.0547 22.0226 57.5156 21.8379C59.909 21.5353 62.2985 21.4521 64.6819 21.9049C65.9407 22.1444 67.1474 22.5241 68.1841 23.3282C68.2061 23.3444 68.2321 23.3749 68.2661 23.3403C68.2661 23.3241 68.2701 23.3058 68.2641 23.2936C67.7358 22.1241 67.2675 20.9242 66.6611 19.7933C66.3109 19.1415 65.7986 18.6238 65.1442 18.2766C63.8194 17.5741 62.3965 17.1863 60.9216 16.9913C58.8183 16.7112 56.7231 16.8309 54.6338 17.1477C52.2583 17.5091 49.9449 18.1284 47.6655 18.8918C46.2787 19.3547 44.9118 19.8765 43.561 20.4389C43.4049 20.5019 43.3509 20.5567 43.479 20.7008C43.607 20.845 43.7231 20.9993 43.8492 21.1475C44.3195 21.7018 44.4696 22.3536 44.3435 23.0561C44.1093 24.3779 43.2768 25.19 42.0601 25.592C40.8954 25.9758 39.8687 25.726 39.0542 24.7494C38.708 24.3332 38.3378 23.9393 37.9936 23.5251C37.8735 23.381 37.7895 23.3606 37.6194 23.454C35.5161 24.5992 33.5949 26.0022 31.8378 27.6387C30.3629 29.0112 29.0461 30.5177 28.0215 32.272C27.6393 32.9278 27.281 33.5978 27.1169 34.3511C26.9368 35.1693 26.8588 36.0038 27.155 36.7977C27.5632 37.8961 28.0395 38.9662 28.5418 40.024C28.6059 40.16 28.6619 40.3021 28.798 40.4463C28.9881 39.1022 29.4324 37.9063 30.1188 36.8018C31.1894 35.0841 32.5543 33.6202 34.0752 32.3248Z" fill="white"/>
<path d="M89.3477 33.2502C88.6673 33.2583 87.9869 33.2603 87.3084 33.2502C87.1283 33.2461 87.0283 33.2948 86.9322 33.4613C85.6314 35.7008 84.3226 37.9363 83.0138 40.1717C82.7537 40.6164 82.4935 41.061 82.2253 41.5199C82.1593 41.4143 82.1033 41.325 82.0512 41.2357C80.5103 38.6408 78.9693 36.046 77.4324 33.4471C77.3503 33.309 77.2643 33.2461 77.0942 33.2481C76.3998 33.2603 75.7033 33.2583 75.0069 33.2481C74.8588 33.2481 74.8008 33.2745 74.8008 33.4431C74.8068 37.7515 74.8068 42.06 74.8008 46.3664C74.8008 46.5349 74.8548 46.5674 75.0049 46.5654C75.8054 46.5593 76.6039 46.5552 77.4044 46.5674C77.6065 46.5715 77.6525 46.5106 77.6525 46.3116C77.6465 43.8934 77.6485 41.4773 77.6485 39.0591V38.8317C77.7366 38.8967 77.7846 38.9677 77.8286 39.0408C79.0114 41.0143 80.1961 42.9858 81.3728 44.9614C81.4629 45.1137 81.5589 45.1726 81.731 45.1624C82.0112 45.1482 82.2914 45.1441 82.5715 45.1624C82.7777 45.1766 82.8957 45.1116 83.0038 44.9208C83.7162 43.6843 84.4447 42.4539 85.1671 41.2235C85.6674 40.3687 86.1697 39.5139 86.67 38.6611C86.6861 38.6652 86.7001 38.6713 86.7161 38.6753V38.9393C86.7241 41.3981 86.7341 43.8569 86.7341 46.3136C86.7341 46.5187 86.7921 46.5715 86.9902 46.5674C87.7887 46.5573 88.5892 46.5593 89.3897 46.5654C89.5378 46.5674 89.5938 46.539 89.5938 46.3685C89.5758 42.06 89.5618 37.7535 89.5518 33.4451C89.5518 33.2786 89.4958 33.2461 89.3477 33.2481V33.2502Z" fill="white"/>
<path d="M29.8047 18.0481C31.0695 18.4399 32.3542 18.444 33.647 18.2267C34.3395 18.109 35.0239 17.9567 35.6563 17.6278C36.3467 17.3273 36.9851 16.9293 37.4614 16.3425C38.3559 15.2441 39.0664 14.0259 39.5567 12.6838C40.063 11.3031 40.2931 9.88389 40.0309 8.41593C39.7027 6.57843 38.6981 5.18356 37.2372 4.09934C35.9424 3.13897 34.4675 2.57655 32.9426 2.12987C32.8786 2.10957 32.8225 2.09738 32.7865 2.17454C32.8586 2.25372 32.9286 2.33088 32.9966 2.41006C33.8151 3.3481 34.4295 4.39374 34.6557 5.64243C34.7757 6.31042 34.8178 6.98248 34.5556 7.63017C34.3034 8.24944 33.8291 8.34283 33.3589 7.86976C33.2408 7.74996 33.1407 7.6119 33.0447 7.4718C32.8646 7.21394 32.7325 6.92766 32.6064 6.63731C32.2802 5.88201 32.0621 5.08407 31.7499 4.32268C31.3216 3.28313 30.8213 2.28621 29.9548 1.54512C28.8401 0.594902 27.5293 0.142127 26.0884 0.0406076C26.0884 0.0263949 26.0864 0.0121823 26.0864 0H25.5101C25.5101 0.0142127 25.5101 0.0263949 25.5101 0.0406076C25.2099 0.0751241 24.9057 0.0933975 24.6075 0.148218C23.849 0.286284 23.1206 0.511656 22.4802 0.964431C22.3541 1.01316 22.2441 1.08422 22.108 1.20199C22.2941 1.22838 22.4402 1.24868 22.5863 1.26899C22.7364 1.29132 22.8884 1.30147 23.0365 1.33396C25.0198 1.75831 26.3005 3.00293 27.051 4.86682C27.1411 5.09219 27.1891 5.33178 27.1891 5.57746C27.1911 6.07693 26.9209 6.37946 26.4286 6.43631C26.0284 6.48301 25.6541 6.36118 25.2779 6.25357C24.7096 6.09317 24.1372 6.01399 23.5509 6.13378C22.9985 6.24748 22.5002 6.47894 22.0039 6.83426C22.18 6.88096 22.3081 6.91751 22.4362 6.94796C23.797 7.25861 24.7176 8.08904 25.2199 9.39863C25.458 10.0138 25.5461 10.6656 25.6061 11.3194C25.7002 12.3041 25.7722 13.2909 26.0924 14.235C26.7268 16.109 27.8895 17.4572 29.8067 18.0481H29.8047Z" fill="white"/>
<path d="M119.889 46.3714C118.464 44.538 117.044 42.7005 115.613 40.8711C115.489 40.7107 115.491 40.6315 115.635 40.4854C116.907 39.1839 118.172 37.8743 119.439 36.5667C119.499 36.5038 119.557 36.4388 119.653 36.3332C118.496 36.3332 117.402 36.3353 116.307 36.3292C116.175 36.3292 116.103 36.4063 116.023 36.4835C114.722 37.7322 113.421 38.9829 112.118 40.2295C112.058 40.2864 112.01 40.3656 111.904 40.394V40.1097C111.904 37.6367 111.902 35.1617 111.908 32.6887C111.908 32.51 111.87 32.4532 111.686 32.4572C110.848 32.4674 110.007 32.4654 109.167 32.4572C109.027 32.4572 108.977 32.4857 108.977 32.644C108.981 37.2185 108.981 41.7929 108.977 46.3674C108.977 46.5379 109.033 46.5684 109.181 46.5684C110.013 46.5623 110.846 46.5582 111.676 46.5704C111.876 46.5704 111.91 46.5014 111.908 46.3186C111.9 45.5979 111.908 44.875 111.902 44.1543C111.9 44.0121 111.938 43.9126 112.038 43.8131C112.411 43.4558 112.781 43.0964 113.133 42.7188C113.283 42.5604 113.349 42.5929 113.469 42.7472C114.422 43.9593 115.384 45.1613 116.337 46.3714C116.447 46.5095 116.557 46.5704 116.739 46.5684C117.756 46.5603 118.771 46.5643 119.787 46.5623C119.853 46.5623 119.927 46.5927 119.999 46.5278C119.961 46.475 119.927 46.4222 119.889 46.3714Z" fill="white"/>
<path d="M49.4591 33.248C46.3232 33.2562 43.1873 33.2562 40.0514 33.248C39.8452 33.248 39.7832 33.2927 39.7852 33.512C39.7932 35.6459 39.7892 37.7799 39.7892 39.9138C39.7892 42.0477 39.7932 44.1816 39.7852 46.3135C39.7852 46.5186 39.8392 46.5714 40.0394 46.5694C40.8859 46.5592 41.7344 46.5592 42.5829 46.5694C42.783 46.5734 42.8351 46.5166 42.8331 46.3156C42.8251 44.8639 42.8351 43.4101 42.8251 41.9584C42.8231 41.7513 42.8791 41.7107 43.0752 41.7107C44.9384 41.7188 46.8015 41.7127 48.6666 41.7208C48.8588 41.7208 48.9028 41.666 48.8988 41.4792C48.8888 40.8153 48.8868 40.1493 48.9008 39.4854C48.9048 39.2762 48.8387 39.2356 48.6446 39.2356C46.7895 39.2438 44.9344 39.2377 43.0772 39.2458C42.8871 39.2458 42.8211 39.2113 42.8231 39.0001C42.8371 37.993 42.8371 36.988 42.8231 35.9809C42.8191 35.7576 42.8851 35.7231 43.0872 35.7231C45.2245 35.7312 47.3598 35.7231 49.4951 35.7312C49.6612 35.7332 49.7113 35.6947 49.7073 35.52C49.6973 34.848 49.6953 34.1739 49.7093 33.4998C49.7093 33.2988 49.6592 33.248 49.4591 33.248Z" fill="white"/>
<path d="M71.4302 37.6837C70.4876 36.7274 69.3229 36.2868 68.0081 36.1995C64.9983 35.9985 62.4507 37.9842 62.2606 41.0339C62.1305 43.0967 62.871 44.7616 64.6481 45.8418C66.231 46.8042 67.9581 46.9077 69.7252 46.5078C70.6177 46.3068 71.3962 45.8722 72.0326 45.1941C72.0966 45.1251 72.1767 45.0743 72.0706 44.9606C71.6043 44.4591 71.144 43.9515 70.6858 43.4419C70.6097 43.3566 70.5637 43.3789 70.4936 43.4439C69.6211 44.2419 68.5845 44.4571 67.4578 44.2886C66.4011 44.1322 65.6127 43.5982 65.2464 42.5302C65.1804 42.3394 65.2064 42.2825 65.4185 42.2846C66.6113 42.2947 67.802 42.2886 68.9947 42.2886C70.1875 42.2886 71.3942 42.2846 72.5929 42.2927C72.769 42.2947 72.8271 42.246 72.8371 42.0653C72.8611 41.6612 72.8791 41.2572 72.8391 40.8511C72.715 39.637 72.2947 38.5568 71.4302 37.6837ZM69.9173 40.5567C69.1508 40.5486 68.3844 40.5527 67.6179 40.5527C66.8514 40.5527 66.101 40.5486 65.3425 40.5547C65.1764 40.5567 65.1424 40.5181 65.1824 40.3516C65.4566 39.1659 66.3711 38.435 67.6159 38.4228C68.8486 38.4126 69.7932 39.1578 70.0754 40.3496C70.1134 40.5161 70.0874 40.5567 69.9173 40.5567Z" fill="white"/>
<path d="M100.055 39.9763C99.9188 38.2078 98.9161 36.9368 97.2391 36.4454C96.1364 36.1226 95.0137 36.1206 93.8891 36.2871C92.8824 36.4373 91.9299 36.7439 91.0613 37.2962C90.9312 37.3814 90.8932 37.4444 90.9753 37.5987C91.2775 38.1692 91.5676 38.7459 91.8518 39.3265C91.9199 39.4666 91.9659 39.4666 92.092 39.3814C93.1466 38.6646 94.3133 38.4169 95.5641 38.6037C96.5227 38.7479 97.103 39.3956 97.1691 40.3478C97.1791 40.5021 97.1471 40.559 96.981 40.557C96.2385 40.5488 95.494 40.5488 94.7496 40.5549C94.1652 40.559 93.5829 40.6077 93.0125 40.7458C92.2441 40.9326 91.5416 41.2432 91.0413 41.9011C90.1928 43.0097 90.1928 45.3182 92.224 46.2887C92.7904 46.5588 93.3908 46.6887 94.0091 46.707C95.3019 46.7415 96.5047 46.5344 97.3612 45.3121C97.3612 45.704 97.3692 46.0349 97.3572 46.3638C97.3512 46.5283 97.4032 46.5689 97.5593 46.5689C98.3258 46.5608 99.0942 46.5588 99.8627 46.5689C100.053 46.573 100.103 46.5182 100.101 46.3253C100.093 45.1497 100.101 43.9741 100.095 42.7985C100.087 41.8564 100.129 40.9163 100.055 39.9763ZM97.087 43.5233C96.7568 44.2076 96.1945 44.5609 95.474 44.6807C95.0017 44.7598 94.5335 44.7375 94.0872 44.5426C93.5809 44.3213 93.3407 43.9233 93.3727 43.3711C93.4028 42.8899 93.6869 42.5589 94.2093 42.4026C94.7576 42.2381 95.3199 42.3051 95.8062 42.2889C96.2445 42.2889 96.6127 42.295 96.981 42.2868C97.119 42.2848 97.1911 42.3112 97.1731 42.4716C97.133 42.8208 97.2511 43.1843 97.087 43.5233Z" fill="white"/>
<path d="M38.1799 45.3533C37.4115 45.2538 36.643 45.1421 35.8845 44.9756C34.8259 44.7442 33.7932 44.4396 32.8767 43.8285C31.5919 42.9737 30.9575 41.7575 30.9795 40.2002C30.9935 39.1423 31.3678 38.1901 31.8681 37.2825C32.5745 35.9953 33.4991 34.8806 34.5257 33.8512C37.0452 31.3233 39.959 29.36 43.1089 27.7438C46.509 25.9997 50.0932 24.7713 53.8015 23.8942C55.7447 23.4333 57.6999 23.08 59.7051 23.0942C60.2795 23.1064 60.8558 23.1145 61.4302 23.1693C62.845 23.3054 64.2339 23.5754 65.5247 24.2028C66.7374 24.7916 67.5999 25.7134 67.8881 27.0839C68.1183 28.1783 67.9141 29.2321 67.4799 30.2391C66.8115 31.7842 65.7968 33.0817 64.6401 34.2755C64.396 34.5253 64.398 34.5192 64.6601 34.7466C64.7342 34.8115 64.7902 34.8055 64.8743 34.775C65.0724 34.7039 65.2465 34.6085 65.4026 34.4583C65.8369 34.04 66.2611 33.6075 66.6594 33.1527C67.636 32.038 68.4985 30.8462 69.0648 29.4574C69.4431 28.5316 69.6692 27.5712 69.4991 26.5641C69.263 25.149 68.4044 24.2109 67.1917 23.5531C65.6508 22.7206 63.9797 22.4465 62.2647 22.3958C58.7745 22.2902 55.3645 22.8364 52.0184 23.8069C46.6091 25.3764 41.55 27.7133 36.9432 31.0086C35.108 32.3203 33.387 33.772 31.9821 35.5689C31.1977 36.5739 30.4352 37.5952 29.9089 38.7708C29.4886 39.7108 29.2385 40.6834 29.4186 41.7209C29.6487 43.0447 30.3932 44.0051 31.5199 44.6772C32.4424 45.2254 33.457 45.5056 34.4977 45.7066C35.5743 45.9157 36.667 46.003 37.7557 46.1289C38.356 46.1999 38.352 46.2081 38.364 45.5847C38.364 45.4406 38.344 45.3756 38.1799 45.3533Z" fill="white"/>
<path d="M36.8323 17.8425C35.5716 18.6242 34.1967 19.0506 32.6758 19.1318C33.4563 20.0069 34.1167 20.9226 34.9091 21.7266C35.5856 22.4129 36.4101 22.7722 37.3506 22.7093C39.3799 22.5753 40.8908 21.5703 41.7954 19.7186C42.2797 18.7298 42.2396 17.7024 41.5792 16.7928C41.0549 16.07 40.4485 15.4101 39.8522 14.6934C39.1017 16.0314 38.0931 17.0648 36.8323 17.8425Z" fill="white"/>
<path d="M107.645 36.3364C107.645 36.2024 107.595 36.176 107.474 36.1801C106.21 36.2369 105.059 36.5638 104.18 37.6724C104.18 37.2744 104.168 36.9435 104.184 36.6146C104.194 36.4014 104.146 36.3222 103.914 36.3283C103.156 36.3445 102.395 36.3405 101.635 36.3283C101.435 36.3263 101.385 36.3831 101.385 36.5841C101.393 38.4582 101.389 40.3322 101.389 42.2062V46.3421C101.389 46.47 101.373 46.5736 101.567 46.5695C102.421 46.5594 103.278 46.5614 104.134 46.5695C104.293 46.5695 104.319 46.5005 104.315 46.3645C104.309 46.0477 104.313 45.731 104.313 45.4163C104.317 44.06 104.299 42.7057 104.333 41.3515C104.361 40.1637 105.001 39.317 106.018 39.0125C106.494 38.8703 106.98 38.8724 107.468 38.9048C107.573 38.9109 107.647 38.9292 107.647 38.7708C107.639 37.9607 107.641 37.1486 107.647 36.3364H107.645Z" fill="white"/>
<path d="M59.0958 41.8488C59.0958 41.5483 59.1078 41.2498 59.1558 40.9513C59.3299 39.8976 59.9783 39.193 61.0009 38.9616C61.4192 38.8661 61.8434 38.8763 62.2677 38.9068C62.3698 38.9128 62.4298 38.9149 62.4278 38.7788C62.4238 37.9586 62.4238 37.1403 62.4278 36.32C62.4278 36.2185 62.3978 36.1759 62.2897 36.18C61.3231 36.2185 60.4026 36.4094 59.6081 37.0165C59.3799 37.1911 59.1858 37.4022 58.9617 37.6682C58.9617 37.2642 58.9517 36.919 58.9677 36.5738C58.9757 36.3871 58.9257 36.3261 58.7315 36.3282C57.9551 36.3404 57.1806 36.3404 56.4041 36.3282C56.21 36.3261 56.168 36.3891 56.168 36.5738C56.174 39.8204 56.174 43.065 56.168 46.3095C56.168 46.5024 56.204 46.5735 56.4121 46.5714C57.2286 46.5572 58.0451 46.5593 58.8616 46.5694C59.0497 46.5714 59.1018 46.5186 59.1018 46.3258C59.0938 44.8334 59.0958 43.3411 59.0958 41.8488Z" fill="white"/>
<path d="M53.8974 36.3302C53.0728 36.3383 52.2503 36.3404 51.4258 36.3282C51.2217 36.3261 51.1797 36.3911 51.1797 36.586C51.1877 38.2083 51.1857 39.8306 51.1857 41.4508C51.1857 43.0711 51.1877 44.7116 51.1817 46.34C51.1797 46.5227 51.2257 46.5714 51.4058 46.5694C52.2383 46.5593 53.0688 46.5613 53.9014 46.5694C54.0715 46.5714 54.1135 46.5166 54.1135 46.3481C54.1095 43.0812 54.1075 39.8143 54.1135 36.5475C54.1135 36.3728 54.0615 36.3282 53.8974 36.3302Z" fill="white"/>
<path d="M39.4341 22.8443C39.1239 22.9864 38.7997 23.0879 38.4395 23.1935C38.9458 23.7905 39.404 24.3833 39.9684 24.8767C40.1905 25.0696 40.4627 25.1711 40.7529 25.2178C42.0116 25.4168 43.4145 24.4706 43.7627 23.1834C43.9208 22.5966 43.8748 22.0362 43.4845 21.5489C43.1283 21.1022 42.7561 20.6657 42.3819 20.2332C42.2058 20.0282 42.1958 20.0363 42.0777 20.282C41.5093 21.4657 40.6148 22.3042 39.4341 22.8443Z" fill="white"/>
<path d="M48.5971 48.7466C48.5971 48.1639 48.5971 48.1679 48.0228 48.1943C47.8907 48.2004 47.8627 48.2512 47.8647 48.369C47.8707 48.7669 47.8667 49.1649 47.8667 49.5608V50.4298C46.9001 49.4227 45.4892 49.8024 44.9289 50.4318C44.2265 51.2237 44.2265 52.6064 44.9469 53.3718C45.7114 54.188 46.9281 54.1901 47.8607 53.3718C47.9047 53.3982 47.8867 53.4429 47.8887 53.4794C47.9027 53.9403 47.9027 53.9281 48.359 53.9444C48.5731 53.9525 48.6011 53.8753 48.6011 53.6845C48.5931 52.0378 48.5971 50.3912 48.5971 48.7446V48.7466ZM46.5219 53.3434C45.7194 53.3495 45.143 52.7444 45.143 51.8937C45.143 51.0491 45.7034 50.4623 46.5059 50.4582C47.3063 50.4562 47.8707 51.047 47.8727 51.8896C47.8747 52.7302 47.3103 53.3373 46.5219 53.3434Z" fill="white"/>
<path d="M43.4394 53.2664C42.5529 53.2745 41.6643 53.2664 40.7778 53.2745C40.6057 53.2765 40.5376 53.24 40.5437 53.0491C40.5597 52.6106 40.5557 52.174 40.5457 51.7355C40.5396 51.5629 40.5937 51.5162 40.7618 51.5182C41.4402 51.5284 42.1206 51.5223 42.799 51.5223C43.2333 51.5223 43.2233 51.5223 43.2333 51.0736C43.2353 50.899 43.1853 50.8604 43.0192 50.8624C42.2687 50.8705 41.5162 50.8584 40.7658 50.8705C40.5777 50.8746 40.5396 50.8137 40.5457 50.6391C40.5577 50.2411 40.5577 49.8432 40.5457 49.4472C40.5396 49.2665 40.5757 49.1955 40.7758 49.1995C41.5443 49.2137 42.3107 49.2056 43.0792 49.2056C43.5675 49.2056 43.5615 49.2056 43.5635 48.7122C43.5635 48.5579 43.5215 48.5254 43.3754 48.5254C42.2487 48.5315 41.12 48.5336 39.9933 48.5254C39.8212 48.5234 39.7852 48.5782 39.7872 48.7427C39.7952 49.5691 39.7892 50.3975 39.7892 51.2238C39.7892 52.0502 39.7952 52.8928 39.7872 53.7293C39.7852 53.8958 39.8272 53.9466 39.9973 53.9445C41.076 53.9384 42.1546 53.9425 43.2353 53.9425C43.6676 53.9425 43.6576 53.9405 43.6676 53.4938C43.6716 53.307 43.6175 53.2644 43.4394 53.2664Z" fill="white"/>
<path d="M53.2314 31.6781C52.8932 31.5867 52.555 31.5806 52.2108 31.6415C51.034 31.8527 50.4417 33.146 51.0781 34.1287C51.4463 34.6952 52.0006 34.8942 52.639 34.9064C52.8171 34.9145 52.9912 34.8881 53.1633 34.8495C53.9258 34.6769 54.4441 34.0374 54.4581 33.2557C54.4701 32.474 54.0159 31.8913 53.2314 31.6781Z" fill="white"/>
<path d="M62.5566 51.1758C62.5325 50.5037 62.1303 50.0469 61.4839 49.8845C60.8315 49.72 60.1971 49.7972 59.5907 50.0753C59.1365 50.2844 59.1445 50.2885 59.3906 50.7311C59.4547 50.8469 59.4947 50.8773 59.6168 50.79C59.945 50.5545 60.3252 50.4611 60.7214 50.4469C61.3278 50.4245 61.708 50.6783 61.8201 51.1697C61.9082 51.5616 61.8861 51.59 61.4879 51.59C61.1437 51.59 60.8015 51.592 60.4573 51.5961C60.2631 51.5961 60.077 51.6367 59.8929 51.6935C59.3746 51.8539 59.0864 52.2052 59.0624 52.6986C59.0364 53.2265 59.2825 53.6569 59.7849 53.8396C60.5293 54.1117 61.2418 54.0752 61.8881 53.4478C61.8881 53.594 61.8941 53.7036 61.8861 53.8153C61.8781 53.931 61.9442 53.9594 62.0322 53.9391C62.2123 53.9026 62.4205 54.0427 62.5726 53.8498C62.5806 53.8396 62.5746 53.8173 62.5746 53.8011C62.5706 52.926 62.5886 52.0509 62.5566 51.1758ZM61.5239 53.1453C61.1077 53.4539 60.6534 53.4904 60.1811 53.326C59.9029 53.2305 59.7628 52.9767 59.7849 52.6986C59.8069 52.4306 59.955 52.2661 60.2491 52.1768C60.5313 52.0915 60.8215 52.1402 61.0496 52.124C61.3078 52.124 61.5079 52.1219 61.708 52.124C61.7681 52.126 61.8381 52.1077 61.8461 52.2092C61.8761 52.5707 61.8441 52.9077 61.5239 53.1453Z" fill="white"/>
<path d="M70.7715 49.8028C69.5508 49.7967 68.6602 50.6758 68.6582 51.89C68.6582 53.1123 69.5347 53.9874 70.7595 53.9874C71.9842 53.9874 72.8608 53.1163 72.8588 51.892C72.8568 50.6819 71.9822 49.8068 70.7715 49.8028ZM70.7635 53.3438C69.963 53.3438 69.3847 52.7285 69.3927 51.8819C69.4007 51.0413 69.967 50.4566 70.7695 50.4586C71.574 50.4626 72.1203 51.0454 72.1183 51.9022C72.1183 52.7468 71.556 53.3438 70.7635 53.3438Z" fill="white"/>
<path d="M53.7275 50.3483C53.7275 49.8427 53.7276 49.8569 53.2332 49.8387C53.0191 49.8326 52.9891 49.9097 52.9891 50.1006C52.9891 50.8051 53.0291 51.5117 52.9711 52.2142C52.911 52.9228 52.4147 53.3512 51.7063 53.3289C51.0179 53.3065 50.6697 52.9187 50.6537 52.1574C50.6517 52.0924 50.6517 52.0274 50.6517 51.9624C50.6517 51.3147 50.6537 50.665 50.6517 50.0173C50.6517 49.9422 50.6797 49.8305 50.5496 49.8488C50.3375 49.8772 50.1113 49.7615 49.9172 49.9178C49.9052 49.928 49.9132 49.9645 49.9132 49.9889C49.9252 50.8396 49.8752 51.6924 49.9412 52.5431C49.9933 53.2314 50.3895 53.7329 51.0239 53.9035C51.7583 54.1025 52.4348 54.003 53.0331 53.3512C53.0331 53.5766 52.9751 53.7776 53.0471 53.8852C53.1412 54.0253 53.3573 53.9177 53.5194 53.9441C53.6875 53.9705 53.7316 53.8994 53.7316 53.7289C53.7235 52.602 53.7275 51.4751 53.7275 50.3483Z" fill="white"/>
<path d="M75.6692 49.8305C75.235 49.8934 74.8647 50.0721 74.5405 50.4356C74.5125 49.8407 74.5105 49.8528 74.0482 49.8407C73.8541 49.8346 73.8321 49.9077 73.8341 50.0762C73.8401 51.1868 73.8361 52.2974 73.8361 53.408C73.8361 53.9644 73.8361 53.9583 74.3964 53.9461C74.5365 53.9441 74.5705 53.8994 74.5685 53.7654C74.5625 53.1339 74.5665 52.5005 74.5645 51.869C74.5645 51.6985 74.5786 51.5279 74.6206 51.3634C74.7647 50.7848 75.2169 50.468 75.8854 50.4762C76.4417 50.4823 76.7919 50.7543 76.9 51.2822C76.932 51.4386 76.934 51.603 76.934 51.7655C76.938 52.3076 76.936 52.8517 76.936 53.3938C76.936 53.9725 76.936 53.9684 77.5124 53.9461C77.6324 53.942 77.6785 53.9116 77.6785 53.7816C77.6724 53.0101 77.6985 52.2406 77.6664 51.4711C77.6184 50.2833 76.8359 49.66 75.6692 49.8305Z" fill="white"/>
<path d="M56.3908 50.5234C56.8891 50.3833 57.3754 50.4259 57.7436 50.828C57.9157 51.0188 58.0198 51.0066 58.2039 50.8706C58.5161 50.6432 58.5261 50.6554 58.2619 50.3711C57.6075 49.6645 56.2847 49.6077 55.4662 50.2513C54.7838 50.7873 54.5216 51.7437 54.8178 52.6188C55.104 53.4654 55.8665 53.9852 56.687 53.9872C57.3173 53.9933 57.7696 53.8695 58.1499 53.5304C58.5421 53.1771 58.5361 53.1446 58.1138 52.8665C57.9858 52.7832 57.9137 52.7629 57.8076 52.905C57.6515 53.1203 57.4234 53.2421 57.1673 53.301C56.0946 53.5507 55.2381 52.6675 55.4762 51.5467C55.5843 51.033 55.8825 50.6676 56.3908 50.5234Z" fill="white"/>
<path d="M65.7324 53.2853C65.2221 53.5107 64.7418 53.2813 64.7278 52.7838C64.7078 52.0549 64.7238 51.324 64.7178 50.5951C64.7178 50.4875 64.7578 50.455 64.8579 50.457C65.058 50.4611 65.2581 50.459 65.4582 50.459C65.8885 50.457 65.8785 50.457 65.8825 50.0205C65.8825 49.856 65.8204 49.8377 65.6864 49.8418C65.4222 49.8499 65.158 49.8377 64.8939 49.8479C64.7618 49.8519 64.7078 49.8174 64.7178 49.6753C64.7298 49.4885 64.7138 49.3017 64.7218 49.1149C64.7278 48.987 64.6818 48.9525 64.5577 48.9464C63.9873 48.92 63.9873 48.9159 63.9873 49.4804V49.5048C63.9873 49.7308 63.8719 49.8438 63.6411 49.8438C63.2929 49.8438 63.3069 49.8459 63.2889 50.1809C63.2749 50.4042 63.3409 50.4956 63.5631 50.459C63.6411 50.4469 63.7232 50.4651 63.8032 50.457C63.9553 50.4387 63.9933 50.5078 63.9893 50.6519C63.9813 51.0255 63.9873 51.3991 63.9873 51.7707C63.9913 51.7707 63.9973 51.7727 64.0013 51.7727C64.0013 52.1605 63.9853 52.5503 64.0053 52.9381C64.0294 53.3462 64.2155 53.6752 64.5917 53.8477C65.044 54.0569 65.5043 54.0386 65.9605 53.8356C66.2887 53.6894 66.0266 53.5066 65.9926 53.3422C65.9505 53.133 65.8385 53.2386 65.7324 53.2853Z" fill="white"/>
<path d="M67.7013 50.3799C67.7013 49.8358 67.7013 49.8419 67.1689 49.8398C67.0148 49.8398 66.9668 49.8805 66.9688 50.0409C66.9788 50.6561 66.9728 51.2713 66.9728 51.8865V53.4174C66.9728 53.9473 66.9728 53.9412 67.4951 53.9473C67.6632 53.9493 67.7053 53.9006 67.7053 53.7321C67.6973 52.6133 67.7013 51.4966 67.7013 50.3799Z" fill="white"/>
<path d="M67.3484 48.0899C67.0682 48.0858 66.8481 48.2889 66.8401 48.561C66.8321 48.8269 67.0482 49.0503 67.3244 49.0564C67.5945 49.0645 67.8227 48.8533 67.8347 48.5833C67.8447 48.3173 67.6265 48.096 67.3484 48.0899Z" fill="white"/>
</g>
</g>
<defs>
<filter id="filter0_d_396_122" x="-4" y="0" width="150" height="62" filterUnits="userSpaceOnUse" color-interpolation-filters="sRGB">
<feFlood flood-opacity="0" result="BackgroundImageFix"/>
<feColorMatrix in="SourceAlpha" type="matrix" values="0 0 0 0 0 0 0 0 0 0 0 0 0 0 0 0 0 0 127 0" result="hardAlpha"/>
<feOffset dy="4"/>
<feGaussianBlur stdDeviation="2"/>
<feComposite in2="hardAlpha" operator="out"/>
<feColorMatrix type="matrix" values="0 0 0 0 0 0 0 0 0 0 0 0 0 0 0 0 0 0 0.25 0"/>
<feBlend mode="normal" in2="BackgroundImageFix" result="effect1_dropShadow_396_122"/>
<feBlend mode="normal" in="SourceGraphic" in2="effect1_dropShadow_396_122" result="shape"/>
</filter>
<clipPath id="clip0_396_122">
<rect width="98" height="54" fill="white" transform="translate(22)"/>
</clipPath>
</defs>
</svg>
