<?xml version="1.0" encoding="UTF-8"?>
<svg id="Layer_1" data-name="Layer 1" xmlns="http://www.w3.org/2000/svg" viewBox="0 0 142 60">
  <defs>
    <style>
      .cls-1 {
        opacity: .65;
      }

      .cls-1, .cls-2, .cls-3, .cls-4 {
        stroke-width: 0px;
      }

      .cls-1, .cls-2, .cls-4 {
        fill: #fff;
      }

      .cls-2 {
        opacity: .54;
      }
    </style>
  </defs>
  <path class="cls-4" d="M8.19,42.46c2.06,2.6,4.44,4.91,7.11,6.9,2.67-1.98,5.06-4.3,7.11-6.9l-7.11-6.92-7.11,6.92Z"/>
  <path class="cls-4" d="M4.88,37.52l10.42-9.99,10.44,10.04c1.77-3.14,3.07-6.54,3.85-10.06.05-.17.07-.33.09-.52H.91c.78,3.69,2.13,7.23,3.97,10.54Z"/>
  <path class="cls-2" d="M15.29,35.54l-7.11,6.92c-1.2-1.52-2.34-3.25-3.31-4.94l10.42-10.01,10.44,10.05c-.94,1.69-2.12,3.38-3.33,4.89l-7.11-6.92Z"/>
  <path class="cls-2" d="M18.44,19.22c-.05-.07-.14-.12-.21-.12-.09,0-.17.05-.21.12-.07.12-.12.26-.09.4,0,.14.02.26.09.38.05.07.12.12.21.12s.19-.05.24-.14c.05-.12.07-.24.07-.35.02-.14-.02-.28-.09-.4ZM18.44,19.22c-.05-.07-.14-.12-.21-.12-.09,0-.17.05-.21.12-.07.12-.12.26-.09.4,0,.14.02.26.09.38.05.07.12.12.21.12s.19-.05.24-.14c.05-.12.07-.24.07-.35.02-.14-.02-.28-.09-.4ZM17.73,21.03s-.07.14-.07.19c-.05.14-.07.19-.09.21h.33c-.02-.09-.12-.28-.17-.4ZM18.44,19.22c-.05-.07-.14-.12-.21-.12-.09,0-.17.05-.21.12-.07.12-.12.26-.09.4,0,.14.02.26.09.38.05.07.12.12.21.12s.19-.05.24-.14c.05-.12.07-.24.07-.35.02-.14-.02-.28-.09-.4ZM17.73,21.03s-.07.14-.07.19c-.05.14-.07.19-.09.21h.33c-.02-.09-.12-.28-.17-.4ZM18.44,19.22c-.05-.07-.14-.12-.21-.12-.09,0-.17.05-.21.12-.07.12-.12.26-.09.4,0,.14.02.26.09.38.05.07.12.12.21.12s.19-.05.24-.14c.05-.12.07-.24.07-.35.02-.14-.02-.28-.09-.4ZM17.73,21.03s-.07.14-.07.19c-.05.14-.07.19-.09.21h.33c-.02-.09-.12-.28-.17-.4ZM18.44,19.22c-.05-.07-.14-.12-.21-.12-.09,0-.17.05-.21.12-.07.12-.12.26-.09.4,0,.14.02.26.09.38.05.07.12.12.21.12s.19-.05.24-.14c.05-.12.07-.24.07-.35.02-.14-.02-.28-.09-.4ZM17.73,21.03s-.07.14-.07.19c-.05.14-.07.19-.09.21h.33c-.02-.09-.12-.28-.17-.4ZM18.44,19.22c-.05-.07-.14-.12-.21-.12-.09,0-.17.05-.21.12-.07.12-.12.26-.09.4,0,.14.02.26.09.38.05.07.12.12.21.12s.19-.05.24-.14c.05-.12.07-.24.07-.35.02-.14-.02-.28-.09-.4ZM17.73,21.03s-.07.14-.07.19c-.05.14-.07.19-.09.21h.33c-.02-.09-.12-.28-.17-.4ZM18.44,19.22c-.05-.07-.14-.12-.21-.12-.09,0-.17.05-.21.12-.07.12-.12.26-.09.4,0,.14.02.26.09.38.05.07.12.12.21.12s.19-.05.24-.14c.05-.12.07-.24.07-.35.02-.14-.02-.28-.09-.4ZM17.73,21.03s-.07.14-.07.19c-.05.14-.07.19-.09.21h.33c-.02-.09-.12-.28-.17-.4ZM18.44,19.22c-.05-.07-.14-.12-.21-.12-.09,0-.17.05-.21.12-.07.12-.12.26-.09.4,0,.14.02.26.09.38.05.07.12.12.21.12s.19-.05.24-.14c.05-.12.07-.24.07-.35.02-.14-.02-.28-.09-.4ZM30.37,16.31c-1.25.38-2.55.57-3.87.57-4.56.02-8.79-2.34-11.17-6.24-2.39,3.9-6.61,6.26-11.17,6.24-1.3,0-2.62-.19-3.87-.57-.31,3.57-.09,7.16.64,10.68h28.77c.78-3.52.99-7.11.69-10.68ZM10.57,19.07h.59v.05s-.17,0-.17.07v.07l.28.66.24-.54s.02-.09.02-.14c0-.07-.05-.09-.17-.09v-.05h.45v.02c-.09,0-.17.05-.19.14l-.43.92-.02.02s-.02-.02-.05-.05c-.02-.02-.07-.17-.17-.43l-.14-.31c-.05-.12-.09-.19-.09-.21-.05-.07-.09-.09-.17-.09v-.05ZM16.45,19.07l.57.64s.09.12.14.14v-.57s-.02-.07-.02-.12c-.02-.02-.12-.05-.19-.05v-.05h.5v.02s.02.02.02.02c-.12,0-.21.07-.21.24v.8s-.02.02-.05.02c0,0-.02,0-.02-.02l-.78-.83v.59s.02.09.05.12c.05.02.09.05.14.05v.05h-.47v-.05c.07,0,.12-.02.17-.07.02-.05.02-.09.02-.14v-.57s-.02-.09-.05-.12c-.02-.02-.02-.05-.05-.05-.05-.02-.07-.05-.12-.05v-.05h.31s.02.02.05.02ZM10.97,20.89c-.09.05-.19.14-.21.24h-.05v-.31s0-.02.02-.02h1.09v.05l-.05.31h-.02s-.05-.12-.07-.17c-.05-.07-.12-.09-.21-.12h-.12v.83c0,.12.07.12.19.14v.05h-.61v-.05c.17-.02.19-.05.21-.09v-.87s-.12,0-.17.02ZM11.16,23.59s.12-.02.17-.05c.02-.05.05-.12.05-.17v-.64c0-.12-.07-.12-.19-.14v-.05h.97s.05,0,.05.02l.02.26h-.05c-.05-.07-.09-.14-.17-.19-.02-.02-.07-.02-.09-.02h-.26l-.02.05v.35h.05s.09,0,.12-.02c.05-.02.09-.05.12-.07,0-.02.02-.07.02-.09h.07v.45h-.05c0-.09-.02-.17-.09-.19-.05-.02-.07-.02-.12-.02h-.07v.28s0,.09.02.14c.02.02.05.05.07.07h.26s.07,0,.12-.02c.07-.07.14-.14.17-.24h.07v.28q-.12.05-.17.05h-1.06v-.05ZM11.97,19.14v-.05h.97s.05,0,.05.02l.02.26h-.05c-.05-.07-.09-.14-.17-.19-.02-.02-.07-.02-.09-.02h-.26l-.02.05v.35h.05s.09,0,.12-.02c.05-.02.09-.05.12-.07,0-.02.02-.07.02-.09h.07v.45h-.05c0-.09-.02-.17-.09-.19-.05-.02-.07-.02-.12-.02h-.07v.28s0,.09.02.14l.07.07h.26s.07,0,.12-.02c.07-.07.14-.14.17-.24h.05v.28c-.09.02-.09.05-.14.05h-1.06v-.05s.12-.02.17-.05c.02-.05.05-.12.05-.17v-.64c0-.12-.07-.12-.19-.14ZM13.43,22.64s-.12-.05-.19-.05v-.05h.5v.02q.09,0,.09.02c-.12,0-.21.07-.21.24v.8s-.02.02-.05.02c0,0-.02,0-.02-.02l-.78-.83v.59s.02.09.05.12c.05.02.09.05.14.05v.05h-.52v-.05c.07,0,.12-.02.17-.07.02-.05.02-.09.02-.14v-.57s-.02-.09-.05-.12c-.02-.02-.02-.05-.05-.05-.05-.02-.07-.05-.12-.05v-.05h.31s.02.02.02.02l.57.64s.09.12.14.14v-.57s-.02-.07-.02-.12ZM14.02,21.58s-.07-.07-.12-.07c-.05-.02-.21-.07-.28-.09-.05-.02-.12-.07-.14-.12-.05-.05-.07-.12-.07-.21,0-.17.14-.31.33-.31h.02c.09,0,.19.02.26.07.02-.02.05-.05.07-.07.02,0,.05,0,.05.02,0,.05-.02.09-.02.14,0,.02.02.14.02.17-.02,0-.02.02-.05.02h-.02s-.05-.14-.09-.19c-.05-.07-.14-.09-.21-.09-.09,0-.19.07-.19.17s.07.14.14.17c.05.02.09.05.17.05.07.02.12.05.17.07.12.05.19.17.19.28-.05.21-.21.35-.43.35-.09,0-.17-.02-.26-.07h-.05s-.05.02-.07.05c-.02,0-.05,0-.07-.02,0-.02.02-.09.02-.14v-.19s.02-.02.05-.02h.02c.02.07.07.14.09.21.07.07.14.12.24.12.07,0,.12-.02.19-.05.05-.02.07-.07.07-.14,0-.05,0-.07-.02-.09ZM13.19,21.84c-.09.07-.12.07-.14.07h-1.06v-.07s.12-.02.17-.05c.02-.02.02-.07.05-.17v-.64c0-.12-.05-.12-.19-.14v-.02s0-.02.02-.02h.94s.05,0,.05.02l.02.26h-.05c-.05-.07-.09-.14-.17-.19-.02-.02-.07-.02-.09-.02h-.26s-.02,0-.02.05v.35h.05s.09,0,.12-.02c.05-.02.09-.05.12-.07,0-.02.02-.07.02-.09h.07s-.02.14-.02.24v.21h-.05c0-.09-.02-.17-.09-.19-.05-.02-.07-.02-.12-.02h-.07v.28s0,.09.02.14c0,.02.05.05.07.07h.26s.07,0,.12-.02c.07-.07.14-.14.19-.24h.05v.28ZM20,21.01s-.02.05-.02.14v.54c0,.13.02.19.04.21h-.44v-.05h.12s.07-.07.07-.14v-.8l-.24.52s-.05.12-.07.19c-.05.07-.07.17-.09.26,0,.02-.02.02-.05.02s-.02,0-.02-.02c-.02-.07-.05-.12-.07-.14l-.38-.8v.73c0,.17.07.24.21.24v.05h-.5v-.05s.12-.02.17-.05c.02-.02.05-.07.05-.19v-.57c0-.09-.02-.12-.05-.17-.05-.02-.09-.02-.14-.02v-.05h.45l.02.02.33.76.05-.14c.05-.12.12-.31.24-.5.02-.05.05-.09.07-.12h.43v.05s-.12,0-.17.07ZM18.63,20.04c-.21.21-.57.21-.78,0-.11-.12-.16-.27-.16-.41s.05-.3.16-.41c.09-.09.24-.17.38-.17.09,0,.21.02.28.07.17.09.26.28.26.5.02.14-.05.31-.14.43ZM17.75,20.92s.05-.09.05-.12.02-.02.05-.02.05,0,.05.02.02.02.02.05c.07.14.12.28.19.47.05.09.07.17.09.26.02.07.05.12.07.17.05.09.12.09.17.09v.07h-.57v-.05c.12,0,.14-.02.14-.07s-.02-.09-.02-.14c-.02-.07-.05-.12-.05-.14,0,0,0-.02-.02-.02h-.35c-.05.07-.07.14-.07.21v.07s.02.07.17.07v.05h-.45v-.05c.07,0,.12-.02.17-.07.05-.09.09-.19.14-.28.07-.14.14-.33.17-.4.05-.09.07-.12.07-.17ZM17.78,22.55l.02.02v.02s-.17,0-.17.07v.07l.28.66.24-.54s.02-.09.02-.14c0-.07-.05-.09-.17-.09v-.05h.45v.02c-.09,0-.17.05-.19.14l-.43.92-.02.02s-.02-.02-.05-.05c0-.02-.07-.17-.17-.43l-.14-.31c-.05-.12-.09-.19-.09-.21-.05-.07-.09-.09-.17-.09v-.05h.57ZM17.16,20.84l-.05.31h-.02s-.05-.12-.07-.17c-.05-.07-.12-.12-.21-.12h-.12v.83c0,.12.07.12.19.14v.05h-.61v-.05c.17-.02.19-.05.21-.09v-.87s-.12,0-.17.02c-.09.05-.19.14-.21.24h-.05v-.31s0-.02.02-.02h1.09v.05ZM17.09,22.55h.05v.05l-.05.28h-.02s-.05-.12-.07-.17c-.05-.07-.12-.09-.21-.12h-.12v.83c0,.12.07.12.19.14v.05h-.61v-.05c.17-.02.19-.05.21-.09v-.87s-.12,0-.17.02c-.09.05-.19.14-.21.24h-.05v-.28s0-.02.02-.02h1.04ZM20.23,22.69s-.12,0-.17.07c-.02.02-.02.05-.02.14v.54c0,.1,0,.16.02.19h.09s0-.02.06.07c0,0,0,0,.01,0v.02s-.01-.02-.01-.03c-.04,0-.08-.02-.1-.02-.01,0-.03,0-.05-.05h-.47v-.05h.12s.07-.07.07-.14v-.78l-.24.52s-.05.12-.09.19c-.05.12-.07.21-.09.26,0,.02-.02.02-.05.02s-.02,0-.02-.02c-.02-.07-.05-.12-.05-.14l-.38-.8v.73c0,.17.07.24.21.24v.05h-.5v-.05s.12-.02.17-.05c.02-.05.05-.12.05-.19v-.57c0-.09,0-.12-.05-.17-.05-.02-.09-.02-.14-.02v-.05h.45l.02.02.33.76.07-.14c.07-.17.14-.33.24-.5.02-.05.05-.09.07-.12h.43l.02.02v.02ZM19.55,19.1v.02s-.17,0-.17.07v.07l.28.66.24-.54s.02-.09.02-.14c0-.07-.05-.09-.17-.09v-.05h.45s0,.02-.02.02c-.09,0-.17.05-.19.14l-.43.92-.02.02s-.02-.02-.05-.05-.07-.17-.17-.43l-.14-.31c-.05-.12-.09-.19-.09-.21-.05-.07-.09-.09-.17-.09v-.05h.59l.02.02ZM14.35,19.1v.32s0,0-.02,0h-.02s-.05-.12-.07-.17c-.05-.07-.12-.09-.21-.12h-.12v.83c0,.12.05.12.19.14v.05h-.61v-.05c.17-.02.19-.05.19-.09v-.87s-.12,0-.17.02c-.09.05-.19.14-.21.24h-.05v-.28s0-.02.02-.02h1.09ZM18.23,19.1c-.09,0-.17.05-.21.12-.07.12-.12.26-.09.4,0,.14.02.26.09.38.05.07.12.12.21.12s.19-.05.24-.14c.05-.12.07-.24.07-.35.02-.14-.02-.28-.09-.4-.05-.07-.14-.12-.21-.12ZM17.56,21.44h.33c-.02-.09-.12-.28-.17-.4-.02.05-.07.14-.07.19-.05.14-.07.19-.09.21ZM18.44,19.22c-.05-.07-.14-.12-.21-.12-.09,0-.17.05-.21.12-.07.12-.12.26-.09.4,0,.14.02.26.09.38.05.07.12.12.21.12s.19-.05.24-.14c.05-.12.07-.24.07-.35.02-.14-.02-.28-.09-.4ZM17.73,21.03s-.07.14-.07.19c-.05.14-.07.19-.09.21h.33c-.02-.09-.12-.28-.17-.4ZM18.44,19.22c-.05-.07-.14-.12-.21-.12-.09,0-.17.05-.21.12-.07.12-.12.26-.09.4,0,.14.02.26.09.38.05.07.12.12.21.12s.19-.05.24-.14c.05-.12.07-.24.07-.35.02-.14-.02-.28-.09-.4ZM17.73,21.03s-.07.14-.07.19c-.05.14-.07.19-.09.21h.33c-.02-.09-.12-.28-.17-.4ZM18.44,19.22c-.05-.07-.14-.12-.21-.12-.09,0-.17.05-.21.12-.07.12-.12.26-.09.4,0,.14.02.26.09.38.05.07.12.12.21.12s.19-.05.24-.14c.05-.12.07-.24.07-.35.02-.14-.02-.28-.09-.4ZM17.73,21.03s-.07.14-.07.19c-.05.14-.07.19-.09.21h.33c-.02-.09-.12-.28-.17-.4ZM18.44,19.22c-.05-.07-.14-.12-.21-.12-.09,0-.17.05-.21.12-.07.12-.12.26-.09.4,0,.14.02.26.09.38.05.07.12.12.21.12s.19-.05.24-.14c.05-.12.07-.24.07-.35.02-.14-.02-.28-.09-.4ZM17.73,21.03s-.07.14-.07.19c-.05.14-.07.19-.09.21h.33c-.02-.09-.12-.28-.17-.4ZM18.44,19.22c-.05-.07-.14-.12-.21-.12-.09,0-.17.05-.21.12-.07.12-.12.26-.09.4,0,.14.02.26.09.38.05.07.12.12.21.12s.19-.05.24-.14c.05-.12.07-.24.07-.35.02-.14-.02-.28-.09-.4ZM17.73,21.03s-.07.14-.07.19c-.05.14-.07.19-.09.21h.33c-.02-.09-.12-.28-.17-.4ZM18.44,19.22c-.05-.07-.14-.12-.21-.12-.09,0-.17.05-.21.12-.07.12-.12.26-.09.4,0,.14.02.26.09.38.05.07.12.12.21.12s.19-.05.24-.14c.05-.12.07-.24.07-.35.02-.14-.02-.28-.09-.4ZM17.73,21.03s-.07.14-.07.19c-.05.14-.07.19-.09.21h.33c-.02-.09-.12-.28-.17-.4ZM18.44,19.22c-.05-.07-.14-.12-.21-.12-.09,0-.17.05-.21.12-.07.12-.12.26-.09.4,0,.14.02.26.09.38.05.07.12.12.21.12s.19-.05.24-.14c.05-.12.07-.24.07-.35.02-.14-.02-.28-.09-.4ZM18.44,19.22c-.05-.07-.14-.12-.21-.12-.09,0-.17.05-.21.12-.07.12-.12.26-.09.4,0,.14.02.26.09.38.05.07.12.12.21.12s.19-.05.24-.14c.05-.12.07-.24.07-.35.02-.14-.02-.28-.09-.4Z"/>
  <path class="cls-1" d="M18.44,19.22c-.05-.07-.14-.12-.21-.12-.09,0-.17.05-.21.12-.07.12-.12.26-.09.4,0,.14.02.26.09.38.05.07.12.12.21.12s.19-.05.24-.14c.05-.12.07-.24.07-.35.02-.14-.02-.28-.09-.4ZM18.44,19.22c-.05-.07-.14-.12-.21-.12-.09,0-.17.05-.21.12-.07.12-.12.26-.09.4,0,.14.02.26.09.38.05.07.12.12.21.12s.19-.05.24-.14c.05-.12.07-.24.07-.35.02-.14-.02-.28-.09-.4ZM17.73,21.03s-.07.14-.07.19c-.05.14-.07.19-.09.21h.33c-.02-.09-.12-.28-.17-.4ZM18.44,19.22c-.05-.07-.14-.12-.21-.12-.09,0-.17.05-.21.12-.07.12-.12.26-.09.4,0,.14.02.26.09.38.05.07.12.12.21.12s.19-.05.24-.14c.05-.12.07-.24.07-.35.02-.14-.02-.28-.09-.4ZM17.73,21.03s-.07.14-.07.19c-.05.14-.07.19-.09.21h.33c-.02-.09-.12-.28-.17-.4ZM18.44,19.22c-.05-.07-.14-.12-.21-.12-.09,0-.17.05-.21.12-.07.12-.12.26-.09.4,0,.14.02.26.09.38.05.07.12.12.21.12s.19-.05.24-.14c.05-.12.07-.24.07-.35.02-.14-.02-.28-.09-.4ZM17.73,21.03s-.07.14-.07.19c-.05.14-.07.19-.09.21h.33c-.02-.09-.12-.28-.17-.4ZM18.44,19.22c-.05-.07-.14-.12-.21-.12-.09,0-.17.05-.21.12-.07.12-.12.26-.09.4,0,.14.02.26.09.38.05.07.12.12.21.12s.19-.05.24-.14c.05-.12.07-.24.07-.35.02-.14-.02-.28-.09-.4ZM17.73,21.03s-.07.14-.07.19c-.05.14-.07.19-.09.21h.33c-.02-.09-.12-.28-.17-.4ZM18.44,19.22c-.05-.07-.14-.12-.21-.12-.09,0-.17.05-.21.12-.07.12-.12.26-.09.4,0,.14.02.26.09.38.05.07.12.12.21.12s.19-.05.24-.14c.05-.12.07-.24.07-.35.02-.14-.02-.28-.09-.4ZM17.73,21.03s-.07.14-.07.19c-.05.14-.07.19-.09.21h.33c-.02-.09-.12-.28-.17-.4ZM18.44,19.22c-.05-.07-.14-.12-.21-.12-.09,0-.17.05-.21.12-.07.12-.12.26-.09.4,0,.14.02.26.09.38.05.07.12.12.21.12s.19-.05.24-.14c.05-.12.07-.24.07-.35.02-.14-.02-.28-.09-.4ZM17.73,21.03s-.07.14-.07.19c-.05.14-.07.19-.09.21h.33c-.02-.09-.12-.28-.17-.4ZM18.44,19.22c-.05-.07-.14-.12-.21-.12-.09,0-.17.05-.21.12-.07.12-.12.26-.09.4,0,.14.02.26.09.38.05.07.12.12.21.12s.19-.05.24-.14c.05-.12.07-.24.07-.35.02-.14-.02-.28-.09-.4ZM21.67,22.71v-1.98h.73v-1.25h-.76v-.87l-.78-.21h-.07v-.73s-.26.33-1.51.33c-1.18,0-1.87-.38-2.79-.38-.45-.05-.9.14-1.18.52v.31h-.02v-.31c-.28-.38-.71-.57-1.18-.52-.94,0-1.63.38-2.79.38-1.23,0-1.46-.33-1.46-.33v.78h-.05l-.85.19v.87h-.76v1.23h.76v1.98h-.76v1.23h.76v1.51c.8.12,1.61.19,2.43.19,1.37,0,2.17-.19,3.07-.21v.38c.26.12.54.19.85.19s.59-.07.87-.19v-.38c.9.02,1.68.21,3.07.21.8-.02,1.61-.07,2.41-.19v-1.51h.76v-1.23h-.76ZM17.92,23.4l.24-.54s.02-.09.02-.14c0-.07-.05-.09-.17-.09v-.05h.45v.02c-.09,0-.17.05-.19.14l-.43.92-.02.02s-.02-.02-.05-.05c0-.02-.07-.17-.17-.43l-.14-.31c-.05-.12-.09-.19-.09-.21-.05-.07-.09-.09-.17-.09v-.05h.57l.02.02v.02s-.17,0-.17.07v.07l.28.66ZM18.72,20.94s-.09-.02-.14-.02v-.05h.45l.02.02.33.76.05-.14c.05-.12.12-.31.24-.5.02-.05.05-.09.07-.12h.43v.05s-.12,0-.17.07c-.02.02-.02.05-.02.14v.54c0,.13.02.19.04.21h-.44v-.05h.12s.07-.07.07-.14v-.8l-.24.52s-.05.12-.07.19c-.05.07-.07.17-.09.26,0,.02-.02.02-.05.02s-.02,0-.02-.02c-.02-.07-.05-.12-.07-.14l-.38-.8v.73c0,.17.07.24.21.24v.05h-.5v-.05s.12-.02.17-.05c.02-.02.05-.07.05-.19v-.57c0-.09-.02-.12-.05-.17ZM20.07,23.63h-.47v-.05h.12s.07-.07.07-.14v-.78l-.24.52s-.05.12-.09.19c-.05.12-.07.21-.09.26,0,.02-.02.02-.05.02s-.02,0-.02-.02c-.02-.07-.05-.12-.05-.14l-.38-.8v.73c0,.17.07.24.21.24v.05h-.5v-.05s.12-.02.17-.05c.02-.05.05-.12.05-.19v-.57c0-.09,0-.12-.05-.17-.05-.02-.09-.02-.14-.02v-.05h.45l.02.02.33.76.07-.14c.07-.17.14-.33.24-.5.02-.05.05-.09.07-.12h.43l.02.02v.02s-.12,0-.17.07c-.02.02-.02.05-.02.14v.54c0,.1,0,.16.02.19M18.93,19.07h.59l.02.02v.02s-.17,0-.17.07v.07l.28.66.24-.54s.02-.09.02-.14c0-.07-.05-.09-.17-.09v-.05h.45s0,.02-.02.02c-.09,0-.17.05-.19.14l-.43.92-.02.02s-.02-.02-.05-.05-.07-.17-.17-.43l-.14-.31c-.05-.12-.09-.19-.09-.21-.05-.07-.09-.09-.17-.09v-.05ZM17.85,19.22c.09-.09.24-.17.38-.17.09,0,.21.02.28.07.17.09.26.28.26.5.02.14-.05.31-.14.43-.21.21-.57.21-.78,0-.11-.12-.16-.27-.16-.41s.05-.3.16-.41ZM17.68,21.08c.05-.09.07-.12.07-.17.02-.05.05-.09.05-.12s.02-.02.05-.02.05,0,.05.02.02.02.02.05c.07.14.12.28.19.47.05.09.07.17.09.26.02.07.05.12.07.17.05.09.12.09.17.09v.07h-.57v-.05c.12,0,.14-.02.14-.07s-.02-.09-.02-.14c-.02-.07-.05-.12-.05-.14,0,0,0-.02-.02-.02h-.35c-.05.07-.07.14-.07.21v.07s.02.07.17.07v.05h-.45v-.05c.07,0,.12-.02.17-.07.05-.09.09-.19.14-.28.07-.14.14-.33.17-.4ZM16.1,19.05h.31s.02.02.05.02l.57.64s.09.12.14.14v-.57s-.02-.07-.02-.12c-.02-.02-.12-.05-.19-.05v-.05h.5v.02s.02.02.02.02c-.12,0-.21.07-.21.24v.8s-.02.02-.05.02c0,0-.02,0-.02-.02l-.78-.83v.59s.02.09.05.12c.05.02.09.05.14.05v.05h-.47v-.05c.07,0,.12-.02.17-.07.02-.05.02-.09.02-.14v-.57s-.02-.09-.05-.12c-.02-.02-.02-.05-.05-.05-.05-.02-.07-.05-.12-.05v-.05ZM16.05,20.82s0-.02.02-.02h1.09v.05l-.05.31h-.02s-.05-.12-.07-.17c-.05-.07-.12-.12-.21-.12h-.12v.83c0,.12.07.12.19.14v.05h-.61v-.05c.17-.02.19-.05.21-.09v-.87s-.12,0-.17.02c-.09.05-.19.14-.21.24h-.05v-.31ZM16.03,22.57s0-.02.02-.02h1.09v.05l-.05.28h-.02s-.05-.12-.07-.17c-.05-.07-.12-.09-.21-.12h-.12v.83c0,.12.07.12.19.14v.05h-.61v-.05c.17-.02.19-.05.21-.09v-.87s-.12,0-.17.02c-.09.05-.19.14-.21.24h-.05v-.28ZM11.68,23.02s.09,0,.12-.02c.05-.02.09-.05.12-.07,0-.02.02-.07.02-.09h.07v.45h-.05c0-.09-.02-.17-.09-.19-.05-.02-.07-.02-.12-.02h-.07v.28s0,.09.02.14c.02.02.05.05.07.07h.26s.07,0,.12-.02c.07-.07.14-.14.17-.24h.07v.28q-.12.05-.17.05h-1.06v-.05s.12-.02.17-.05c.02-.05.05-.12.05-.17v-.64c0-.12-.07-.12-.19-.14v-.05h.97s.05,0,.05.02l.02.26h-.05c-.05-.07-.09-.14-.17-.19-.02-.02-.07-.02-.09-.02h-.26l-.02.05v.35h.05ZM11.82,20.84l-.05.31h-.02s-.05-.12-.07-.17c-.05-.07-.12-.09-.21-.12h-.12v.83c0,.12.07.12.19.14v.05h-.61v-.05c.17-.02.19-.05.21-.09v-.87s-.12,0-.17.02c-.09.05-.19.14-.21.24h-.05v-.31s0-.02.02-.02h1.09v.05ZM14.02,21.58s-.07-.07-.12-.07c-.05-.02-.21-.07-.28-.09-.05-.02-.12-.07-.14-.12-.05-.05-.07-.12-.07-.21,0-.17.14-.31.33-.31h.02c.09,0,.19.02.26.07.02-.02.05-.05.07-.07.02,0,.05,0,.05.02,0,.05-.02.09-.02.14,0,.02.02.14.02.17-.02,0-.02.02-.05.02h-.02s-.05-.14-.09-.19c-.05-.07-.14-.09-.21-.09-.09,0-.19.07-.19.17s.07.14.14.17c.05.02.09.05.17.05.07.02.12.05.17.07.12.05.19.17.19.28-.05.21-.21.35-.43.35-.09,0-.17-.02-.26-.07h-.05s-.05.02-.07.05c-.02,0-.05,0-.07-.02,0-.02.02-.09.02-.14v-.19s.02-.02.05-.02h.02c.02.07.07.14.09.21.07.07.14.12.24.12.07,0,.12-.02.19-.05.05-.02.07-.07.07-.14,0-.05,0-.07-.02-.09ZM13.24,19.12s0-.02.02-.02h1.09v.32s0,0-.02,0h-.02s-.05-.12-.07-.17c-.05-.07-.12-.09-.21-.12h-.12v.83c0,.12.05.12.19.14v.05h-.61v-.05c.17-.02.19-.05.19-.09v-.87s-.12,0-.17.02c-.09.05-.19.14-.21.24h-.05v-.28ZM13.24,22.55h.5v.02q.09,0,.09.02c-.12,0-.21.07-.21.24v.8s-.02.02-.05.02c0,0-.02,0-.02-.02l-.78-.83v.59s.02.09.05.12c.05.02.09.05.14.05v.05h-.52v-.05c.07,0,.12-.02.17-.07.02-.05.02-.09.02-.14v-.57s-.02-.09-.05-.12c-.02-.02-.02-.05-.05-.05-.05-.02-.07-.05-.12-.05v-.05h.31s.02.02.02.02l.57.64s.09.12.14.14v-.57s-.02-.07-.02-.12c-.02-.02-.12-.05-.19-.05v-.05ZM13.19,21.84c-.09.07-.12.07-.14.07h-1.06v-.07s.12-.02.17-.05c.02-.02.02-.07.05-.17v-.64c0-.12-.05-.12-.19-.14v-.02s0-.02.02-.02h.94s.05,0,.05.02l.02.26h-.05c-.05-.07-.09-.14-.17-.19-.02-.02-.07-.02-.09-.02h-.26s-.02,0-.02.05v.35h.05s.09,0,.12-.02c.05-.02.09-.05.12-.07,0-.02.02-.07.02-.09h.07s-.02.14-.02.24v.21h-.05c0-.09-.02-.17-.09-.19-.05-.02-.07-.02-.12-.02h-.07v.28s0,.09.02.14c0,.02.05.05.07.07h.26s.07,0,.12-.02c.07-.07.14-.14.19-.24h.05v.28ZM11.94,20.14s.12-.02.17-.05c.02-.05.05-.12.05-.17v-.64c0-.12-.07-.12-.19-.14v-.05h.97s.05,0,.05.02l.02.26h-.05c-.05-.07-.09-.14-.17-.19-.02-.02-.07-.02-.09-.02h-.26l-.02.05v.35h.05s.09,0,.12-.02c.05-.02.09-.05.12-.07,0-.02.02-.07.02-.09h.07v.45h-.05c0-.09-.02-.17-.09-.19-.05-.02-.07-.02-.12-.02h-.07v.28s0,.09.02.14l.07.07h.26s.07,0,.12-.02c.07-.07.14-.14.17-.24h.05v.28c-.09.02-.09.05-.14.05h-1.06v-.05ZM10.57,19.07h.59v.05s-.17,0-.17.07v.07l.28.66.24-.54s.02-.09.02-.14c0-.07-.05-.09-.17-.09v-.05h.45v.02c-.09,0-.17.05-.19.14l-.43.92-.02.02s-.02-.02-.05-.05c-.02-.02-.07-.17-.17-.43l-.14-.31c-.05-.12-.09-.19-.09-.21-.05-.07-.09-.09-.17-.09v-.05ZM18.01,19.99c.05.07.12.12.21.12s.19-.05.24-.14c.05-.12.07-.24.07-.35.02-.14-.02-.28-.09-.4-.05-.07-.14-.12-.21-.12-.09,0-.17.05-.21.12-.07.12-.12.26-.09.4,0,.14.02.26.09.38ZM17.73,21.03s-.07.14-.07.19c-.05.14-.07.19-.09.21h.33c-.02-.09-.12-.28-.17-.4ZM18.44,19.22c-.05-.07-.14-.12-.21-.12-.09,0-.17.05-.21.12-.07.12-.12.26-.09.4,0,.14.02.26.09.38.05.07.12.12.21.12s.19-.05.24-.14c.05-.12.07-.24.07-.35.02-.14-.02-.28-.09-.4ZM17.73,21.03s-.07.14-.07.19c-.05.14-.07.19-.09.21h.33c-.02-.09-.12-.28-.17-.4ZM18.44,19.22c-.05-.07-.14-.12-.21-.12-.09,0-.17.05-.21.12-.07.12-.12.26-.09.4,0,.14.02.26.09.38.05.07.12.12.21.12s.19-.05.24-.14c.05-.12.07-.24.07-.35.02-.14-.02-.28-.09-.4ZM17.73,21.03s-.07.14-.07.19c-.05.14-.07.19-.09.21h.33c-.02-.09-.12-.28-.17-.4ZM18.44,19.22c-.05-.07-.14-.12-.21-.12-.09,0-.17.05-.21.12-.07.12-.12.26-.09.4,0,.14.02.26.09.38.05.07.12.12.21.12s.19-.05.24-.14c.05-.12.07-.24.07-.35.02-.14-.02-.28-.09-.4ZM17.73,21.03s-.07.14-.07.19c-.05.14-.07.19-.09.21h.33c-.02-.09-.12-.28-.17-.4ZM18.44,19.22c-.05-.07-.14-.12-.21-.12-.09,0-.17.05-.21.12-.07.12-.12.26-.09.4,0,.14.02.26.09.38.05.07.12.12.21.12s.19-.05.24-.14c.05-.12.07-.24.07-.35.02-.14-.02-.28-.09-.4ZM17.73,21.03s-.07.14-.07.19c-.05.14-.07.19-.09.21h.33c-.02-.09-.12-.28-.17-.4ZM18.44,19.22c-.05-.07-.14-.12-.21-.12-.09,0-.17.05-.21.12-.07.12-.12.26-.09.4,0,.14.02.26.09.38.05.07.12.12.21.12s.19-.05.24-.14c.05-.12.07-.24.07-.35.02-.14-.02-.28-.09-.4ZM17.73,21.03s-.07.14-.07.19c-.05.14-.07.19-.09.21h.33c-.02-.09-.12-.28-.17-.4ZM18.44,19.22c-.05-.07-.14-.12-.21-.12-.09,0-.17.05-.21.12-.07.12-.12.26-.09.4,0,.14.02.26.09.38.05.07.12.12.21.12s.19-.05.24-.14c.05-.12.07-.24.07-.35.02-.14-.02-.28-.09-.4ZM17.73,21.03s-.07.14-.07.19c-.05.14-.07.19-.09.21h.33c-.02-.09-.12-.28-.17-.4ZM18.44,19.22c-.05-.07-.14-.12-.21-.12-.09,0-.17.05-.21.12-.07.12-.12.26-.09.4,0,.14.02.26.09.38.05.07.12.12.21.12s.19-.05.24-.14c.05-.12.07-.24.07-.35.02-.14-.02-.28-.09-.4ZM18.44,19.22c-.05-.07-.14-.12-.21-.12-.09,0-.17.05-.21.12-.07.12-.12.26-.09.4,0,.14.02.26.09.38.05.07.12.12.21.12s.19-.05.24-.14c.05-.12.07-.24.07-.35.02-.14-.02-.28-.09-.4Z"/>
  <path class="cls-4" d="M20.97,18.58l-.02,6.09s-.33.38-1.61.38l-1.58-.21-1.2-.17c-.4-.05-.8.12-1.06.45l-.05-.02h-.19l-.05.02c-.24-.33-.66-.5-1.06-.45l-1.2.17-1.58.21c-1.25,0-1.51-.31-1.58-.45v-5.98c-.19.05-.54.12-.66.14v6.59c.76.12,1.54.19,2.29.19,1.02-.02,2.03-.09,3.05-.21l.14-.02v.45c.24.09.47.14.71.14s.5-.05.73-.14v-.45l.14.02c1.02.12,2.03.19,3.05.21.78-.02,1.54-.07,2.29-.19h.02v-6.61c-.09-.02-.4-.12-.57-.17Z"/>
  <path class="cls-3" d="M11.78,21.15s.02,0,0,0h0Z"/>
  <path class="cls-4" d="M141.63,16.99c0-.07-.02-.14-.05-.19h-.31c-.71,0-1.16.02-2.46.02-.45,0-1.09-.02-1.25-.02h-.38s-.05.19-.05.24c0,.09.02.17.07.24.5.07.99.21,1.46.4.26.45.43.94.43,1.46.02.21.02.43.02,1.02v2.98c0,.21,0,.4-.02.61-.24-.26-.59-.78-1.16-1.42l-4.77-5.27c-.07-.07-.14-.14-.21-.19-.12,0-.31-.02-.43-.02-.92,0-2.57-.05-2.81-.05-.02.07-.05.12-.05.19,0,.09.02.19.05.28.4.07.78.26,1.06.54.28.26.54.57.76.9.05.14.07.31.05.45,0,.73-.05,1.77-.05,2.79v2.91c0,.35-.02.73-.09,1.09-.43.38-.94.64-1.49.73-.02.07-.05.17-.05.26,0,.05.02.19.05.19h.26c.28,0,.94-.05,1.37-.05.64,0,1.06.05,1.63.05h.85s.07-.19.07-.24c0-.07-.02-.17-.05-.24-.66-.07-1.28-.4-1.7-.87-.12-.59-.19-1.18-.19-1.77,0-.45-.02-1.09-.02-1.91,0-1.13.02-2.1.02-2.6.09.09.19.24.26.31l6.59,7.39c.12.07.26.09.4.09.05,0,.12,0,.17-.02.09-.21.12-.43.12-.64,0-.4-.02-.85-.02-1.06v-5.95c0-1.77.85-2.29,1.82-2.32.09-.12.09-.21.09-.31M125.31,21.53c0,2.15-.59,4.04-1.42,4.72-.43.35-.97.52-1.51.52-.76.05-1.49-.33-1.89-.94-.59-1.13-.87-2.41-.85-3.71,0-1.98.52-3.54,1.42-4.3.4-.35.94-.54,1.49-.54.76,0,1.49.35,1.94.99.57.71.83,1.8.83,3.26M127.88,21.81c.07-1.84-.9-3.57-2.53-4.44-.83-.47-1.75-.73-2.72-.73-1.94.02-3.76,1.02-4.8,2.65-.54.87-.83,1.87-.83,2.88,0,1.63.76,3.17,2.03,4.18.94.69,2.08,1.04,3.26,1.02.73,0,1.46-.14,2.17-.4.76-.28,1.44-.76,1.98-1.35.94-1.04,1.44-2.41,1.42-3.8M115.36,20.02v-2.91c0-.21-.09-.26-.31-.26-.43,0-2.67.05-4.96.05-1.77,0-3.24-.02-4.04-.02h-1.06c-.19,0-.24.05-.24.24v2.72c.07.05.14.07.24.05.09,0,.21,0,.31-.02.64-1.3,1.23-1.98,1.98-2.39.43-.05,1.28-.05,1.49-.05.02.17.02.66.05,1.25.02,1.02.02,1.46.02,3.9,0,2.1-.02,3.05-.05,3.26-.05.4.02.71-1.7.78-.05.09-.05.21-.05.33,0,.07,0,.14.02.24h.54c.52,0,1.77-.05,2.29-.05.4,0,1.75.05,2.6.05h.4c.05-.09.05-.19.05-.31,0-.09-.02-.19-.05-.26-.5.05-1.02-.05-1.46-.26-.09-.35-.14-.71-.12-1.06-.02-1.54-.02-2.13-.02-3.14,0-1.32.02-2.22.02-4.68.19,0,.66-.02,1.09,0,.69.14,1.28.52,1.7,1.09.31.5.57,1.02.76,1.56.07.02.17.02.24.02.07-.07.17-.09.26-.12M103.08,24.65c0-.14,0-.28-.02-.4-.07-.05-.14-.05-.21-.05-.09,0-.21,0-.31.02-.33.85-.87,1.58-1.56,2.17-.33.14-.71.19-1.06.17h-1.16c-.31,0-.64-.02-.94-.07-.21-.05-.45-.38-.54-.61-.14-.28-.19-.59-.17-.9v-3.12h.52c.31,0,.59.07.87.19s.5.33.64.59c.12.38.21.78.24,1.18.12.05.24.07.38.05.09,0,.19-.02.28-.07,0-.38-.09-1.42-.09-1.98,0-.71.09-1.7.14-2.2-.09-.05-.19-.07-.28-.05-.12,0-.26,0-.38.05-.05.19-.19.8-.24.85-.21.35-.57.61-.97.73-.26.07-.54.09-.83.12h-.28v-1.32c0-1.37.02-1.82.05-2.08.02-.17.05-.35.05-.5.28-.02.57-.05.85-.02.83,0,1.2.02,1.35.02.33,0,.64.09.92.28.57.5,1.02,1.09,1.37,1.77.09.02.19.02.31.02.09,0,.09-.02.21-.09,0-.87-.05-1.98-.09-2.36-.02-.14-.05-.19-.33-.19-.12,0-.66-.02-1.23-.02-.8,0-1.13.02-2.39.02-.66,0-2.06.02-2.65.02-.85,0-1.58-.02-1.96-.02h-.47c-.05.07-.07.14-.07.24s.02.19.07.28c.35.02.71.07,1.04.17.31.21.5.54.52.92.02.31.05,1.13.05,1.77v2.93c0,.59-.02,1.46-.02,1.82-.02.47-.14.92-.31,1.35-.4.14-.85.21-1.28.21-.05.09-.07.21-.07.31s.02.19.07.26h.47c.45,0,2.15-.05,2.53-.05.35,0,1.04.02,1.87.02.45,0,1.8.09,4.68.09.12,0,.26,0,.38-.02.05-.07.07-.14.05-.24.02-.28.02-1.11.02-2.27M91.01,25.14c-.07-.21-.26-.35-.5-.33-.02,0-.07.02-.09.02-.85,1.2-1.8,1.68-2.86,1.68-1.25,0-2.39-.73-2.88-1.89-.28-.83-.45-1.7-.45-2.6-.02-.85.12-1.7.43-2.5.64-1.65,1.54-2.17,2.65-2.17.92.05,1.77.52,2.29,1.28.33.54.57,1.11.73,1.72.09.02.21.05.31.05.12,0,.24-.05.33-.12-.02-.17-.17-1.25-.17-1.61,0-.43.12-1.13.12-1.39-.17-.09-.35-.14-.54-.17-.19.17-.35.38-.5.59-.9-.71-2.03-1.06-3.17-1.02-1.35-.05-2.62.47-3.57,1.42-1.04,1.06-1.58,2.53-1.54,4.02-.05,1.65.71,3.24,2.01,4.25.99.66,2.15.99,3.33.94,1.75,0,3-.66,3.64-1.54.19-.19.33-.4.43-.64M79.93,16.99c0-.07-.02-.14-.05-.19h-.33c-.71,0-1.16.02-2.46.02-.45,0-1.09-.02-1.25-.02h-.38s-.05.19-.05.24c0,.09.02.17.07.24.5.07.99.21,1.46.4.26.45.4.94.4,1.46.02.21.02.43.02,1.02v2.98c0,.21,0,.4-.02.61-.24-.26-.59-.78-1.16-1.42l-4.75-5.27c-.07-.07-.14-.14-.21-.19-.12,0-.31-.02-.43-.02-.92,0-2.57-.05-2.81-.05-.02.07-.05.12-.05.19,0,.09.02.19.05.28.4.07.78.26,1.06.54.28.26.54.57.76.9.05.14.07.31.05.45,0,.73-.05,1.77-.05,2.79v2.91c0,.35-.02.73-.09,1.09-.43.38-.94.64-1.49.73-.02.09-.05.17-.05.26,0,.05.02.19.05.19h.26c.28,0,.94-.05,1.37-.05.64,0,1.06.05,1.63.05h.85s.07-.19.07-.24c0-.07-.02-.17-.05-.24-.66-.07-1.25-.4-1.7-.87-.12-.59-.19-1.18-.19-1.77,0-.45-.02-1.09-.02-1.91,0-1.13.02-2.1.02-2.6.09.09.19.24.26.31l6.57,7.39c.12.07.26.09.4.09.05,0,.12,0,.17-.02.09-.21.12-.43.12-.64,0-.4-.02-.85-.02-1.06v-5.95c0-1.77.85-2.29,1.82-2.32.12-.12.14-.21.14-.31M65.82,26.87c0-.09-.02-.19-.05-.28-.35-.02-.71-.07-1.06-.12-.26-.31-.43-.69-.5-1.09-.02-.69-.02-2.1-.02-3.43v-3.5c-.02-.28.07-.54.26-.78.38-.24.83-.35,1.28-.38.02-.09.05-.19.05-.26s-.02-.17-.07-.24h-.4c-.59,0-1.98.07-2.48.07-.31,0-1.7-.05-2.32-.05h-.31c-.05.07-.07.17-.07.24,0,.09,0,.19.02.26.38,0,.76.07,1.11.21.33.31.5.76.47,1.2.02.26.02.85.05,2.17.02.71.02,1.7.02,2.53,0,.4-.02,1.35-.05,1.84-.02.28-.07.59-.19.85-.17.14-.35.4-1.39.47-.02.09-.05.19-.05.31s.02.17.02.24h.24c.57,0,1.98-.07,2.74-.07.21,0,1.7.05,2.17.05h.47c.02-.09.05-.17.05-.26M54.39,19.45c0,.87-.59,1.89-1.3,2.06-.38.09-.78.12-1.18.12-.17,0-.35,0-.52-.02l-.02-1.2v-2.65c0-.12.02-.21.09-.31.19-.07.4-.09.59-.09,1.11,0,1.61.09,1.98.78.26.4.38.85.35,1.32M58.53,26.89c0-.09-.02-.21-.07-.31-.33,0-.64-.05-.94-.19-.09-.12-.17-.24-.24-.35-.17-.57-.38-1.11-.61-1.63-.24-.64-.59-1.2-1.06-1.7-.33-.21-.69-.35-1.06-.47-.24-.09-.4-.17-.59-.24.19-.05.38-.07.59-.09,1.06-.14,1.3-.31,1.56-.52.57-.45.9-1.13.87-1.84.02-1.16-.71-2.2-1.77-2.6-.57-.12-1.13-.17-1.7-.17-1.06,0-2.57.09-3.28.09-.21,0-1.46-.02-1.96-.02-.21,0-.76-.02-.85-.02-.05.09-.07.17-.07.26s0,.17.02.26c.24.02.69.09.92.12.26.19.47.47.59.78.09,1.2.12,2.43.09,3.64,0,1.46.02,3.14-.05,3.69,0,.4-.24.76-.59.94-.26.05-.54.07-.8.09-.05.09-.07.19-.07.28,0,.07.02.17.05.24.21,0,2.39-.05,2.83-.05.92,0,1.68.05,2.5.05.02-.07.05-.14.05-.21,0-.09-.02-.21-.05-.31-.28-.02-.64-.12-.8-.14-.4-.19-.64-.59-.61-1.02l-.02-3.28c.12-.02.24-.02.38-.02.26,0,.52.09.76.24.47.24.85.59,1.13,1.04.5.97.78,1.98.9,3.07.05.31.17.57.43.59.12.02.87.05,1.42.05h2.03c.07-.07.09-.14.09-.24M43.05,19.52c.02.66-.24,1.32-.73,1.77-.43.28-.97.43-1.49.38-.21,0-.4,0-.61-.02-.12-.02-.19-.02-.19-.09l.02-4.18c.28-.05.54-.07.83-.07.97,0,1.56.24,1.84.85.24.43.33.87.33,1.37M45.6,19.57c.02-1.04-.59-2.01-1.54-2.48-.83-.26-1.68-.38-2.55-.33-1.09,0-2.81.09-3.57.09-.52,0-1.32-.05-1.77-.05-.05.07-.07.14-.07.24s0,.19.05.28c.26.09.71.17.99.24.24.21.35.5.38.8.05.5.07,1.13.07,2.22,0,3-.02,4.58-.05,4.94-.05.47-.38.85-.8,1.02-.28.07-.54.12-.83.14-.02.09-.02.19-.02.31,0,.07,0,.14.05.21.45,0,1.8-.05,2.32-.05,1.28,0,2.57.05,3.09.05h.35c.05-.07.05-.14.05-.24s0-.17-.02-.26c-.47,0-.94-.17-1.35-.45-.19-.24-.31-.54-.28-.85l-.05-3.14c.85.05,1.77.09,2.27.09.57,0,1.11-.09,1.65-.26.99-.45,1.65-1.44,1.63-2.53"/>
  <path class="cls-4" d="M141.87,32.89c0-.09-.05-.12-.09-.17-.59,0-1.35.05-1.65.05-.73,0-1.61-.05-1.98-.05q-.05.09-.05.17s0,.12.02.17c.4.09,1.02.19,1.13.38.09.17.14.35.12.54,0,.19-.02.35-.09.52-.12.35-.4.92-.78,1.7-.66,1.32-1.06,2.15-1.3,2.48-.38-.61-1.2-2.27-1.39-2.72l-.8-1.75c-.05-.12-.05-.26-.05-.38s0-.26.05-.38c.12-.26.57-.28,1.18-.35.02-.07.05-.14.05-.21,0-.09-.05-.07-.09-.14h-.26c-.94,0-.66.05-2.32.05-.69,0-1.54-.05-1.65-.05-.05.09-.09.12-.09.21,0,.07.02.12.05.17.94.24,1.23.4,1.35.59l2.5,4.89c.19.33.33.71.45,1.06.09.57.14,1.13.12,1.7.05.43-.12.85-.45,1.11-.38.09-.76.17-1.13.19-.05.05-.07.12-.07.19,0,.05.02.12.05.17.73,0,1.49-.02,1.91-.02.31,0,.76.02,1.61.02.5.02.85.02,1.11.02.05-.05.07-.12.07-.19s-.02-.14-.05-.19c-.43-.02-.85-.12-1.23-.28-.26-.24-.4-.57-.38-.92l-.12-2.15c0-.12.02-.24.05-.33.05-.14.09-.28.17-.4l2.2-4.35c.24-.38.54-.71.92-.94.31-.14.61-.24.92-.28,0,.02.02-.05.02-.12M130.36,35.85v-2.76c0-.21-.09-.26-.31-.26-.43,0-2.39.05-4.68.05-1.77,0-2.95-.02-3.76-.02h-1.06c-.19,0-.24.05-.24.24v2.57s.12.05.17.05.12,0,.17-.02c.54-1.23.85-1.89,1.8-2.39.43-.05,1.91-.05,2.15-.05.02.17.02.66.05,1.25.02,1.02.02,1.58.02,4.02,0,2.1-.02,3.17-.05,3.4-.05.4.02.71-1.7.78-.05.07-.05.17-.05.24,0,.05,0,.12.02.17h.54c.52,0,1.23-.05,1.75-.05.4,0,1.2.05,2.06.05h.4c.02-.07.05-.14.05-.21s-.02-.14-.05-.21c-.5.05-1.02-.05-1.46-.26-.09-.35-.14-.71-.12-1.06-.02-1.54-.02-2.27-.02-3.28,0-1.32.02-2.34.02-4.8.19,0,1.25-.02,1.68,0,.66.14,1.23.52,1.61,1.09.31.47.52.99.64,1.56.07.02.14.02.21.02.05-.05.12-.07.17-.09M118.5,42.89c0-.07-.02-.14-.05-.19-.21-.02-.8-.07-1.06-.12-.26-.31-.43-.69-.5-1.09-.02-.69-.02-2.24-.02-3.57v-3.61c0-.28.07-.54.26-.78.38-.24.83-.35,1.28-.38.02-.05.05-.12.05-.19s-.02-.12-.07-.17h-.4c-.59,0-1.46.07-1.94.07-.31,0-1.16-.05-1.77-.05h-.31s-.07.12-.07.19.02.12.02.19c.38,0,.76.07,1.11.19.33.31.5.76.47,1.2.02.26.02.99.05,2.32.02.71.02,1.68.02,2.5,0,.43-.02,1.49-.05,1.98-.02.28-.07.59-.19.85-.17.14-.35.4-1.39.47-.02.07-.05.14-.05.21,0,.12.02.12.02.19h.24c.57,0,1.46-.07,2.2-.07.21,0,1.16.05,1.63.05h.47c.02-.09.05-.14.05-.21M111.46,40.26c.02-1.09-.61-2.08-1.61-2.5-.5-.24-1.04-.45-1.58-.57-.71-.19-1.42-.45-2.06-.78-.54-.33-.87-.92-.85-1.56,0-.92.92-1.68,2.01-1.68.78,0,1.51.38,1.96.99.35.5.66,1.04.87,1.63.05.02.09.02.14.02.12,0,.24-.05.31-.14-.07-.43-.09-.85-.12-1.28.02-.38.05-.76.12-1.11-.09-.14-.26-.21-.43-.19-.21.14-.4.33-.57.52-.66-.59-1.54-.9-2.43-.87-1.75,0-3,1.18-3,2.72.02.57.19,1.11.52,1.56.35.47.83.83,1.39,1.04.4.17,2.27.73,2.53.83,1.13.45,1.56.83,1.56,1.84-.02.54-.26,1.06-.64,1.44-.4.45-.97.71-1.58.66-.92,0-1.8-.38-2.39-1.06-.43-.59-.76-1.23-.97-1.91-.07-.02-.14-.02-.19-.02-.09,0-.19.02-.26.09,0,.19.05,1.13.05,1.42,0,.43-.07.85-.17,1.28.09.17.26.28.45.28.21-.21.45-.35.71-.45.12,0,.24.05.33.12.71.47,1.54.73,2.39.71,2.06-.02,3.5-1.04,3.5-3.02M98.85,35.35c-.02.97-.66,1.82-1.56,2.13-.5.09-.99.12-1.49.12-.28,0-.59,0-.87-.02l-.02-1.25v-2.69c0-.19.05-.28.09-.33.33-.07.66-.09.99-.09,1.35,0,1.96.12,2.43.83.31.38.45.85.43,1.32M101.85,42.89c0-.07-.02-.14-.07-.21-.33,0-.64-.05-.94-.19-.09-.12-.17-.24-.24-.35-.17-.61-.38-1.2-.59-1.77-.24-.64-.59-1.2-1.06-1.7-.31-.21-.66-.35-1.02-.47-.24-.09-.4-.17-.59-.24.19-.05.38-.07.59-.09.54-.02,1.06-.19,1.51-.52.59-.43.94-1.11.94-1.84.02-1.16-.71-2.17-1.77-2.57-.57-.12-1.13-.17-1.7-.17-1.06,0-1.87.09-2.57.09-.21,0-.92-.02-1.42-.02-.21,0-.76-.02-.85-.02-.05.09-.07.14-.07.19,0,.07.02.14.02.19.24.02.69.09.92.12.28.19.47.45.59.78.07.45.09,1.75.09,3.76,0,1.46.02,3.28-.05,3.83,0,.4-.24.78-.59.94-.26.05-.54.07-.8.09-.05.05-.07.12-.07.19s.02.12.05.17c.19,0,1.84-.05,2.29-.05.92,0,1.13.05,1.96.05.02-.05.05-.09.05-.17s-.02-.14-.05-.21c-.28-.02-.64-.12-.8-.14-.38-.19-.64-.59-.61-1.02l-.02-3.57c.12-.02.52-.02.64-.02.4-.02.78.05,1.13.21.57.24,1.06.64,1.39,1.16.5.97.78,2.03.9,3.09.05.31.17.57.43.59.28.05.54.05.83.05h1.49s.07-.07.07-.14M89.9,40.74c0-.14,0-.28-.02-.4-.07-.05-.14-.05-.21-.05s-.12,0-.19.02c-.21.87-.73,1.65-1.46,2.17-.38.14-.8.19-1.2.17h-1.61c-.31,0-.64-.02-.94-.07-.21-.05-.45-.38-.54-.61-.14-.31-.19-.64-.17-.99v-3.26h.45c.4-.02.83.05,1.2.21.31.12.57.33.78.61.12.38.19.78.19,1.18.07.05.14.07.24.05.07,0,.17-.02.24-.07,0-.38-.09-1.42-.09-1.98,0-.71.09-1.58.14-2.1-.07-.05-.14-.07-.24-.05-.07,0-.17,0-.24.05-.05.21-.17.8-.19.85-.28.35-.66.64-1.09.76-.38.09-.78.12-1.18.12h-.24v-1.39c0-1.37.02-1.91.05-2.17.02-.17.05-.35.05-.5.12-.02.54-.02,1.2-.02.83,0,1.44.02,1.56.02.33,0,.64.09.92.28.59.45,1.04,1.06,1.28,1.77.05.02.12.02.17.02.09,0,.09-.02.21-.09,0-.87-.05-1.84-.09-2.22-.02-.14-.05-.19-.33-.19-.12,0-.66-.02-1.23-.02-.8,0-1.13.02-2.39.02-.66,0-1.84.02-2.43.02-.85,0-1.04-.02-1.42-.02h-.5s-.07.09-.07.17.02.14.07.21c.35.02.71.07,1.04.17.19.17.38.21.52.9.02.31.05,1.28.05,1.91v2.93c0,.59-.02,1.58-.02,1.94-.02.47-.14.94-.31,1.39-.43.14-.85.21-1.3.21-.05.07-.07.14-.07.24,0,.07.02.14.07.19h.47c.45,0,1.61-.05,1.98-.05.35,0,.85.02,1.68.02.45,0,1.8.09,4.68.09.12,0,.26,0,.38-.02.05-.07.07-.14.05-.24.12-.33.12-1.04.12-2.17M79.34,32.94s-.02-.14-.07-.17h-.5c-.33,0-.87.02-1.13.02-1.16,0-1.56-.07-1.75-.07h-.26c-.02.07-.07.12-.07.19,0,.05.02.09.02.17.33.05.66.12.99.21.24.24.35.57.35.9-.07.45-.17.87-.35,1.3l-2.29,5.65-2.81-7.13c.02-.33.19-.61.47-.8.31-.07.61-.09.92-.12.02-.07.05-.12.05-.19,0-.05-.02-.14-.07-.17h-.35c-.43,0-1.11.05-1.87.05-.33,0-.97-.02-1.61-.02h-.5s-.05.12-.05.17c0,.07,0,.12.05.17.43.12.83.28,1.2.5.45.85.83,1.7,1.18,2.6l1.18,2.86c.97,2.36,1.56,3.94,1.63,4.23.07.05,0,.09.12.09s.12-.02.14-.09l3.69-8.83c.12-.31.31-.57.52-.8.33-.26.73-.4,1.13-.45,0-.09.02-.17.02-.24M66.86,42.89c0-.07-.02-.14-.05-.19-.21-.02-.8-.07-1.06-.12-.26-.31-.43-.69-.5-1.09-.02-.69-.02-2.24-.02-3.57v-3.61c-.02-.28.07-.54.26-.78.38-.24.83-.38,1.28-.38.02-.05.05-.12.05-.19s-.02-.12-.07-.17h-.4c-.59,0-1.46.07-1.94.07-.31,0-1.16-.05-1.77-.05h-.31s-.07.12-.07.19.02.12.02.19c.38,0,.76.07,1.11.19.33.31.5.76.47,1.2.02.26.02.99.05,2.32.02.71.02,1.68.02,2.5,0,.43-.02,1.49-.05,1.98-.02.28-.07.59-.19.85-.17.14-.33.4-1.37.47-.02.07-.05.14-.05.21,0,.12.02.12.02.19h.24c.57,0,1.46-.07,2.2-.07.21,0,1.16.05,1.63.05h.47c0-.09.02-.14.02-.21M60.42,32.92s-.02-.09-.05-.14h-.33c-.71,0-1.02.02-2.32.02-.45,0-1.09-.02-1.25-.02h-.38s-.05.12-.05.19.02.12.07.17c.5.07.99.21,1.46.4.26.45.4.94.4,1.46.02.21.02.43.02,1.02v4.23c0,.21,0,.4-.02.61-.24-.26-.66-.8-1.2-1.46l-5.43-6.35c-.07-.07-.14-.14-.21-.19-.12,0-.26-.02-.38-.02-.92,0-1.7-.05-1.96-.05-.02.05-.05.09-.05.14,0,.07.02.12.02.19.4.05.78.19,1.11.4.26.26.5.52.69.85.05.14.07.31.05.45,0,.73-.05,2.1-.05,3.09v3.05c0,.35-.02.73-.09,1.09-.43.38-.94.64-1.49.73-.02.05-.05.12-.05.17s.02.12.05.14h.26c.28,0,.94-.05,1.37-.05.61,0,.92.05,1.49.05h.85s.07-.12.07-.19c0-.05-.02-.09-.05-.14-.66-.07-1.28-.4-1.7-.87-.12-.59-.19-1.18-.19-1.8,0-.45-.02-1.2-.02-2.03,0-1.13.02-2.67.02-3.19.09.09.21.26.31.38l6.76,7.91s.09.09.17.09.02,0,.09-.02c.05-.21.07-.43.07-.64,0-.4-.02-.85-.02-1.06v-6.05c0-1.77.85-2.29,1.82-2.32.12-.09.14-.17.14-.24M47.21,32.99c0-.07-.02-.14-.07-.19h-.4c-.45,0-1.04.02-1.56.02-.57,0-1.2-.02-1.63-.02h-.52s-.05.12-.05.19.02.12.05.19c.05,0,1.09.02,1.28.26.24.31.43.69.54,1.06.07.52.12,1.04.12,1.56,0,1.2,0,2.03-.02,2.46,0,.64-.09,1.28-.26,1.89-.4,1.23-1.32,1.84-2.79,1.84-.57,0-1.16-.12-1.68-.35-.73-.33-1.25-.99-1.37-1.8l-.07-4.28v-1.75c0-.33.4-.64.54-.8.35-.07.73-.12,1.09-.14.05-.05.07-.12.07-.19s-.05-.14-.09-.19l-.54.02c-.52.02-1.23.02-1.68.02-.69,0-1.2-.02-1.63-.02h-.59s-.07.12-.07.19.02.12.05.17c.45.05.76.09.94.14.24.14.4.38.5.64.02.19.05.64.05,1.54v3.43c-.02.64.02,1.28.14,1.91.17.73.61,1.35,1.23,1.75.78.47,1.7.71,2.6.69.85.02,1.7-.19,2.46-.59.71-.4,1.23-1.09,1.42-1.89.14-.54.24-1.13.24-1.7v-2.74c0-.52.02-1.16.02-1.42,0-.54.14-1.09.43-1.56.38-.12.78-.17,1.18-.19.07-.02.09-.07.09-.14"/>
</svg>