<svg width="120" height="40" viewBox="0 0 120 40" fill="none" xmlns="http://www.w3.org/2000/svg">
  <!-- Background circle -->
  <circle cx="20" cy="20" r="18" fill="url(#gradient1)" stroke="url(#gradient2)" stroke-width="2"/>
  
  <!-- Action 360 icon -->
  <path d="M12 20C12 15.58 15.58 12 20 12C24.42 12 28 15.58 28 20C28 24.42 24.42 28 20 28C15.58 28 12 24.42 12 20Z" fill="white" opacity="0.9"/>
  <path d="M16 20L20 16L24 20L20 24L16 20Z" fill="url(#gradient3)"/>
  
  <!-- Text -->
  <text x="45" y="16" font-family="Inter, sans-serif" font-size="12" font-weight="700" fill="url(#gradient4)">Action</text>
  <text x="45" y="28" font-family="Inter, sans-serif" font-size="12" font-weight="700" fill="url(#gradient5)">360</text>
  
  <!-- Gradients -->
  <defs>
    <linearGradient id="gradient1" x1="0%" y1="0%" x2="100%" y2="100%">
      <stop offset="0%" style="stop-color:#667eea;stop-opacity:1" />
      <stop offset="100%" style="stop-color:#764ba2;stop-opacity:1" />
    </linearGradient>
    <linearGradient id="gradient2" x1="0%" y1="0%" x2="100%" y2="100%">
      <stop offset="0%" style="stop-color:#f093fb;stop-opacity:1" />
      <stop offset="100%" style="stop-color:#f5576c;stop-opacity:1" />
    </linearGradient>
    <linearGradient id="gradient3" x1="0%" y1="0%" x2="100%" y2="100%">
      <stop offset="0%" style="stop-color:#4facfe;stop-opacity:1" />
      <stop offset="100%" style="stop-color:#00f2fe;stop-opacity:1" />
    </linearGradient>
    <linearGradient id="gradient4" x1="0%" y1="0%" x2="100%" y2="100%">
      <stop offset="0%" style="stop-color:#667eea;stop-opacity:1" />
      <stop offset="100%" style="stop-color:#764ba2;stop-opacity:1" />
    </linearGradient>
    <linearGradient id="gradient5" x1="0%" y1="0%" x2="100%" y2="100%">
      <stop offset="0%" style="stop-color:#f093fb;stop-opacity:1" />
      <stop offset="100%" style="stop-color:#f5576c;stop-opacity:1" />
    </linearGradient>
  </defs>
</svg>
